<svg width="863" height="659" viewBox="0 0 863 659" fill="none" xmlns="http://www.w3.org/2000/svg">
<g filter="url(#filter0_bi_1_29)">
<rect y="197.997" width="765" height="477" rx="45" transform="rotate(-15 0 197.997)" fill="white" fill-opacity="0.32"/>
<rect y="197.997" width="765" height="477" rx="45" transform="rotate(-15 0 197.997)" fill="url(#paint0_linear_1_29)" fill-opacity="0.03"/>
<rect x="0.551135" y="198.315" width="764.1" height="476.1" rx="44.55" transform="rotate(-15 0.551135 198.315)" stroke="white" stroke-opacity="0.4" stroke-width="0.9"/>
</g>
<path d="M164.219 519.654L186.564 513.667L185.718 510.511L167.038 515.516C164.539 505.984 182.158 499.463 178.939 487.451C177.439 481.852 172.181 478.515 165.36 480.342C157.776 482.374 156.251 489.711 156.251 489.711L159.375 490.784C159.375 490.784 160.814 485.161 166.057 483.756C170.536 482.556 174.279 484.717 175.329 488.636C177.921 498.307 160.033 504.846 163.402 517.418C163.593 518.131 163.848 518.88 164.219 519.654ZM192.809 501.355L210.726 496.554L213.385 506.48L216.897 505.539L214.238 495.613L219.328 494.25L218.496 491.145L213.406 492.509L207.309 469.757L203.492 470.779L192.195 499.065L192.809 501.355ZM196.253 497.105L196.225 497.003L203.976 478.287C204.602 476.756 205.035 475.112 205.035 475.112L205.137 475.085C205.137 475.085 205.475 476.958 205.884 478.485L209.894 493.45L196.253 497.105ZM230.747 497.027C230.747 497.027 235.47 501.217 242.596 499.307C249.569 497.439 253.638 490.839 251.865 484.222C250.133 477.758 243.601 473.943 236.424 475.866C233.218 476.726 231.346 478.7 231.346 478.7L231.245 478.727C231.245 478.727 231.244 477.909 231.055 476.596L229.618 467.161L243.87 463.342L243.025 460.187L225.719 464.824L228.435 482.699L230.893 482.913C230.893 482.913 233.073 480.256 236.89 479.233C241.98 477.869 246.891 480.318 248.2 485.204C249.51 490.09 246.481 494.666 241.543 495.989C236.097 497.448 232.332 493.984 232.332 493.984L230.747 497.027ZM264.219 488.058C264.219 488.058 268.943 492.248 276.069 490.339C283.042 488.47 287.111 481.87 285.338 475.253C283.605 468.789 277.074 464.975 269.897 466.898C266.69 467.757 264.819 469.731 264.819 469.731L264.717 469.758C264.717 469.758 264.716 468.94 264.528 467.627L263.091 458.192L277.343 454.374L276.497 451.218L259.191 455.855L261.908 473.73L264.365 473.944C264.365 473.944 266.545 471.287 270.362 470.264C275.452 468.9 280.364 471.349 281.673 476.235C282.982 481.121 279.953 485.697 275.016 487.02C269.57 488.479 265.804 485.015 265.804 485.015L264.219 488.058ZM315.405 468.124C317.219 474.893 323.974 477.502 330.438 475.77C337.36 473.916 341.029 467.859 339.529 462.26C338.533 458.544 335.68 456.854 332.278 455.965C332.576 455.449 335.428 450.211 334.064 445.121C332.564 439.523 327.292 436.953 320.625 438.739C313.397 440.676 311.02 446.059 312.262 450.691C313.175 454.101 315.645 455.785 318.64 456.783C317.962 457.51 313.864 462.372 315.405 468.124ZM335.901 463.177C337.033 467.402 333.79 471.381 329.565 472.513C325.239 473.672 320.274 471.838 318.978 467.003C317.751 462.422 321.008 458.494 321.951 457.532C327.926 458.659 334.66 458.546 335.901 463.177ZM315.838 449.787C314.979 446.58 316.917 443.224 321.497 441.997C325.824 440.837 329.519 442.411 330.542 446.229C331.687 450.504 329.493 454.529 328.995 455.318C323.254 454.455 317.079 454.419 315.838 449.787ZM361.973 467.32C373.069 464.347 374.687 451.857 372.287 442.899C369.696 433.228 362.645 427.48 354.858 429.566C348.597 431.244 344.874 437.097 346.865 444.528C348.679 451.298 354.542 454.855 361.057 453.109C364.773 452.114 367.95 449.517 369.049 446.494L369.151 446.467C370.358 453.617 368.569 462.007 361.036 464.026C358.084 464.817 355.503 464.144 355.503 464.144L355.012 467.604C355.012 467.604 358.054 468.371 361.973 467.32ZM360.771 449.803C355.885 451.113 351.778 448.613 350.414 443.523C349.091 438.585 350.96 434.157 355.795 432.861C361.14 431.429 366.505 436.592 367.787 441.377C368.565 444.278 365.607 448.508 360.771 449.803ZM397.285 457.859C408.381 454.886 409.999 442.396 407.598 433.437C405.007 423.767 397.957 418.018 390.169 420.105C383.909 421.782 380.185 427.635 382.176 435.067C383.99 441.836 389.853 445.393 396.368 443.648C400.084 442.652 403.261 440.055 404.361 437.033L404.463 437.005C405.67 444.156 403.881 452.545 396.347 454.564C393.395 455.355 390.815 454.683 390.815 454.683L390.323 458.142C390.323 458.142 393.366 458.909 397.285 457.859ZM396.083 440.342C391.196 441.651 387.09 439.151 385.726 434.061C384.403 429.124 386.271 424.695 391.107 423.4C396.451 421.968 401.817 427.131 403.099 431.915C403.876 434.817 400.918 439.046 396.083 440.342ZM421.737 439.632C423.551 446.402 430.306 449.011 436.77 447.279C443.692 445.424 447.361 439.367 445.861 433.768C444.866 430.053 442.012 428.362 438.61 427.474C438.908 426.957 441.76 421.72 440.396 416.63C438.896 411.031 433.625 408.461 426.957 410.248C419.729 412.184 417.353 417.567 418.594 422.199C419.508 425.609 421.977 427.293 424.972 428.291C424.294 429.018 420.196 433.881 421.737 439.632ZM442.234 434.686C443.366 438.91 440.122 442.889 435.897 444.021C431.571 445.18 426.606 443.347 425.31 438.511C424.083 433.93 427.34 430.002 428.283 429.041C434.258 430.167 440.993 430.054 442.234 434.686ZM422.17 421.295C421.311 418.089 423.249 414.733 427.83 413.505C432.156 412.346 435.851 413.92 436.874 417.737C438.02 422.013 435.825 426.038 435.327 426.826C429.586 425.964 423.411 425.927 422.17 421.295ZM476.206 425.037C478.02 431.807 484.774 434.416 491.239 432.684C498.161 430.829 501.83 424.773 500.329 419.174C499.334 415.458 496.481 413.768 493.078 412.879C493.376 412.363 496.228 407.125 494.864 402.035C493.364 396.436 488.093 393.866 481.425 395.653C474.197 397.589 471.821 402.972 473.062 407.604C473.976 411.015 476.446 412.699 479.441 413.696C478.763 414.424 474.665 419.286 476.206 425.037ZM496.702 420.091C497.834 424.316 494.59 428.294 490.366 429.426C486.039 430.586 481.074 428.752 479.779 423.916C478.551 419.335 481.809 415.408 482.751 414.446C488.727 415.572 495.461 415.459 496.702 420.091ZM476.639 406.7C475.779 403.494 477.717 400.138 482.298 398.91C486.624 397.751 490.319 399.325 491.342 403.143C492.488 407.418 490.293 411.443 489.795 412.231C484.054 411.369 477.88 411.332 476.639 406.7ZM511.915 415.469C513.729 422.239 520.483 424.848 526.948 423.116C533.87 421.261 537.539 415.204 536.039 409.605C535.043 405.89 532.19 404.199 528.787 403.311C529.086 402.794 531.937 397.557 530.574 392.467C529.073 386.868 523.802 384.298 517.134 386.085C509.907 388.021 507.53 393.404 508.771 398.036C509.685 401.446 512.155 403.13 515.15 404.128C514.472 404.855 510.374 409.718 511.915 415.469ZM532.411 410.523C533.543 414.747 530.299 418.726 526.075 419.858C521.748 421.017 516.784 419.184 515.488 414.348C514.26 409.767 517.518 405.839 518.46 404.878C524.436 406.004 531.17 405.891 532.411 410.523ZM512.348 397.132C511.489 393.926 513.426 390.57 518.007 389.342C522.334 388.183 526.029 389.757 527.051 393.574C528.197 397.85 526.002 401.875 525.504 402.663C519.763 401.801 513.589 401.764 512.348 397.132ZM547.624 405.901C549.438 412.671 556.193 415.28 562.657 413.547C569.579 411.693 573.248 405.636 571.748 400.037C570.752 396.321 567.899 394.631 564.497 393.742C564.795 393.226 567.647 387.989 566.283 382.899C564.782 377.3 559.511 374.73 552.843 376.516C545.616 378.453 543.239 383.836 544.48 388.468C545.394 391.878 547.864 393.562 550.859 394.56C550.181 395.287 546.083 400.149 547.624 405.901ZM568.12 400.955C569.252 405.179 566.009 409.158 561.784 410.29C557.458 411.449 552.493 409.615 551.197 404.78C549.97 400.199 553.227 396.271 554.169 395.309C560.145 396.436 566.879 396.323 568.12 400.955ZM548.057 387.564C547.198 384.357 549.135 381.001 553.716 379.774C558.043 378.615 561.738 380.189 562.761 384.006C563.906 388.282 561.712 392.307 561.213 393.095C555.473 392.233 549.298 392.196 548.057 387.564ZM599.231 403.747C605.492 402.07 609.266 396.203 607.275 388.772C605.461 382.002 599.547 378.459 593.032 380.205C589.316 381.2 586.139 383.797 585.09 386.806L584.989 386.833C583.731 379.696 585.571 371.293 593.053 369.288C596.005 368.497 598.586 369.17 598.586 369.17L599.077 365.71C599.077 365.71 596.086 364.93 592.116 365.993C581.07 368.953 579.402 381.456 581.802 390.415C584.393 400.086 591.444 405.834 599.231 403.747ZM598.294 400.453C592.949 401.885 587.584 396.721 586.301 391.937C585.524 389.036 588.533 384.792 593.318 383.51C598.204 382.201 602.311 384.701 603.675 389.791C604.998 394.728 603.129 399.157 598.294 400.453ZM639.801 392.222L659.194 387.026L658.349 383.87L650.459 385.984L641.717 353.357L638.459 354.23L632.521 364.441L635.375 366.131L638.169 361.291C639.226 359.535 639.378 358.676 639.378 358.676L639.48 358.649C639.48 358.649 639.688 359.629 639.961 360.647L646.998 386.911L638.956 389.066L639.801 392.222ZM663.977 375.106L681.894 370.305L684.553 380.231L688.065 379.29L685.406 369.364L690.496 368.001L689.664 364.896L684.574 366.259L678.477 343.507L674.66 344.53L663.363 372.816L663.977 375.106ZM667.421 370.856L667.393 370.754L675.144 352.038C675.77 350.506 676.203 348.863 676.203 348.863L676.305 348.836C676.305 348.836 676.643 350.709 677.052 352.236L681.062 367.201L667.421 370.856ZM699.438 365.605L717.354 360.804L720.014 370.729L723.526 369.788L720.866 359.863L725.956 358.499L725.124 355.394L720.034 356.758L713.938 334.006L710.121 335.029L698.824 363.314L699.438 365.605ZM702.881 361.354L702.854 361.252L710.605 342.536C711.231 341.005 711.663 339.361 711.663 339.361L711.765 339.334C711.765 339.334 712.104 341.207 712.513 342.734L716.522 357.699L702.881 361.354ZM736.33 355.337C738.144 362.107 744.898 364.716 751.363 362.984C758.285 361.129 761.954 355.073 760.454 349.474C759.458 345.758 756.605 344.068 753.202 343.179C753.501 342.663 756.352 337.425 754.988 332.335C753.488 326.736 748.217 324.166 741.549 325.953C734.322 327.889 731.945 333.272 733.186 337.904C734.1 341.314 736.57 342.999 739.565 343.996C738.887 344.723 734.789 349.586 736.33 355.337ZM756.826 350.391C757.958 354.616 754.714 358.594 750.49 359.726C746.163 360.886 741.199 359.052 739.903 354.216C738.675 349.635 741.933 345.708 742.875 344.746C748.851 345.872 755.585 345.759 756.826 350.391ZM736.763 337C735.904 333.794 737.841 330.438 742.422 329.21C746.749 328.051 750.444 329.625 751.466 333.442C752.612 337.718 750.417 341.743 749.919 342.531C744.178 341.669 738.004 341.632 736.763 337Z" fill="white"/>
<path d="M184.069 572.047C189.327 570.638 189.816 565.677 188.296 560.002C186.782 554.355 183.885 550.331 178.628 551.74C173.398 553.141 172.901 558.074 174.414 563.722C175.935 569.397 178.839 573.449 184.069 572.047ZM183.391 569.516C180.192 570.373 178.372 567.253 177.224 562.969C176.083 558.713 176.107 555.128 179.306 554.271C182.533 553.406 184.345 556.499 185.486 560.755C186.634 565.039 186.618 568.651 183.391 569.516ZM196.163 565.885C196.163 565.885 198.869 568.082 202.902 567.001C206.88 565.935 209.097 562.3 208.083 558.517C207.136 554.984 203.67 552.841 199.525 553.952C198.079 554.34 197.158 555.242 197.158 555.242L197.102 555.257C197.102 555.257 197.094 554.782 196.965 554.191L196.328 549.919L203.839 547.906L203.198 545.514L193.294 548.168L194.929 558.165L196.672 558.324C196.672 558.324 197.802 556.978 199.721 556.464C202.253 555.785 204.647 556.933 205.281 559.297C205.922 561.69 204.344 563.812 202.035 564.431C199.253 565.176 197.156 563.472 197.156 563.472L196.163 565.885ZM215.24 564.589L217.633 563.948L218.84 540.19L216.447 540.831L215.24 564.589ZM229.624 559.483L242.281 556.092L241.64 553.699L231.904 556.308C230.759 551.814 239.866 548.301 238.136 541.847C237.227 538.453 234.036 536.893 230.42 537.862C225.997 539.047 225.215 543.252 225.215 543.252L227.611 544.071C227.611 544.071 228.331 541.195 230.918 540.501C232.977 539.95 234.801 540.862 235.323 542.809C236.561 547.427 227.204 551.008 229.082 558.018C229.209 558.491 229.399 558.977 229.624 559.483ZM245.648 549.554L255.162 547.005L256.571 552.263L259.269 551.54L257.86 546.282L260.531 545.566L259.905 543.23L257.234 543.945L254.007 531.9L250.863 532.742L245.186 547.83L245.648 549.554ZM248.054 546.405L248.039 546.349L251.613 537.431C251.955 536.594 252.154 535.557 252.154 535.557L252.21 535.542C252.21 535.542 252.374 536.601 252.62 537.519L254.536 544.668L248.054 546.405Z" fill="white"/>
<path d="M584.938 117.68L589.779 171.448L604.053 167.623L599.218 113.854L584.938 117.68Z" fill="white"/>
<path d="M564.061 123.336L559.469 162.119L556.561 157.228C552.096 151.593 541.816 144.535 531.081 141.228L555.345 180.648L570.441 176.576L579.179 119.273L564.061 123.336Z" fill="white"/>
<path d="M544.157 132.61C542.489 129.703 539.834 129.414 536.82 130.103L514.69 136.032L514.781 137.104C533.1 136.588 547.141 143.409 555.051 154.016L544.157 132.61Z" fill="white"/>
<path d="M630.786 115.952C635.436 114.629 639.089 114.723 641.996 115.056L643.444 115.305L642.391 103.652C639.285 103.369 634.555 103.44 629.026 104.921C614.922 108.7 606.848 118.333 609.446 128.34C611.332 135.744 619.609 137.941 625.687 138.949C631.924 139.98 634.218 141.083 634.796 143.34C635.673 146.791 631.705 149.545 627.605 150.644C621.889 152.176 618.645 152.215 613.444 151.555L611.385 151.227L612.458 163.264C616.183 163.806 622.678 163.389 629.094 161.74C644.098 157.719 652.004 148.221 649.247 137.523C647.746 131.668 642.745 128.233 633.516 126.788C627.885 125.742 624.406 124.976 623.791 122.563C623.218 120.427 625.198 117.449 630.786 115.952Z" fill="white"/>
<path d="M678.696 92.6197L667.668 95.5747C664.242 96.4925 661.94 98.0899 661.332 101.842L652.754 154.605L667.744 150.588C667.744 150.588 668.492 143.602 668.675 142.067C670.316 141.627 684.885 137.747 686.96 137.191C687.866 138.87 690.762 144.421 690.762 144.421L704.004 140.873L678.696 92.6197ZM669.965 130.451C670.35 127.186 671.805 114.568 671.805 114.568C671.765 114.729 672.172 111.285 672.392 109.154L674.541 113.326C674.541 113.326 680.562 124.859 681.823 127.273L669.965 130.451Z" fill="white"/>
<g filter="url(#filter1_bi_1_29)">
<rect x="118.467" y="353.105" width="108" height="86.4" rx="14.4" transform="rotate(-15 118.467 353.105)" fill="white" fill-opacity="0.32"/>
<rect x="118.467" y="353.105" width="108" height="86.4" rx="14.4" transform="rotate(-15 118.467 353.105)" fill="url(#paint1_linear_1_29)" fill-opacity="0.03"/>
<rect x="118.467" y="353.105" width="108" height="86.4" rx="14.4" transform="rotate(-15 118.467 353.105)" fill="url(#paint2_linear_1_29)"/>
<rect x="120.121" y="354.06" width="105.3" height="83.7" rx="13.05" transform="rotate(-15 120.121 354.06)" stroke="white" stroke-opacity="0.4" stroke-width="2.7"/>
</g>
<path opacity="0.9" fill-rule="evenodd" clip-rule="evenodd" d="M193.621 348.796L224.565 340.528L225.512 343.831L196.138 351.702L202.211 374.206L232.069 366.651L233.016 369.954L203.106 377.522L208.946 399.156L239.039 391.068L239.985 394.371L208.232 402.879C207.357 403.1 206.413 402.563 206.16 401.625L204.926 397.052L189.36 400.99L193.124 414.932C193.245 415.379 193.183 415.846 192.963 416.229L188.98 422.638L184.331 423.871L189.702 415.046L186.129 401.807L170.563 405.745L171.705 410.029C171.957 410.962 171.41 411.868 170.541 412.088L138.52 420.516L137.638 417.197L168.023 409.182L162.28 387.85L131.883 395.541L131.001 392.222L161.385 384.534L155.522 362.653L125.246 370.566L124.364 367.246L156.236 358.93C157.111 358.708 158.055 359.245 158.308 360.184L159.566 365.004L175.131 361.066L171.367 347.124C171.247 346.677 171.308 346.21 171.529 345.827L171.542 345.804L174.053 340.771L178.771 339.519L174.794 347.028L178.363 360.248L193.928 356.31L192.457 350.855C192.205 349.922 192.751 349.016 193.621 348.796ZM204.03 393.736L194.823 359.626L160.461 368.32L169.668 402.429L204.03 393.736Z" fill="#FBDCA6"/>
<defs>
<filter id="filter0_bi_1_29" x="-196.898" y="-196.898" width="1256.19" height="1052.54" filterUnits="userSpaceOnUse" color-interpolation-filters="sRGB">
<feFlood flood-opacity="0" result="BackgroundImageFix"/>
<feGaussianBlur in="BackgroundImage" stdDeviation="103.5"/>
<feComposite in2="SourceAlpha" operator="in" result="effect1_backgroundBlur_1_29"/>
<feBlend mode="normal" in="SourceGraphic" in2="effect1_backgroundBlur_1_29" result="shape"/>
<feColorMatrix in="SourceAlpha" type="matrix" values="0 0 0 0 0 0 0 0 0 0 0 0 0 0 0 0 0 0 127 0" result="hardAlpha"/>
<feMorphology radius="2.7" operator="erode" in="SourceAlpha" result="effect2_innerShadow_1_29"/>
<feOffset dy="3.6"/>
<feGaussianBlur stdDeviation="6.3"/>
<feComposite in2="hardAlpha" operator="arithmetic" k2="-1" k3="1"/>
<feColorMatrix type="matrix" values="0 0 0 0 1 0 0 0 0 1 0 0 0 0 1 0 0 0 0.25 0"/>
<feBlend mode="normal" in2="shape" result="effect2_innerShadow_1_29"/>
</filter>
<filter id="filter1_bi_1_29" x="-85.3002" y="121.386" width="534.217" height="518.943" filterUnits="userSpaceOnUse" color-interpolation-filters="sRGB">
<feFlood flood-opacity="0" result="BackgroundImageFix"/>
<feGaussianBlur in="BackgroundImage" stdDeviation="103.5"/>
<feComposite in2="SourceAlpha" operator="in" result="effect1_backgroundBlur_1_29"/>
<feBlend mode="normal" in="SourceGraphic" in2="effect1_backgroundBlur_1_29" result="shape"/>
<feColorMatrix in="SourceAlpha" type="matrix" values="0 0 0 0 0 0 0 0 0 0 0 0 0 0 0 0 0 0 127 0" result="hardAlpha"/>
<feMorphology radius="2.7" operator="erode" in="SourceAlpha" result="effect2_innerShadow_1_29"/>
<feOffset dy="3.6"/>
<feGaussianBlur stdDeviation="6.3"/>
<feComposite in2="hardAlpha" operator="arithmetic" k2="-1" k3="1"/>
<feColorMatrix type="matrix" values="0 0 0 0 1 0 0 0 0 1 0 0 0 0 1 0 0 0 0.25 0"/>
<feBlend mode="normal" in2="shape" result="effect2_innerShadow_1_29"/>
</filter>
<linearGradient id="paint0_linear_1_29" x1="382.5" y1="197.997" x2="382.5" y2="674.997" gradientUnits="userSpaceOnUse">
<stop stop-color="white" stop-opacity="0.2"/>
<stop offset="1" stop-color="white" stop-opacity="0"/>
</linearGradient>
<linearGradient id="paint1_linear_1_29" x1="172.467" y1="353.105" x2="172.467" y2="439.505" gradientUnits="userSpaceOnUse">
<stop stop-color="#564C16" stop-opacity="0.2"/>
<stop offset="1" stop-color="white" stop-opacity="0"/>
</linearGradient>
<linearGradient id="paint2_linear_1_29" x1="172.467" y1="353.105" x2="172.467" y2="439.505" gradientUnits="userSpaceOnUse">
<stop stop-color="#F6B545"/>
<stop offset="1" stop-color="#F6B545"/>
</linearGradient>
</defs>
</svg>
