<svg width="324" height="51" viewBox="0 0 324 51" fill="none" xmlns="http://www.w3.org/2000/svg">
<path d="M0.12 50H17.596C26.504 50 34.256 45.648 34.256 35.992C34.256 31.096 31.74 26.2 26.436 24.636V24.5C30.108 22.528 32.284 18.652 32.284 14.164C32.284 6.208 26.096 1.72 17.392 1.72H0.12V50ZM8.892 21.44V9.268H17.256C21.336 9.268 23.376 11.784 23.376 15.252C23.376 18.72 21.2 21.44 17.392 21.44H8.892ZM8.892 42.452V28.512H18.276C22.696 28.512 25.28 31.436 25.28 35.448C25.28 39.528 22.764 42.452 18.276 42.452H8.892ZM40.1449 40.004C40.1449 46.94 45.7209 50.816 51.9089 50.816C59.7969 50.816 62.5169 44.696 62.4489 44.696H62.5849C62.5849 44.696 62.4489 45.784 62.4489 47.144V50H70.4049V28.308C70.4049 19.536 65.1009 14.504 55.9889 14.504C47.7609 14.504 42.3889 18.788 42.3889 18.788L45.6529 24.976C45.6529 24.976 50.2089 21.644 55.1729 21.644C58.9809 21.644 61.8369 23.208 61.8369 27.764V28.24H60.6809C55.0369 28.24 40.1449 28.988 40.1449 40.004ZM48.8489 39.596C48.8489 34.768 55.9889 34.156 60.4089 34.156H61.9049V34.972C61.9049 39.188 58.6409 44.084 54.0849 44.084C50.5489 44.084 48.8489 41.908 48.8489 39.596ZM80.0731 50H88.7091V34.088C88.7091 32.456 88.8451 30.892 89.3211 29.464C90.6131 25.316 94.0131 22.392 98.6371 22.392C103.057 22.392 104.145 25.248 104.145 29.464V50H112.713V27.696C112.713 18.516 108.361 14.504 100.677 14.504C93.6731 14.504 89.8651 18.788 88.3691 21.712H88.2331C88.2331 21.712 88.3691 20.624 88.3691 19.332V15.32H80.0731V50ZM122.456 50H131.092V34.836H135.58L144.76 50H154.688L142.38 30.96V30.824L153.328 15.32H143.74L135.376 27.56H131.092V1.72H122.456V50ZM175.899 25.656C175.899 39.868 186.099 50.816 200.855 50.816C213.163 50.816 219.827 42.996 219.827 42.996L215.203 36.672C215.203 36.672 209.559 42.792 201.195 42.792C191.131 42.792 184.943 34.7 184.943 25.52C184.943 16.544 190.927 8.928 201.127 8.928C208.811 8.928 214.319 14.028 214.319 14.028L218.535 7.5C218.535 7.5 212.483 0.903996 200.719 0.903996C186.507 0.903996 175.899 11.648 175.899 25.656ZM224.303 40.004C224.303 46.94 229.879 50.816 236.067 50.816C243.955 50.816 246.675 44.696 246.607 44.696H246.743C246.743 44.696 246.607 45.784 246.607 47.144V50H254.563V28.308C254.563 19.536 249.259 14.504 240.147 14.504C231.919 14.504 226.547 18.788 226.547 18.788L229.811 24.976C229.811 24.976 234.367 21.644 239.331 21.644C243.139 21.644 245.995 23.208 245.995 27.764V28.24H244.839C239.195 28.24 224.303 28.988 224.303 40.004ZM233.007 39.596C233.007 34.768 240.147 34.156 244.567 34.156H246.063V34.972C246.063 39.188 242.799 44.084 238.243 44.084C234.707 44.084 233.007 41.908 233.007 39.596ZM264.231 50H272.867V36.264C272.867 34.224 273.071 32.32 273.615 30.62C275.247 25.452 279.395 23.344 283.067 23.344C284.223 23.344 285.107 23.48 285.107 23.48V14.98C285.107 14.98 284.359 14.844 283.543 14.844C278.239 14.844 274.091 18.788 272.527 23.752H272.391C272.391 23.752 272.527 22.596 272.527 21.304V15.32H264.231V50ZM289.226 32.66C289.226 43.404 295.21 50.816 304.594 50.816C312.55 50.816 315.474 44.9 315.474 44.9H315.61C315.61 44.9 315.474 45.852 315.474 47.144V50H323.634V1.72H314.998V16.952C314.998 18.04 315.066 18.924 315.066 18.924H314.93C314.93 18.924 312.55 14.504 304.934 14.504C295.754 14.504 289.226 21.644 289.226 32.66ZM297.93 32.66C297.93 25.792 301.874 21.916 306.634 21.916C312.414 21.916 315.27 27.22 315.27 32.592C315.27 40.276 311.054 43.54 306.566 43.54C301.466 43.54 297.93 39.256 297.93 32.66Z" fill="#263852"/>
</svg>
