<svg width="544" height="748" viewBox="0 0 544 748" fill="none" xmlns="http://www.w3.org/2000/svg">
<g filter="url(#filter0_bi_1_28)">
<rect x="746.506" y="285.839" width="650.25" height="405.45" rx="38.25" transform="rotate(134.778 746.506 285.839)" fill="white" fill-opacity="0.32"/>
<rect x="746.506" y="285.839" width="650.25" height="405.45" rx="38.25" transform="rotate(134.778 746.506 285.839)" fill="url(#paint0_linear_1_28)" fill-opacity="0.03"/>
<rect x="745.966" y="285.841" width="649.485" height="404.685" rx="37.8675" transform="rotate(134.778 745.966 285.841)" stroke="white" stroke-opacity="0.4" stroke-width="0.765"/>
</g>
<mask id="mask0_1_28" style="mask-type:alpha" maskUnits="userSpaceOnUse" x="16" y="16" width="715" height="716">
<rect x="745.968" y="286.382" width="649.485" height="405.45" rx="38.25" transform="rotate(134.778 745.968 286.382)" fill="white" fill-opacity="0.32"/>
<rect x="745.968" y="286.382" width="649.485" height="405.45" rx="38.25" transform="rotate(134.778 745.968 286.382)" fill="url(#paint1_linear_1_28)" fill-opacity="0.03"/>
<rect x="745.427" y="286.384" width="648.72" height="404.685" rx="37.8675" transform="rotate(134.778 745.427 286.384)" stroke="white" stroke-opacity="0.4" stroke-width="0.765"/>
</mask>
<g mask="url(#mask0_1_28)">
<g opacity="0.18">
<path d="M526.027 161.971C526.076 162.837 526.29 163.766 526.597 165.4C543.777 148.087 560.394 131.34 576.96 114.645C577.451 114.723 577.89 114.852 578.438 114.987C582.447 186.56 586.456 258.134 590.452 329.491C606.456 313.363 622.716 296.977 638.918 280.535C639.838 279.607 639.997 277.617 639.912 276.101C638.058 242.049 636.205 207.998 634.244 173.941C634.165 172.533 634.251 171.187 634.281 169.785C596.532 132.328 558.784 94.8705 521.035 57.4134C520.828 58.5373 520.41 59.759 520.42 60.8934C522.255 94.6203 524.141 128.296 526.027 161.971Z" fill="white"/>
<path d="M842.332 995.943C842.259 994.644 842.13 993.288 841.9 991.117C824.771 1008.38 808.256 1025.02 790.923 1042.49C788.879 1006 786.896 970.591 784.871 934.426C767.895 951.533 751.636 967.919 735.434 984.361C734.565 985.237 734.394 987.011 734.416 988.362C736.263 1022.31 738.161 1056.2 740.117 1090.15C740.165 1091.01 740.328 1091.99 740.585 1093.68C757.713 1076.42 774.33 1059.67 790.948 1042.92C791.279 1043.05 791.661 1043.12 791.992 1043.24C791.854 1044.64 791.551 1045.98 791.681 1047.33C793.524 1080.25 795.368 1113.17 797.212 1146.08C797.291 1147.49 797.529 1148.85 797.716 1150.27C814.742 1133.11 831.82 1115.9 848.846 1098.74C848.493 1097.26 847.924 1095.78 847.845 1094.37C845.95 1061.5 844.113 1028.7 842.332 995.943Z" fill="white"/>
<path d="M-827.18 1076.26C-827.252 1074.96 -827.217 1073.66 -827.23 1071.5C-807.955 1090.63 -789.367 1109.07 -771.122 1127.18C-773.105 1091.77 -775.094 1056.25 -777.035 1021.6C-812.349 1019.9 -848.096 1018.18 -884.276 1016.43C-884.177 1017.25 -883.881 1018.66 -883.802 1020.07C-881.953 1053.1 -880.103 1086.12 -878.253 1119.15C-878.174 1120.56 -878.261 1121.9 -878.29 1123.31C-859.416 1142.03 -840.542 1160.76 -821.667 1179.49C-821.638 1178.09 -821.551 1176.74 -821.63 1175.34C-823.48 1142.31 -825.33 1109.28 -827.18 1076.26Z" fill="white"/>
<path d="M346.08 -115.168C347.967 -113.296 348.714 -111.532 348.854 -109.041C350.665 -75.7474 352.475 -42.4535 354.394 -9.15446C354.473 -7.7468 354.654 -6.44225 354.739 -4.92631C355.88 -4.8173 356.695 -4.72398 357.613 -4.73371C391.952 -3.07731 426.291 -1.42073 460.63 0.235674C461.496 0.277476 462.351 0.102526 463.211 0.0360474C406.188 -56.5469 349.222 -113.073 292.199 -169.656C293.018 -168.536 293.575 -167.268 294.547 -166.303C311.712 -149.169 328.87 -132.143 346.08 -115.168Z" fill="white"/>
<path d="M814.903 449.333C849.351 450.994 883.798 452.656 918.137 454.312C919.003 454.354 919.858 454.179 920.718 454.113C901.844 435.384 882.97 416.656 864.096 397.927C862.913 397.06 861.468 396.343 860.439 395.321C843.458 378.574 826.522 361.666 809.592 344.868C808.62 343.903 807.648 342.938 807.076 342.37C809.071 377.995 811.06 413.511 813.056 449.135C813.387 449.259 814.145 449.296 814.903 449.333Z" fill="white"/>
<path d="M-653.574 1244.02C-653.974 1243.63 -654.528 1243.38 -655.648 1242.68C-655.367 1244.8 -655.129 1246.16 -655.05 1247.57C-653.155 1280.44 -651.369 1313.3 -649.525 1346.21C-649.446 1347.62 -649.533 1348.97 -649.511 1350.32C-630.637 1369.05 -611.763 1387.77 -592.888 1406.5C-592.859 1405.1 -592.772 1403.76 -592.851 1402.35C-594.707 1369.21 -596.505 1336.14 -598.361 1303C-598.434 1301.7 -598.347 1300.36 -598.312 1299.06C-598.604 1298.67 -598.902 1298.17 -599.245 1297.83C-617.37 1279.95 -635.443 1262.01 -653.574 1244.02Z" fill="white"/>
<path d="M-26.4783 1866.48L-26.4723 1866.59C-26.4723 1866.59 -26.4722 1866.59 -26.4783 1866.48Z" fill="white"/>
<path d="M24.7139 1819.92C24.6411 1818.62 24.5111 1817.27 24.3387 1815.15C23.0093 1816.49 22.1911 1817.32 21.373 1818.14C10.2267 1829.38 -0.91956 1840.61 -12.0659 1851.84C-16.9232 1856.74 -21.615 1861.69 -26.4151 1866.65C-26.234 1867.95 -25.9958 1869.31 -25.923 1870.61C-24.0671 1903.75 -22.2114 1936.88 -20.3616 1969.91C-20.2828 1971.31 -20.0443 1972.67 -19.8572 1974.09C-2.9843 1957.08 13.8885 1940.08 30.7613 1923.07C30.5742 1921.66 30.3359 1920.3 30.3142 1918.95C28.4644 1885.92 26.5636 1852.95 24.7139 1819.92Z" fill="white"/>
<path d="M692.813 1145.37C691.838 1145.32 690.869 1145.38 689.792 1145.44C689.846 1146.41 689.781 1147.17 689.823 1147.92C691.676 1181.97 693.638 1216.03 695.542 1250.03C695.591 1250.9 695.856 1251.78 696.013 1252.65C729.758 1218.64 763.504 1184.63 797.25 1150.62C796.269 1150.47 795.231 1150.25 794.256 1150.21C760.407 1148.63 726.61 1147 692.813 1145.37Z" fill="white"/>
<path d="M896.388 939.751C895.521 939.709 894.718 939.832 893.8 939.842C893.855 940.817 893.789 941.569 893.831 942.327C895.685 976.379 897.646 1010.44 899.551 1044.44C899.599 1045.3 899.864 1046.18 900.021 1047.05C933.767 1013.04 967.513 979.034 1001.26 945.026C1000.39 944.876 999.507 944.617 998.64 944.575C964.524 943.038 930.453 941.34 896.388 939.751Z" fill="white"/>
<path d="M78.8205 1763.68C77.9539 1763.64 77.1506 1763.76 76.2329 1763.77C76.2875 1764.75 76.2216 1765.5 76.264 1766.26C78.1173 1800.31 80.0789 1834.37 81.9321 1868.42C81.9807 1869.28 82.2457 1870.16 82.4025 1871.03C116.148 1837.02 149.894 1803.01 183.64 1769.01C182.767 1768.86 181.888 1768.6 181.022 1768.56C146.957 1766.97 112.886 1765.27 78.8205 1763.68Z" fill="white"/>
<path d="M433.747 1407.59C433.674 1406.29 433.493 1404.99 433.276 1403.04C432.049 1404.27 431.282 1405.04 430.515 1405.82C415.329 1421.12 400.252 1436.43 384.952 1451.62C383.265 1453.32 382.769 1455.08 382.959 1457.52C384.891 1491.03 386.771 1524.6 388.651 1558.17C388.724 1559.47 389.007 1560.67 389.131 1561.92C406.004 1544.91 422.877 1527.91 439.75 1510.9C439.562 1509.49 439.324 1508.13 439.245 1506.72C437.447 1473.64 435.597 1440.62 433.747 1407.59Z" fill="white"/>
<path d="M754.776 388.442C754.837 389.525 755.057 390.562 755.205 392.243C772.538 374.775 789.462 357.719 806.386 340.663C787.512 321.935 768.637 303.206 749.763 284.478C749.568 285.818 749.15 287.04 749.223 288.339C751.04 321.741 752.908 355.092 754.776 388.442Z" fill="white"/>
<path d="M926.36 558.702C926.421 559.785 926.641 560.821 926.789 562.502C944.122 545.034 961.046 527.978 977.97 510.923C959.096 492.194 940.222 473.466 921.348 454.737C921.153 456.078 920.735 457.299 920.808 458.599C922.624 492.001 924.492 525.351 926.36 558.702Z" fill="white"/>
<path d="M697.581 331.689C697.642 332.772 697.862 333.809 698.01 335.49C715.343 318.022 732.267 300.966 749.191 283.91C730.317 265.182 711.443 246.453 692.568 227.725C692.373 229.065 691.956 230.287 692.028 231.586C693.845 264.988 695.713 298.339 697.581 331.689Z" fill="white"/>
<path d="M-531.968 1464.19C-532.835 1464.15 -533.689 1464.33 -534.55 1464.39C-515.675 1483.12 -496.801 1501.85 -477.927 1520.58C-461.156 1503.68 -444.385 1486.77 -427.155 1469.41C-428.837 1469.27 -429.544 1469.19 -430.302 1469.15C-464.208 1467.51 -498.062 1465.83 -531.968 1464.19Z" fill="white"/>
<path d="M587.594 1251.52C589.492 1285.41 591.39 1319.3 593.288 1353.2C593.337 1354.06 593.602 1354.94 593.759 1355.81C610.632 1338.81 627.505 1321.8 644.378 1304.8C625.618 1286.18 606.858 1267.57 587.583 1248.44C587.509 1250 587.551 1250.76 587.594 1251.52Z" fill="white"/>
<path d="M331.944 1509.16C333.842 1543.05 335.683 1576.89 337.582 1610.78C337.63 1611.64 337.895 1612.52 338.052 1613.39C354.925 1596.39 371.798 1579.38 388.671 1562.38C369.911 1543.76 351.151 1525.15 331.876 1506.02C331.859 1507.64 331.902 1508.4 331.944 1509.16Z" fill="white"/>
<path d="M280.814 1560.69C282.712 1594.58 284.553 1628.41 286.452 1662.31C286.5 1663.17 286.765 1664.05 286.922 1664.92C303.795 1647.92 320.668 1630.91 337.541 1613.91C318.781 1595.29 300.021 1576.68 280.746 1557.55C280.729 1559.17 280.772 1559.93 280.814 1560.69Z" fill="white"/>
<path d="M996.122 839.813C998.02 873.705 999.918 907.597 1001.82 941.489C1001.86 942.355 1002.13 943.232 1002.29 944.103C1019.16 927.099 1036.03 910.095 1052.91 893.091C1034.15 874.476 1015.39 855.861 996.111 836.735C996.037 838.297 996.079 839.055 996.122 839.813Z" fill="white"/>
<path d="M1098.38 736.758C1100.28 770.649 1102.18 804.541 1104.08 838.433C1104.12 839.299 1104.39 840.176 1104.55 841.048C1121.42 824.044 1138.29 807.039 1155.17 790.035C1136.41 771.42 1117.65 752.805 1098.37 733.679C1098.3 735.242 1098.34 736 1098.38 736.758Z" fill="white"/>
<path d="M485.334 1354.58C487.232 1388.47 489.13 1422.36 491.029 1456.25C491.077 1457.12 491.342 1457.99 491.499 1458.87C508.372 1441.86 525.245 1424.86 542.118 1407.85C523.358 1389.24 504.598 1370.62 485.323 1351.5C485.249 1353.06 485.291 1353.82 485.334 1354.58Z" fill="white"/>
<path d="M1155.15 786.849C1155.2 787.715 1155.46 788.592 1155.62 789.463C1172.49 772.459 1189.37 755.455 1206.24 738.451C1187.48 719.836 1168.72 701.221 1149.44 682.095C1149.48 683.771 1149.47 684.472 1149.51 685.23C1151.41 719.122 1153.25 752.957 1155.15 786.849Z" fill="white"/>
<path d="M-303.189 1691.2C-304.055 1691.16 -304.91 1691.34 -305.77 1691.4C-286.896 1710.13 -268.022 1728.86 -249.148 1747.59C-232.377 1730.69 -215.606 1713.79 -198.376 1696.42C-200.058 1696.29 -200.765 1696.2 -201.523 1696.16C-235.429 1694.53 -269.283 1692.84 -303.189 1691.2Z" fill="white"/>
<path d="M178.554 1663.74C180.453 1697.63 182.294 1731.47 184.192 1765.36C184.241 1766.23 184.506 1767.1 184.662 1767.98C201.535 1750.97 218.408 1733.97 235.281 1716.96C216.521 1698.35 197.761 1679.73 178.487 1660.61C178.469 1662.23 178.512 1662.98 178.554 1663.74Z" fill="white"/>
<path d="M536.96 1303.23C538.852 1337.02 540.745 1370.8 542.688 1404.53C542.731 1405.29 542.932 1406 543.083 1406.77C559.803 1389.92 576.471 1373.12 593.19 1356.27C574.602 1337.82 556.014 1319.38 536.968 1300.48C536.945 1301.99 536.981 1302.64 536.96 1303.23Z" fill="white"/>
<path d="M-472.002 708.25C-469.886 710.35 -468.802 712.346 -468.689 715.321C-466.942 748.45 -465.029 781.641 -463.224 814.826C-463.145 816.234 -462.964 817.539 -462.897 818.73C-390.861 822.205 -319.151 825.664 -247.765 829.107C-249.748 793.699 -251.737 758.183 -253.726 722.667C-254.391 723.337 -255.311 724.265 -256.232 725.192C-271.417 740.496 -286.552 755.748 -301.68 771.108C-303.214 772.654 -304.739 773.391 -307.122 773.276C-340.926 771.537 -374.774 769.958 -408.572 768.328C-409.655 768.276 -410.795 768.167 -412.426 767.98C-414.446 731.923 -416.459 695.973 -418.43 660.782C-454.177 659.058 -489.708 657.344 -525.073 655.692C-524.387 656.373 -523.357 657.394 -522.328 658.416C-505.627 674.988 -488.863 691.725 -472.002 708.25Z" fill="white"/>
<path d="M-225.223 1151.51C-210.037 1136.21 -194.96 1120.9 -179.66 1105.71C-177.973 1104.01 -177.42 1102.31 -177.56 1099.82C-181.516 1030.14 -185.416 960.513 -189.316 890.888C-189.389 889.589 -189.564 888.393 -189.612 887.526C-225.468 885.797 -261.215 884.072 -296.204 882.385C-294.227 917.684 -292.243 953.092 -290.254 988.608C-273.892 972.119 -257.275 955.373 -240.658 938.626C-240.327 938.75 -239.945 938.823 -239.614 938.947C-235.605 1010.52 -231.596 1082.09 -227.569 1153.99C-226.706 1153.01 -225.939 1152.24 -225.223 1151.51Z" fill="white"/>
<path d="M162.022 418.649C164.056 454.005 166.033 489.305 168.116 525.527C149.07 506.629 130.653 488.354 112.866 470.704C114.825 505.679 116.808 541.086 118.773 576.169C134.93 559.887 151.394 543.295 168.165 526.394C169.48 527.699 170.624 528.834 171.711 529.912C189.435 547.398 207.108 564.934 224.832 582.419C224.97 581.022 225.268 579.579 225.189 578.171C223.408 545.419 221.519 512.661 219.739 479.909C219.666 478.609 219.702 477.315 219.638 475.206C238.626 494.048 257.043 512.323 275.974 531.108C275.916 529.108 275.895 527.757 275.816 526.349C273.966 493.324 272.116 460.298 270.267 427.272C270.194 425.973 270.223 424.57 270.259 423.276C251.499 404.661 232.739 386.046 213.979 367.431C213.392 367.565 212.914 367.704 212.327 367.837C214.292 402.92 216.257 438.003 218.235 473.303C199.875 455.085 181.344 436.697 162.87 418.366C162.659 418.464 162.341 418.556 162.022 418.649Z" fill="white"/>
<path d="M454.65 809.644C454.593 809.587 454.644 809.536 454.586 809.479C454.535 809.531 454.484 809.582 454.433 809.634C454.433 809.634 454.433 809.634 454.49 809.69C454.541 809.639 454.599 809.696 454.65 809.644Z" fill="white"/>
<path d="M390.584 645.651C392.619 681.007 394.596 716.307 396.673 752.421C377.741 733.636 359.324 715.361 341.766 697.938C343.712 732.696 345.696 768.104 347.667 803.296C380.799 769.905 414.289 736.155 447.779 702.404C448.11 702.528 448.384 702.595 448.715 702.719C448.628 704.065 448.382 705.457 448.461 706.865C450.305 739.782 452.148 772.699 453.992 805.617C454.065 806.916 454.354 808.226 454.535 809.531C471.562 792.372 488.537 775.265 505.563 758.106C505.216 756.739 504.647 755.254 504.568 753.846C502.643 720.439 500.769 686.98 498.952 653.578C498.813 651.088 497.957 649.319 496.127 647.502C479.204 630.812 462.331 614.07 445.459 597.327C444.544 596.419 443.628 595.511 442.713 594.603C442.337 594.639 441.91 594.727 441.534 594.762C443.505 629.954 445.47 665.037 447.483 700.986C428.495 682.144 410.021 663.813 391.547 645.481C391.388 645.528 390.96 645.615 390.584 645.651Z" fill="white"/>
<path d="M557.306 705.96C592.404 707.653 627.934 709.367 663.465 711.081C645.105 692.863 626.517 674.418 607.414 655.462C609.523 655.51 610.874 655.521 612.174 655.584C645.646 657.199 679.062 658.757 712.432 660.474C714.923 660.594 716.62 660.028 718.307 658.328C733.436 642.967 748.57 627.715 763.756 612.411C764.471 611.69 765.238 610.917 765.648 610.505C694.045 607.051 622.334 603.592 551.381 600.169C553.352 635.36 555.348 670.985 557.306 705.96Z" fill="white"/>
<path d="M-678.692 810.048C-660.675 827.925 -642.596 845.968 -624.363 863.855C-623.276 864.934 -621.142 865.414 -619.517 865.493C-585.822 867.226 -552.082 868.8 -518.393 870.425C-517.202 870.482 -515.908 870.437 -514.124 870.469C-514.38 868.783 -514.784 867.359 -514.863 865.952C-516.707 833.034 -518.55 800.117 -520.502 767.194C-520.672 764.162 -520.035 762.033 -517.933 760.029C-502.735 744.942 -487.709 729.684 -472.626 714.484C-471.756 713.608 -470.887 712.732 -470.069 711.907C-506.033 710.172 -541.455 708.464 -577.852 706.708C-575.845 742.549 -573.837 778.39 -571.718 815.262C-607.306 813.492 -642.944 811.772 -678.692 810.048Z" fill="white"/>
<path d="M576.008 1139.19C577.308 1139.26 578.602 1139.21 580.603 1139.25C579.116 1137.78 578.201 1136.87 577.286 1135.96C560.528 1119.33 543.661 1102.7 527.006 1085.97C525.061 1084.04 523.228 1083.14 520.571 1082.96C450.976 1079.65 381.431 1076.3 311.887 1072.94C310.478 1072.88 309.185 1072.92 308.643 1072.9C310.651 1108.74 312.634 1144.14 314.617 1179.55C315.23 1178.93 316.151 1178.01 317.071 1177.08C332.257 1161.78 347.334 1146.47 362.634 1131.28C363.861 1130.04 366.19 1129.18 368.031 1129.27C401.874 1130.74 435.728 1132.43 469.525 1134.06C470.609 1134.11 471.755 1134.33 472.896 1134.44C474.247 1134.45 475.591 1134.35 477 1134.42C509.879 1136.06 542.969 1137.6 576.008 1139.19Z" fill="white"/>
<path d="M286.925 747.829C252.204 746.1 217.489 744.48 182.774 742.859C181.257 742.786 179.527 743.728 178.454 744.81C163.16 760.109 147.872 775.516 132.635 790.871C131.919 791.592 131.152 792.365 130.181 793.344C166.361 795.09 202 796.809 238.448 798.513C240.504 835.22 242.455 871.004 244.438 906.412C279.968 908.126 315.499 909.84 351.246 911.565C350.331 910.657 349.359 909.692 348.329 908.67C331.342 891.814 314.413 875.016 297.375 858.211C295.545 856.395 294.689 854.626 294.55 852.136C292.739 818.842 290.871 785.491 289.009 752.249C288.93 750.842 288.8 749.485 288.664 748.021C287.906 747.984 287.467 747.855 286.925 747.829Z" fill="white"/>
<path d="M84.232 954.73C48.4848 953.006 12.9543 951.292 -22.7929 949.568C-21.8778 950.476 -20.9054 951.44 -19.8759 952.462C-3.00345 969.204 13.8178 985.998 30.7926 1002.64C32.8516 1004.68 33.7702 1006.61 33.979 1009.38C37.6829 1078.4 41.6034 1147.43 45.4667 1216.41C45.5456 1217.81 45.7327 1219.23 45.8991 1221.23C44.2889 1220.45 42.8261 1219.41 41.333 1217.83C24.1564 1200.48 6.72412 1183.38 -10.6059 1166.19C-8.60449 1201.92 -6.61525 1237.44 -4.6199 1273.06C-4.6199 1273.06 -4.28888 1273.18 -3.90671 1273.26C31.0822 1274.94 66.0199 1276.68 101.003 1278.26C102.303 1278.33 103.822 1277.48 104.691 1276.6C120.241 1261.05 135.733 1245.44 151.277 1229.77C151.89 1229.15 152.389 1228.42 153.445 1227.01C151.125 1227.06 149.729 1227.21 148.321 1227.14C116.04 1225.59 83.7018 1223.97 51.4843 1222.58C49.4262 1222.48 47.7319 1222.13 46.0707 1221.4C47.1955 1220.27 47.9114 1219.55 48.6272 1218.83C63.8128 1203.52 78.89 1188.21 94.19 1173.02C95.8773 1171.32 96.4302 1169.62 96.2907 1167.13C92.3338 1097.45 88.434 1027.83 84.5342 958.201C84.4043 956.844 84.2805 955.596 84.232 954.73Z" fill="white"/>
<path d="M450.494 809.714C417.296 808.166 384.091 806.51 350.944 804.911C349.536 804.844 348.185 804.832 346.617 804.811C346.651 806.378 346.73 807.786 346.751 809.137C348.601 842.162 350.4 875.24 352.358 908.271C352.573 911.143 351.93 913.163 349.936 915.173C334.738 930.26 319.712 945.518 304.629 960.718C303.759 961.594 302.839 962.522 302.174 963.192C337.813 964.911 373.344 966.625 409.741 968.38C407.751 932.864 405.744 897.023 403.706 860.641C405.121 860.817 406.49 861.153 407.841 861.164C440.88 862.758 473.976 864.408 507.066 865.951C508.366 866.013 509.762 865.865 511.056 865.819C492.182 847.091 473.365 828.419 454.49 809.69C453.139 809.679 451.845 809.725 450.494 809.714Z" fill="white"/>
<path d="M-104.874 1484.25C-103.033 1484.34 -100.704 1483.48 -99.4768 1482.25C-84.1257 1467.01 -68.9463 1451.59 -53.6585 1436.19C-52.9427 1435.46 -52.284 1434.69 -51.9321 1434.22C-123.535 1430.76 -195.137 1427.31 -266.415 1423.87C-264.438 1459.17 -262.443 1494.8 -260.502 1529.45C-225.296 1531.14 -189.657 1532.86 -154.344 1534.57C-172.474 1516.58 -191.063 1498.13 -210.566 1478.78C-208.062 1479.11 -206.642 1479.4 -205.234 1479.47C-171.762 1481.08 -138.289 1482.7 -104.874 1484.25Z" fill="white"/>
<path d="M-112.364 351.419C-113.08 352.14 -114 353.068 -114.92 353.995C-130.106 369.299 -145.241 384.551 -160.369 399.912C-162.056 401.612 -163.753 402.178 -166.245 402.058C-199.94 400.325 -233.623 398.808 -267.266 397.023C-269.108 396.934 -271.495 395.793 -272.918 394.482C-290.065 377.673 -307.058 360.709 -324.159 343.74C-325.131 342.775 -326.103 341.81 -327.247 340.675C-325.228 376.733 -323.245 412.141 -321.331 447.275C-249.403 450.745 -177.692 454.204 -106.414 457.642C-108.437 422.503 -110.426 386.987 -112.364 351.419Z" fill="white"/>
<path d="M138.876 -13.8812C156.949 4.05278 174.972 22.0381 193.205 39.9258C194.292 41.0041 196.425 41.4851 197.999 41.615C231.694 43.3484 265.434 44.922 299.123 46.5471C300.315 46.6046 301.609 46.5589 303.444 46.5395C303.188 44.8533 302.784 43.4299 302.705 42.0222C300.828 9.48116 299.06 -23.0546 297.183 -55.5956C296.914 -59.4422 297.737 -62.1022 300.453 -64.7249C315.452 -79.4977 330.166 -94.5543 344.993 -109.497C345.862 -110.373 346.732 -111.249 347.601 -112.125C311.637 -113.86 276.215 -115.569 239.818 -117.325C241.825 -81.4835 243.833 -45.6424 245.952 -8.77008C210.262 -10.4377 174.623 -12.1569 138.876 -13.8812Z" fill="white"/>
<path d="M40.686 197.521C5.26382 195.812 -30.4833 194.088 -66.7721 192.337C-66.6153 193.209 -66.3198 194.627 -66.2409 196.035C-64.3912 229.06 -62.5413 262.086 -60.6915 295.112C-60.6187 296.411 -60.6483 297.813 -60.6839 299.108C-41.8096 317.836 -22.9292 336.673 -4.05493 355.402C-3.91712 354.004 -3.51158 352.566 -3.59042 351.158C-5.37088 318.406 -7.20849 285.597 -9.04614 252.788C-9.11892 251.488 -9.08336 250.194 -9.09633 248.034C9.89235 266.876 28.3091 285.15 46.6114 303.311C44.571 267.847 42.5817 232.331 40.686 197.521Z" fill="white"/>
<path d="M10.7551 570.635C9.78368 571.614 9.52283 573.707 9.55661 575.275C11.3345 608.945 13.2207 642.62 15.1069 676.295C15.1736 677.487 15.3546 678.791 15.391 679.441C51.3547 681.176 87.102 682.9 122.307 684.598C120.336 649.407 118.353 613.999 116.358 578.375C99.8428 595.018 83.2255 611.765 66.097 629.027C64.0653 592.752 62.1334 557.293 60.0323 520.746C43.0633 537.961 26.8489 554.187 10.7551 570.635Z" fill="white"/>
<path d="M729.198 877.854C764.672 879.511 800.151 881.276 836.058 882.954C819.287 899.856 802.67 916.602 786.308 933.091C821.839 934.805 857.369 936.519 891.982 938.243C889.948 902.886 887.997 867.102 885.978 831.044C885.168 831.059 883.772 831.208 882.364 831.14C849.325 829.546 816.286 827.953 783.247 826.359C781.947 826.296 780.584 826.068 779.227 825.949C762.456 842.85 745.635 859.803 728.864 876.704C728.882 877.029 729.015 877.467 729.198 877.854Z" fill="white"/>
<path d="M74.3576 1762.12C72.3804 1726.82 70.373 1690.97 68.3595 1655.03C67.5501 1655.04 66.1478 1655.08 64.7396 1655.01C31.7006 1653.42 -1.3385 1651.83 -34.3775 1650.23C-35.6774 1650.17 -37.0405 1649.94 -38.3975 1649.82C-55.1682 1666.72 -71.9899 1683.68 -88.7605 1700.58C-88.6279 1701.01 -88.4443 1701.4 -88.3689 1701.78C-52.8384 1703.5 -17.4162 1705.21 18.4393 1706.94C1.66865 1723.84 -14.9486 1740.58 -31.3101 1757.07C4.22036 1758.79 39.7509 1760.5 74.3576 1762.12Z" fill="white"/>
<path d="M-196.688 1696.67C-194.68 1732.51 -192.679 1768.24 -190.708 1803.43C-155.61 1805.12 -119.863 1806.85 -84.9826 1808.53C-86.9658 1773.12 -88.9672 1737.39 -90.9626 1701.77C-126.06 1700.07 -161.59 1698.36 -196.688 1696.67Z" fill="white"/>
<path d="M-456.433 1035.4C-455.025 1035.46 -453.566 1035.48 -451.616 1035.57C-452.537 1034.56 -452.829 1034.17 -453.172 1033.83C-470.788 1016.35 -488.353 998.814 -506.129 981.381C-507.33 980.189 -509.533 979.435 -511.266 979.351C-580.925 975.883 -650.629 972.574 -720.282 969.215C-721.473 969.157 -722.658 969.208 -724.169 969.243C-705.009 988.255 -686.249 1006.87 -667.489 1025.49C-666.138 1025.5 -664.793 1025.4 -663.493 1025.46C-594.49 1028.79 -525.436 1032.07 -456.433 1035.4Z" fill="white"/>
<path d="M418.911 161.934C420.889 197.233 422.827 232.801 424.843 267.832C460.048 269.531 495.796 271.255 531.651 272.984C531.69 272.716 531.711 272.123 531.674 271.474C529.74 236.932 527.856 202.339 525.813 167.792C525.728 166.276 524.65 164.388 523.449 163.197C506.342 146.119 489.183 129.093 472.025 112.067C471.224 111.273 470.321 110.581 469.527 109.895C469.099 109.982 468.672 110.07 468.245 110.157C470.234 145.673 472.217 181.081 474.219 216.814C455.63 198.369 437.042 179.924 418.911 161.934Z" fill="white"/>
<path d="M-392.959 1091.43C-357.537 1093.14 -321.79 1094.86 -285.935 1096.59C-285.935 1096.59 -285.908 1096.1 -285.938 1095.56C-287.873 1061.02 -289.756 1026.43 -291.799 991.881C-291.884 990.366 -292.911 988.426 -294.055 987.291C-311.162 970.214 -328.321 953.188 -345.479 936.162C-346.28 935.367 -347.081 934.573 -347.881 933.778C-348.2 933.871 -348.57 934.015 -348.889 934.107C-346.849 969.572 -344.917 1005.03 -342.909 1040.87C-361.726 1022.2 -380.257 1003.81 -398.96 985.254C-396.895 1021.15 -394.906 1056.67 -392.959 1091.43Z" fill="white"/>
<path d="M361.134 211.467C362.542 211.535 364.001 211.551 365.951 211.645C365.03 210.629 364.738 210.237 364.395 209.896C346.779 192.416 329.214 174.885 311.439 157.451C310.237 156.259 308.035 155.505 306.359 155.478C236.7 152.01 166.996 148.702 97.343 145.342C96.1515 145.284 94.9659 145.335 93.4554 145.37C112.616 164.383 131.376 182.998 150.135 201.613C151.486 201.624 152.831 201.527 154.131 201.59C223.077 204.861 292.131 208.138 361.134 211.467Z" fill="white"/>
<path d="M-15.0833 139.217C-14.4844 139.3 -13.8855 139.383 -13.2356 139.414C21.32 141.081 55.9328 142.804 90.4823 144.363C91.9989 144.436 93.7857 143.551 94.8595 142.468C110.256 127.067 125.595 111.609 140.934 96.1502C141.649 95.4288 142.2 94.6454 142.858 93.8672C142.726 93.4289 142.644 92.939 142.455 92.4439C106.924 90.73 71.5018 89.0213 35.863 87.3022C52.3779 70.6587 68.9952 53.9121 85.1522 37.6294C49.8384 35.9259 14.3078 34.212 -21.006 32.5085C-19.041 67.5915 -17.0457 103.216 -15.0833 139.217Z" fill="white"/>
<path d="M321.659 1396.89C322.742 1396.95 323.87 1396.84 324.304 1396.86C322.29 1360.91 320.289 1325.18 318.305 1289.77C283.208 1288.08 247.786 1286.37 211.714 1284.63C230.474 1303.24 249.062 1321.69 268.394 1340.87C231.997 1339.12 196.518 1337.35 160.337 1335.6C161.258 1336.62 161.665 1337.13 162.122 1337.58C179.738 1355.06 197.303 1372.59 215.079 1390.03C216.222 1391.16 218.26 1391.85 219.828 1391.87C253.796 1393.68 287.753 1395.26 321.659 1396.89Z" fill="white"/>
<path d="M620.961 873.227C622.945 908.634 624.946 944.367 626.941 979.992C662.038 981.685 697.569 983.398 732.666 985.091C730.653 949.142 728.651 913.41 726.686 878.327C691.481 876.628 655.791 874.961 620.961 873.227Z" fill="white"/>
<path d="M-726.977 968.298C-725.569 968.365 -723.884 967.583 -722.912 966.604C-707.363 951.048 -691.871 935.435 -676.327 919.77C-675.714 919.152 -675.265 918.472 -674.766 917.74C-674.905 917.193 -675.044 916.647 -675.176 916.208C-710.598 914.5 -746.129 912.786 -781.551 911.077C-765.138 894.536 -748.521 877.79 -732.517 861.662C-767.723 859.964 -803.254 858.249 -838.676 856.541C-836.711 891.624 -834.721 927.14 -832.708 963.089C-832.109 963.172 -831.561 963.307 -831.077 963.276C-796.356 965.005 -761.635 966.734 -726.977 968.298Z" fill="white"/>
<path d="M53.6555 407.86C53.7283 409.159 53.6988 410.562 53.6632 411.856C54.9752 412.135 56.3566 412.688 57.6565 412.75C91.0777 414.417 124.493 415.975 157.914 417.641C159.106 417.698 160.399 417.653 160.616 417.663C158.609 381.822 154.99 344.689 153.058 309.23C136.748 325.667 120.233 342.311 103.616 359.057C85.5992 341.18 69.4979 325.203 51.7676 307.61C50.6809 306.531 49.3836 305.551 48.1947 304.576C48.1713 306.086 48.1477 307.597 48.2326 309.113C49.968 342.025 51.8118 374.943 53.6555 407.86Z" fill="white"/>
<path d="M390.797 644.635C390.61 643.223 390.372 641.861 390.293 640.453C388.449 607.536 386.606 574.619 384.762 541.701C384.689 540.402 384.565 539.154 384.375 536.715C367.042 554.183 350.475 570.878 333.96 587.522C333.629 587.398 333.247 587.325 332.916 587.201C330.99 551.85 329.064 516.499 327.12 480.823C326.449 481.385 326.034 481.688 325.727 481.998C309.877 497.971 293.97 513.888 278.234 529.975C277.211 531.006 276.836 532.986 276.927 534.61C278.705 568.28 280.591 601.955 282.477 635.631C282.538 636.714 282.649 637.745 282.822 639.859C300.206 622.339 316.874 605.541 333.696 588.589C335.069 589.951 336.098 590.972 337.128 591.994C353.829 608.566 370.472 625.081 387.173 641.653C388.311 642.68 389.551 643.603 390.797 644.635Z" fill="white"/>
<path d="M779.004 825.83L779.113 825.835C779.113 825.835 779.055 825.779 779.004 825.83Z" fill="white"/>
<path d="M618.645 764.37C617.345 764.308 615.994 764.297 613.942 764.306C615.372 765.724 616.173 766.519 617.031 767.37C633.961 784.169 650.998 800.973 667.826 817.875C669.713 819.748 671.483 820.482 673.974 820.602C707.657 822.119 741.295 823.795 774.984 825.42C776.284 825.483 777.698 825.659 779.004 825.83C795.775 808.929 812.546 792.028 829.316 775.127C827.432 774.28 826.036 774.429 824.628 774.361C791.697 772.772 758.766 771.184 725.944 769.6C724.536 769.532 723.23 769.361 721.816 769.185C720.465 769.174 719.12 769.271 717.711 769.203C684.723 767.558 651.684 765.964 618.645 764.37Z" fill="white"/>
<path d="M-312.947 1579.67C-314.806 1545.51 -316.666 1511.35 -318.691 1477.13C-318.788 1475.39 -319.782 1473.08 -321.097 1471.77C-338.153 1454.64 -355.363 1437.67 -372.464 1420.7C-373.265 1419.91 -374.111 1419.27 -375.814 1417.78C-375.515 1420.23 -375.169 1421.6 -375.09 1423C-373.246 1455.92 -371.402 1488.84 -369.559 1521.75C-369.48 1523.16 -369.515 1524.46 -369.545 1525.86C-369.415 1527.22 -369.177 1528.58 -369.098 1529.98C-367.254 1562.9 -365.404 1595.93 -363.555 1628.95C-363.482 1630.25 -363.352 1631.61 -363.197 1633.4C-362.424 1632.73 -362.061 1632.48 -361.754 1632.17C-345.903 1616.2 -329.996 1600.28 -314.311 1584.25C-313.231 1583.27 -312.805 1581.24 -312.947 1579.67Z" fill="white"/>
<path d="M-369.596 1525.91C-369.602 1525.8 -369.545 1525.86 -369.596 1525.91C-369.602 1525.8 -369.602 1525.8 -369.602 1525.8L-369.596 1525.91Z" fill="white"/>
<path d="M516.137 974.863C481.148 973.175 446.211 971.435 411.228 969.856C409.928 969.793 408.409 970.638 407.54 971.514C391.888 987.173 376.293 1002.89 360.698 1018.61C360.187 1019.12 359.796 1019.86 358.894 1021.11C361.106 1021.05 362.502 1020.91 363.91 1020.97C396.732 1022.56 429.504 1024.19 462.32 1025.67C465.404 1025.76 467.517 1026.84 469.805 1029.11C486.461 1045.84 503.27 1062.41 520.085 1079.1C521.115 1080.12 522.087 1081.09 523.059 1082.05C521.058 1046.32 519.075 1010.91 517.067 975.069C516.851 975.059 516.462 974.878 516.137 974.863Z" fill="white"/>
<path d="M-712.828 1185.23C-731.759 1166.44 -750.291 1148.05 -768.822 1129.67C-766.82 1165.4 -764.831 1200.91 -762.866 1236C-727.552 1237.7 -691.913 1239.42 -656.708 1241.12C-658.679 1205.93 -660.668 1170.41 -662.669 1134.68C-679.287 1151.42 -696.006 1168.27 -712.828 1185.23Z" fill="white"/>
<path d="M142.217 1015.95C144.067 1048.97 145.917 1082 147.824 1115.08C147.963 1117.57 147.302 1119.27 145.666 1120.92C130.423 1136.17 115.288 1151.42 100.103 1166.72C99.1825 1167.65 98.3134 1168.52 97.4953 1169.35C133.242 1171.07 168.665 1172.78 204.412 1174.51C204.4 1174.29 204.478 1173.75 204.441 1173.1C202.506 1138.56 200.623 1103.97 198.523 1069.37C198.438 1067.85 197.36 1065.96 196.159 1064.77C183.85 1052.35 171.444 1040.14 159.033 1027.83C153.543 1022.38 148.052 1016.93 142.504 1011.43C142.128 1011.46 141.758 1011.61 141.382 1011.64C141.791 1013.17 142.195 1014.6 142.217 1015.95Z" fill="white"/>
<path d="M-213.527 458.631C-213.6 457.332 -213.729 455.975 -213.947 454.021C-214.771 454.737 -215.237 455.093 -215.646 455.505C-231.394 471.376 -247.2 487.189 -262.884 503.225C-263.907 504.256 -264.391 506.23 -264.248 507.803C-262.458 541.689 -260.503 575.638 -258.656 609.582C-258.595 610.664 -258.426 611.752 -258.369 611.809C-222.514 613.539 -186.983 615.253 -151.886 616.946C-152.401 616.435 -153.43 615.413 -154.517 614.335C-171.504 597.479 -188.484 580.732 -205.369 563.773C-206.742 562.411 -207.85 559.982 -207.953 558.141C-209.866 524.95 -211.722 491.816 -213.527 458.631Z" fill="white"/>
<path d="M678.566 1036.64C645.419 1035.04 612.221 1033.49 579.016 1031.84C577.716 1031.77 576.302 1031.6 574.996 1031.43C558.225 1048.33 541.455 1065.23 524.684 1082.13C526.46 1082.97 527.754 1082.93 528.996 1082.93C561.927 1084.52 594.858 1086.11 627.731 1087.64C630.599 1087.72 632.699 1088.58 634.93 1090.8C651.7 1107.64 668.624 1124.33 685.496 1141.07C686.469 1142.04 687.498 1143.06 688.299 1143.85C686.297 1108.12 684.308 1072.61 682.288 1036.55C681.262 1036.55 679.924 1036.76 678.566 1036.64Z" fill="white"/>
<path d="M-35.9522 731.984C-35.8222 733.34 -35.5838 734.702 -35.511 736.001C-33.6188 769.785 -31.7266 803.568 -29.6688 837.414C-29.5718 839.147 -28.5267 841.411 -27.2624 842.767C-10.2062 859.896 7.00334 876.871 24.1618 893.897C24.9625 894.691 25.8083 895.326 26.1515 895.667C22.1547 824.309 18.158 752.952 14.1552 681.487C-2.46206 698.233 -19.1816 715.083 -35.9522 731.984Z" fill="white"/>
<path d="M-35.9522 731.984C-35.901 731.933 -35.9582 731.876 -35.9582 731.876L-35.9522 731.984Z" fill="white"/>
<path d="M927.593 564.323C929.558 599.406 931.56 635.138 933.507 669.897C968.496 671.584 1004.03 673.298 1039.34 675.002C1021.09 656.898 1002.45 638.396 983.575 619.667C1000.45 602.663 1017.07 585.917 1033.38 569.479C997.896 567.714 962.315 566.052 927.593 564.323Z" fill="white"/>
<path d="M1096.68 734.354C1097.34 733.684 1097.54 732.343 1097.49 731.369C1095.59 696.559 1093.64 661.693 1091.63 626.878C1091.57 625.687 1090.88 624.088 1089.97 623.18C1071.89 605.138 1053.81 587.204 1036.14 569.667C1040.13 640.916 1044.13 712.273 1048.11 783.413C1064.07 767.337 1080.38 750.899 1096.68 734.354Z" fill="white"/>
<path d="M-95.8662 1593C-95.7579 1593.01 -95.809 1593.06 -95.8662 1593C-95.7579 1593.01 -95.7578 1593.01 -95.7578 1593.01L-95.8662 1593Z" fill="white"/>
<path d="M11.2608 1598.06C9.85868 1598.1 8.46254 1598.25 7.05432 1598.18C-25.8764 1596.59 -58.8071 1595 -91.6295 1593.42C-93.0377 1593.35 -94.3435 1593.18 -95.7578 1593.01C-97.1089 1593 -98.4539 1593.09 -99.8621 1593.02C-132.901 1591.43 -165.94 1589.84 -198.979 1588.24C-200.279 1588.18 -201.63 1588.17 -203.682 1588.18C-202.252 1589.6 -201.452 1590.39 -200.594 1591.24C-183.664 1608.04 -166.626 1624.85 -149.799 1641.75C-147.911 1643.62 -146.142 1644.35 -143.65 1644.47C-109.967 1645.99 -76.3294 1647.67 -42.6405 1649.29C-41.3406 1649.36 -39.9262 1649.53 -38.6202 1649.7C-21.8496 1632.8 -5.07904 1615.9 11.6916 1599C11.6222 1598.73 11.3874 1598.39 11.2608 1598.06Z" fill="white"/>
<path d="M-38.563 1649.76C-38.563 1649.76 -38.5058 1649.82 -38.4547 1649.76C-38.4547 1649.76 -38.5119 1649.71 -38.563 1649.76Z" fill="white"/>
<path d="M-553.265 1138.93L-553.157 1138.93C-553.208 1138.99 -553.265 1138.93 -553.265 1138.93Z" fill="white"/>
<path d="M-667.597 1025.48C-667.546 1025.43 -667.489 1025.49 -667.597 1025.48C-667.649 1025.53 -667.649 1025.53 -667.597 1025.48C-667.54 1025.54 -667.54 1025.54 -667.597 1025.48Z" fill="white"/>
<path d="M-503.492 1087.28C-504.894 1087.32 -506.29 1087.47 -507.699 1087.4C-540.846 1085.8 -574.045 1084.26 -607.198 1082.55C-608.823 1082.47 -611.032 1081.61 -612.233 1080.42C-630.809 1062.19 -649.175 1043.86 -667.649 1025.53C-684.419 1042.43 -701.19 1059.33 -718.83 1077.11C-682.541 1078.86 -647.444 1080.55 -611.48 1082.29C-628.353 1099.29 -644.868 1115.94 -661.331 1132.53C-659.505 1133.32 -658.109 1133.17 -656.7 1133.24C-623.661 1134.83 -590.622 1136.43 -557.583 1138.02C-556.175 1138.09 -554.743 1138.59 -553.265 1138.93C-536.494 1122.03 -519.724 1105.13 -502.953 1088.23C-503.131 1087.95 -503.366 1087.61 -503.492 1087.28Z" fill="white"/>
<path d="M-225.384 238.249C-223.438 273.007 -221.512 308.358 -219.426 343.663C-219.359 344.854 -218.414 346.303 -217.499 347.211C-211.087 353.676 -204.567 360.146 -198.104 366.559C-186.608 377.966 -175.054 389.43 -163.558 400.838C-163.239 400.745 -162.863 400.709 -162.544 400.617C-162.731 399.204 -162.97 397.842 -163.1 396.486C-164.949 363.461 -166.799 330.435 -168.706 297.353C-168.846 294.862 -168.293 293.161 -166.606 291.46C-151.312 276.162 -136.075 260.807 -120.787 245.4C-119.918 244.524 -119.1 243.699 -118.742 243.339C-154.215 241.682 -189.746 239.968 -225.384 238.249Z" fill="white"/>
<path d="M188.713 852.754C187.569 851.619 185.48 850.978 183.964 850.905C150.052 849.161 116.095 847.577 82.1326 845.885C81.0494 845.833 79.9724 845.888 78.8952 845.944C79.3346 846.074 79.6656 846.198 80.1049 846.327C82.1453 881.791 84.0773 917.251 86.0423 952.334C101.126 937.133 116.778 921.474 132.207 905.696C134.917 902.965 137.672 902.018 141.629 902.263C175.324 903.996 209.013 905.621 243.569 907.288C242.59 906.215 242.184 905.71 241.726 905.256C224.053 887.719 206.431 870.131 188.713 852.754Z" fill="white"/>
<path d="M-444.826 1144.27C-426.009 1162.94 -407.363 1181.44 -388.89 1199.77C-390.885 1164.15 -392.874 1128.63 -394.815 1093.98C-430.237 1092.27 -465.984 1090.55 -500.54 1088.88C-498.587 1123.75 -496.598 1159.27 -494.627 1194.46C-478.367 1178.07 -461.699 1161.27 -444.826 1144.27Z" fill="white"/>
<path d="M316.856 264.783C318.815 299.758 320.804 335.274 322.781 370.574C339.092 354.136 355.76 337.338 372.735 320.231C391.61 338.959 410.312 357.518 428.901 375.963C426.899 340.23 424.916 304.822 422.963 269.955C387.267 268.18 351.577 266.512 316.856 264.783Z" fill="white"/>
<path d="M-138.218 834.932C-138.212 835.04 -138.269 834.983 -138.218 834.932C-138.212 835.04 -138.212 835.04 -138.212 835.04L-138.218 834.932Z" fill="white"/>
<path d="M-193.56 776.54C-194.583 777.57 -194.958 779.55 -194.924 781.118C-193.065 815.278 -191.205 849.438 -189.181 883.66C-189.084 885.392 -188.039 887.656 -186.774 889.013C-169.718 906.142 -152.509 923.117 -135.407 940.086C-134.607 940.88 -133.761 941.515 -132.057 943.001C-132.356 940.557 -132.703 939.19 -132.781 937.783C-134.625 904.865 -136.469 871.948 -138.313 839.031C-138.391 837.623 -138.356 836.329 -138.326 834.926C-138.456 833.57 -138.695 832.209 -138.773 830.801C-140.623 797.776 -142.473 764.75 -144.323 731.724C-144.396 730.425 -144.525 729.069 -144.68 727.279C-145.453 727.944 -145.817 728.196 -146.124 728.506C-161.968 744.588 -177.875 760.504 -193.56 776.54Z" fill="white"/>
<path d="M-382.397 1307.97C-384.362 1272.88 -386.358 1237.26 -388.323 1202.18C-423.962 1200.46 -459.384 1198.75 -494.806 1197.04C-476.503 1215.2 -457.858 1233.7 -438.869 1252.54C-455.793 1269.6 -472.462 1286.4 -488.721 1302.78C-453.35 1304.54 -417.82 1306.26 -382.397 1307.97Z" fill="white"/>
<path d="M278.755 1558.64C279.624 1557.77 279.961 1556.06 279.882 1554.65C278.061 1520.22 276.133 1485.79 274.096 1451.35C274.011 1449.83 273.143 1447.85 271.942 1446.66C254.6 1429.24 237.105 1411.98 219.66 1394.67C219.088 1394.11 218.363 1393.69 217.626 1393.06C221.641 1464.75 225.631 1536 229.646 1607.68C230.17 1607.38 230.54 1607.23 230.744 1607.03C246.805 1590.96 262.809 1574.83 278.755 1558.64Z" fill="white"/>
<path d="M110.11 1387.82C112.093 1423.23 114.101 1459.07 116.093 1493.67C151.082 1495.36 186.504 1497.07 221.601 1498.76C203.585 1480.88 184.996 1462.44 165.893 1443.48C182.868 1426.38 199.537 1409.58 216.052 1392.93C180.305 1391.21 144.882 1389.5 110.11 1387.82Z" fill="white"/>
<path d="M149.97 201.551L150.078 201.556C149.97 201.551 149.97 201.551 149.97 201.551C149.862 201.546 149.862 201.546 149.97 201.551C149.919 201.602 149.919 201.602 149.97 201.551C150.027 201.607 150.027 201.607 149.97 201.551Z" fill="white"/>
<path d="M314.075 263.353C312.673 263.393 311.277 263.542 309.869 263.474C276.721 261.875 243.523 260.328 210.37 258.62C208.745 258.542 206.536 257.68 205.335 256.488C186.758 238.26 168.393 219.933 149.919 201.602C133.148 218.503 116.378 235.404 98.7379 253.181C135.027 254.932 168.495 255.009 204.459 256.743C187.586 273.748 171.071 290.391 154.607 306.983C156.434 307.773 159.459 309.241 160.867 309.309C193.906 310.903 226.945 312.496 259.984 314.09C261.392 314.158 262.825 314.659 264.302 315C281.073 298.099 297.844 281.198 314.614 264.297C314.437 264.018 314.202 263.683 314.075 263.353Z" fill="white"/>
<path d="M264.411 315.006L264.302 315C264.302 315 264.302 315 264.251 315.052L264.411 315.006Z" fill="white"/>
<path d="M322.894 373.549C341.025 391.539 359.67 410.041 378.545 428.769C361.672 445.774 345.055 462.52 328.54 479.164C364.178 480.883 399.709 482.597 434.373 484.269C432.39 448.861 430.388 413.128 428.453 378.587C393.573 376.904 358.1 375.247 322.894 373.549Z" fill="white"/>
<path d="M511.208 861.777C511.28 863.076 511.194 864.422 511.215 865.773C512.262 865.176 513.475 864.64 514.293 863.816C529.382 848.723 544.408 833.466 559.441 818.316C560.361 817.389 561.23 816.513 562.355 815.379C563.67 816.685 564.7 817.706 565.729 818.728C582.487 835.357 599.188 851.928 615.946 868.557C617.033 869.635 618.33 870.616 619.519 871.591C619.332 870.178 619.094 868.817 619.015 867.409C617.177 834.6 615.34 801.791 613.451 769.033C613.378 767.734 613.191 766.321 613.013 764.099C595.935 781.309 579.42 797.953 562.701 814.802C543.655 795.903 524.895 777.288 506.192 758.73C505.946 760.122 505.534 761.452 505.613 762.86C507.514 795.834 509.307 828.803 511.208 861.777Z" fill="white"/>
<path d="M511.164 865.824C511.107 865.768 511.107 865.768 511.107 865.768C511.056 865.819 511.113 865.876 511.164 865.824C511.164 865.824 511.215 865.773 511.158 865.716C511.158 865.716 511.107 865.768 511.164 865.824Z" fill="white"/>
<path d="M506.135 758.673C506.192 758.73 506.249 758.787 506.249 758.787C506.249 758.787 506.3 758.735 506.243 758.679L506.135 758.673C506.243 758.679 506.3 758.735 506.3 758.735C506.243 758.679 506.186 758.622 506.135 758.673Z" fill="white"/>
<path d="M287.417 639.918C286.008 639.851 284.663 639.948 282.344 639.998C301.618 659.124 320.092 677.455 339.024 696.24C303.168 694.511 268.071 692.818 232.267 691.036C251.541 710.162 270.244 728.721 289.004 747.336C289.726 746.722 290.237 746.207 290.748 745.692C323.369 712.817 356.041 679.891 388.662 647.016C389.429 646.243 389.973 645.352 390.683 644.522C389.064 644.552 387.394 644.633 385.769 644.555C353.061 643.085 320.239 641.502 287.417 639.918Z" fill="white"/>
<path d="M516.196 866.931C514.788 866.863 513.443 866.96 511.123 867.01C530.397 886.136 548.871 904.467 567.803 923.253C531.947 921.523 496.85 919.83 461.103 918.106C480.378 937.231 499.08 955.79 517.955 974.518C518.619 973.848 519.131 973.333 519.642 972.818C552.263 939.943 584.935 907.017 617.556 874.142C618.323 873.369 618.867 872.478 619.577 871.648C617.958 871.678 616.288 871.759 614.663 871.681C581.841 870.098 549.018 868.514 516.196 866.931Z" fill="white"/>
<path d="M-123.437 137.338C-121.659 171.008 -119.773 204.683 -117.835 238.307C-117.775 239.39 -117.606 240.478 -117.457 242.159C-116.026 240.716 -115.157 239.84 -114.236 238.913C-99.6642 224.227 -85.1494 209.485 -70.5141 194.965C-68.0599 192.491 -66.8934 190.172 -67.175 186.109C-69.2743 153.449 -70.9405 120.81 -72.8232 88.1608C-72.902 86.7531 -72.5987 85.4179 -72.4011 83.1597C-73.8691 83.9528 -74.0796 84.0506 -74.233 84.2052C-90.2366 100.333 -106.298 116.405 -122.187 132.646C-123.209 133.677 -123.579 135.765 -123.437 137.338Z" fill="white"/>
<path d="M245.182 909.094C247.153 944.285 249.143 979.801 251.12 1015.1C286.109 1016.79 321.531 1018.5 357.17 1020.22C319.65 982.987 282.13 945.756 245.182 909.094Z" fill="white"/>
<path d="M127.945 792.967C125.974 757.775 123.985 722.259 122.038 687.501C89.2125 720.582 55.7224 754.332 22.4368 787.877C57.9162 789.643 93.3895 791.3 127.945 792.967Z" fill="white"/>
<path d="M-32.4932 1762.95C-32.566 1761.65 -32.6897 1760.41 -32.8561 1758.4C-49.7289 1775.41 -66.0395 1791.84 -82.2416 1808.29C-83.1108 1809.16 -83.2817 1810.93 -83.2028 1812.34C-81.3617 1846.18 -79.4693 1879.96 -77.5771 1913.74C-77.5164 1914.83 -77.2964 1915.86 -77.0971 1917.49C-59.9174 1900.18 -43.1978 1883.33 -26.5295 1866.53C-26.6655 1865.07 -26.8589 1863.55 -26.9949 1862.08C-28.7936 1829.01 -30.6434 1795.98 -32.4932 1762.95Z" fill="white"/>
<path d="M-55.5088 408.858C-88.3854 441.99 -121.876 475.741 -155.161 509.285C-119.739 510.994 -84.2084 512.708 -49.5445 514.38C-51.63 479.075 -53.562 443.616 -55.5088 408.858Z" fill="white"/>
<path d="M-490.039 1309.15C-490.112 1307.85 -490.242 1306.49 -490.414 1304.38C-491.744 1305.72 -492.562 1306.54 -493.38 1307.36C-508.463 1322.57 -523.547 1337.77 -538.687 1352.91C-540.323 1354.56 -540.984 1356.25 -540.845 1358.75C-538.92 1392.15 -537.046 1425.61 -535.121 1459.02C-535.054 1460.21 -534.93 1461.46 -534.764 1463.46C-517.482 1446.05 -500.762 1429.2 -483.992 1412.3C-484.122 1410.94 -484.36 1409.58 -484.433 1408.28C-486.282 1375.25 -488.189 1342.17 -490.039 1309.15Z" fill="white"/>
<path d="M-884.825 1012.41C-886.673 978.466 -888.571 944.574 -890.475 910.574C-890.53 909.6 -890.687 908.728 -890.88 907.207C-892.158 908.495 -893.027 909.371 -893.846 910.196C-908.827 925.293 -923.802 940.499 -938.897 955.483C-940.636 957.235 -941.348 958.983 -941.253 961.633C-939.334 994.932 -937.415 1028.23 -935.605 1061.52C-935.532 1062.82 -935.79 1064 -935.883 1065.24C-935.501 1065.31 -935.118 1065.38 -934.736 1065.45C-934.423 1065.25 -934.162 1065.1 -933.906 1064.85C-917.954 1048.77 -901.995 1032.8 -886.157 1016.61C-885.179 1015.74 -884.741 1013.93 -884.825 1012.41Z" fill="white"/>
<path d="M110.633 469.408C74.9939 467.689 39.8395 465.939 4.79948 464.303C3.39125 464.235 1.827 465.239 0.855529 466.219C-14.4384 481.517 -29.7262 496.924 -44.963 512.279C-45.6788 513.001 -46.4457 513.774 -47.7239 515.062C-11.6518 516.802 23.5026 518.551 58.5426 520.188C59.8425 520.25 61.3617 519.406 62.2309 518.53C77.7805 502.974 93.3239 487.309 108.816 471.696C109.43 471.078 109.821 470.341 110.633 469.408Z" fill="white"/>
<path d="M122.433 577.858C121.133 577.795 119.839 577.84 118.163 577.814C156.083 615.441 193.546 652.614 231.352 690.128C231.399 689.051 231.42 688.458 231.39 687.916C229.53 653.756 227.563 619.591 225.595 585.426C225.54 584.451 225.059 583.564 224.787 582.579C223.436 582.568 222.091 582.665 220.791 582.602C188.026 581.076 155.204 579.493 122.433 577.858Z" fill="white"/>
<path d="M224.845 582.636L224.953 582.641C224.896 582.584 224.838 582.528 224.838 582.528C224.838 582.528 224.787 582.579 224.845 582.636C224.787 582.579 224.787 582.579 224.845 582.636Z" fill="white"/>
<path d="M-598.318 1298.95L-598.312 1299.06C-598.312 1299.06 -598.312 1299.06 -598.318 1298.95Z" fill="white"/>
<path d="M-541.751 1350.28C-543.601 1317.25 -545.451 1284.23 -547.301 1251.2C-547.373 1249.9 -547.287 1248.56 -547.308 1247.21C-566.068 1228.59 -584.828 1209.98 -603.588 1191.36C-603.907 1191.45 -604.277 1191.6 -604.539 1191.75C-604.352 1193.16 -604.005 1194.53 -603.926 1195.93C-602.031 1228.8 -600.245 1261.66 -598.401 1294.58C-598.316 1296.09 -598.346 1297.5 -598.318 1298.95C-579.615 1317.51 -560.913 1336.07 -541.581 1355.25C-541.651 1353.04 -541.673 1351.69 -541.751 1350.28Z" fill="white"/>
<path d="M53.6122 411.907L53.5039 411.902C53.5611 411.959 53.6183 412.016 53.6754 412.073C53.6183 412.016 53.6122 411.907 53.6122 411.907Z" fill="white"/>
<path d="M-8.09589 355.585C-40.8611 354.058 -73.6323 352.423 -106.398 350.897C-107.697 350.834 -108.94 350.828 -110.941 350.786C-92.0668 369.514 -73.8789 387.562 -55.6399 405.558C-54.6104 406.579 -52.5912 406.946 -51.0746 407.02C-24.2612 408.367 2.49505 409.658 29.2513 410.948C37.3756 411.34 45.4939 411.624 53.561 411.959C35.1954 393.633 16.7216 375.302 -1.69515 357.027C-2.32429 356.403 -3.20307 356.145 -4.03673 355.726L-3.92842 355.732C-3.98561 355.675 -3.98563 355.675 -4.04283 355.618L-4.03673 355.726C-5.39382 355.607 -6.7388 355.704 -8.09589 355.585Z" fill="white"/>
<path d="M389.866 537.358C388.566 537.295 387.215 537.284 385.106 537.236C386.593 538.712 387.508 539.62 388.423 540.528C405.296 557.27 422.168 574.012 438.99 590.806C440.82 592.622 442.595 593.464 445.087 593.584C478.502 595.142 511.974 596.756 545.39 598.314C546.581 598.372 547.824 598.378 549.825 598.42C530.493 579.238 511.79 560.679 493.03 542.064C491.679 542.053 490.334 542.15 489.034 542.088C455.944 540.545 422.905 538.952 389.866 537.358Z" fill="white"/>
<path d="M-378.578 1414.74C-376.748 1416.55 -374.972 1417.39 -372.48 1417.51C-339.065 1419.07 -305.593 1420.69 -272.178 1422.24C-270.986 1422.3 -269.744 1422.31 -267.743 1422.35C-287.074 1403.17 -305.777 1384.61 -324.537 1365.99C-325.888 1365.98 -327.233 1366.08 -328.533 1366.02C-361.572 1364.42 -394.611 1362.83 -427.701 1361.29C-429.001 1361.22 -430.352 1361.21 -432.461 1361.17C-430.974 1362.64 -430.059 1363.55 -429.144 1364.46C-412.272 1381.2 -395.399 1397.94 -378.578 1414.74Z" fill="white"/>
<path d="M550.814 597.766C584.407 563.912 617.948 530.11 650.927 496.875C615.721 495.177 580.191 493.463 544.877 491.759C546.836 526.734 548.819 562.142 550.814 597.766Z" fill="white"/>
<path d="M778.208 718.073C776.908 718.011 775.506 718.051 773.556 717.957C774.363 718.86 774.77 719.365 775.17 719.763C792.786 737.243 810.408 754.831 828.126 772.208C829.327 773.4 831.524 774.045 833.257 774.129C866.736 775.852 900.151 777.41 933.572 779.076C934.764 779.133 936.006 779.139 938.007 779.182C936.577 777.763 935.662 776.855 934.747 775.947C922.736 764.029 910.725 752.111 898.715 740.193C892.823 734.347 886.83 728.604 880.888 722.81C879.594 722.856 878.249 722.953 876.949 722.89C844.07 721.25 811.139 719.662 778.208 718.073Z" fill="white"/>
<path d="M193.714 42.2723C158.834 40.5897 123.36 38.9325 87.7728 37.1618C125.407 74.5054 162.87 111.679 199.646 148.171C197.681 113.088 195.692 77.5719 193.714 42.2723Z" fill="white"/>
<path d="M885.477 722.762C918.516 724.355 951.555 725.949 984.645 727.491C985.945 727.554 987.187 727.56 989.188 727.603C970.314 708.874 952.069 690.77 933.83 672.774C932.858 671.809 931.055 671.452 929.647 671.384C895.792 669.697 861.995 668.067 828.198 666.436C827.115 666.384 826.095 666.497 824.476 666.527C843.693 685.596 862.396 704.154 881.041 722.656C882.558 722.729 884.011 722.637 885.477 722.762Z" fill="white"/>
<path d="M-166.225 1320.5C-201.756 1318.79 -237.235 1317.02 -272.384 1315.38C-270.413 1350.57 -268.423 1386.09 -266.44 1421.49C-233.052 1387.85 -199.562 1354.1 -166.225 1320.5Z" fill="white"/>
<path d="M769.942 606.177C769.226 606.898 768.46 607.671 767.181 608.959C803.311 610.756 838.408 612.449 873.499 614.034C874.799 614.096 876.318 613.252 877.187 612.376C892.737 596.82 908.28 581.155 923.773 565.542C924.386 564.924 924.834 564.244 925.589 563.254C889.95 561.535 854.796 559.785 819.756 558.149C818.348 558.081 816.783 559.085 815.812 560.064C800.467 575.415 785.179 590.821 769.942 606.177Z" fill="white"/>
<path d="M-39.359 1542C-40.6589 1541.94 -42.01 1541.93 -44.011 1541.89C-43.2042 1542.79 -42.7977 1543.29 -42.3973 1543.69C-24.7813 1561.17 -7.15927 1578.76 10.559 1596.14C11.7601 1597.33 13.9569 1597.97 15.6901 1598.06C49.1685 1599.78 82.5836 1601.34 116.005 1603.01C117.196 1603.06 118.439 1603.07 120.44 1603.11C119.01 1601.69 118.095 1600.78 117.18 1599.88C104.997 1587.79 92.7577 1575.64 80.5752 1563.55C74.8557 1557.88 69.0341 1552.31 63.3207 1546.74C62.0268 1546.79 60.6819 1546.88 59.382 1546.82C26.5025 1545.18 -6.42832 1543.59 -39.359 1542Z" fill="white"/>
<path d="M653.318 494.236C688.523 495.935 724.054 497.649 759.043 499.336C722.266 462.844 684.861 425.728 647.398 388.554C649.4 424.287 651.383 459.695 653.318 494.236Z" fill="white"/>
<path d="M540.652 379.679C540.09 380.246 539.527 380.813 538.402 381.946C574.532 383.743 609.629 385.436 644.72 387.021C646.02 387.084 647.539 386.239 648.408 385.363C663.958 369.807 679.501 354.143 694.994 338.53C695.607 337.911 696.055 337.231 696.81 336.241C661.171 334.522 626.017 332.773 590.977 331.136C589.677 331.074 588.158 331.918 587.289 332.794C571.688 348.402 556.144 364.066 540.652 379.679Z" fill="white"/>
<path d="M355.429 -3.21918C357.412 32.1887 359.402 67.7048 361.367 102.788C396.464 104.481 431.994 106.195 467.416 107.904C430.183 70.9573 392.72 33.7839 355.429 -3.21918Z" fill="white"/>
<path d="M-623.796 866.258C-658.785 864.57 -694.207 862.862 -729.846 861.143C-692.269 898.429 -654.749 935.66 -617.858 972.265C-619.829 937.074 -621.819 901.558 -623.796 866.258Z" fill="white"/>
<path d="M167.078 1551.42C168.377 1551.48 169.62 1551.49 171.621 1551.53C152.747 1532.8 134.502 1514.7 116.263 1496.7C115.29 1495.74 113.488 1495.38 112.08 1495.31C78.2251 1493.63 44.4277 1492 10.6304 1490.37C9.5472 1490.31 8.52716 1490.43 6.90836 1490.46C26.1258 1509.53 44.8285 1528.08 63.474 1546.59C64.9334 1546.6 66.4439 1546.57 67.9032 1546.58C100.999 1548.23 134.038 1549.83 167.078 1551.42Z" fill="white"/>
<path d="M55.9888 1438.02C57.0721 1438.07 58.4439 1437.49 59.1597 1436.77C75.4251 1420.49 91.5822 1404.21 108.353 1387.31C106.779 1387.18 106.072 1387.09 105.365 1387C71.1341 1385.35 36.9547 1383.65 2.73014 1382.1C1.10527 1382.03 -0.841118 1382.96 -1.96598 1384.09C-17.3171 1399.33 -32.5477 1414.8 -47.7845 1430.15C-48.5003 1430.87 -49.2161 1431.6 -50.0853 1432.47C-49.4172 1432.83 -49.1945 1432.95 -48.9778 1432.96C-13.9317 1434.7 21.0571 1436.39 55.9888 1438.02Z" fill="white"/>
<path d="M-170.099 1212.76C-168.116 1248.16 -166.127 1283.68 -164.198 1318.11C-128.993 1319.81 -93.4624 1321.53 -58.7985 1323.2C-95.4603 1286.82 -132.923 1249.65 -170.099 1212.76Z" fill="white"/>
<path d="M-277.649 1205.95C-242.66 1207.64 -207.722 1209.38 -172.739 1210.96C-171.764 1211 -170.489 1210.63 -169.824 1209.96C-153.507 1193.63 -137.248 1177.25 -120.375 1160.24C-121.949 1160.11 -122.656 1160.03 -123.414 1159.99C-157.645 1158.34 -191.825 1156.63 -226.049 1155.09C-227.674 1155.01 -229.563 1156 -230.745 1157.08C-246.096 1172.32 -261.327 1187.78 -276.564 1203.14C-277.28 1203.86 -277.995 1204.58 -278.864 1205.46C-278.088 1205.82 -277.865 1205.94 -277.649 1205.95Z" fill="white"/>
<path d="M-461.916 820.829C-459.932 856.237 -457.943 891.753 -455.996 926.511C-421.008 928.199 -385.477 929.913 -350.272 931.611C-387.391 894.778 -424.796 857.662 -461.916 820.829Z" fill="white"/>
<path d="M110.073 1385.23C143.001 1352.05 176.491 1318.3 209.418 1285.11C174.321 1283.42 138.682 1281.7 104.235 1280.04C106.137 1314.96 108.177 1350.42 110.073 1385.23Z" fill="white"/>
<path d="M-68.2219 1109.63C-66.2629 1144.6 -64.2798 1180.01 -62.2844 1215.64C-28.6409 1181.73 4.90033 1147.93 37.7769 1114.8C2.62245 1113.05 -32.908 1111.33 -68.2219 1109.63Z" fill="white"/>
<path d="M-118.553 1158.06C-85.7785 1125.03 -52.2884 1091.28 -19.0028 1057.74C-54.5333 1056.02 -89.9556 1054.32 -124.511 1052.65C-122.489 1087.79 -120.442 1123.36 -118.553 1158.06Z" fill="white"/>
<path d="M-362.152 714.683C-364.123 679.492 -366.112 643.976 -368.089 608.676C-403.078 606.988 -438.5 605.28 -474.139 603.56C-436.619 640.79 -399.1 678.021 -362.152 714.683Z" fill="white"/>
<path d="M-359.777 715.608C-324.247 717.322 -288.824 719.03 -254.052 720.707C-256.041 685.191 -258.025 649.784 -259.971 615.025C-292.848 648.158 -326.389 681.96 -359.777 715.608Z" fill="white"/>
<path d="M206.769 1177.05C243.659 1213.66 281.065 1250.77 317.956 1287.38C315.984 1252.19 313.995 1216.67 312.06 1182.13C277.072 1180.44 241.649 1178.73 206.769 1177.05Z" fill="white"/>
<path d="M-423.901 549.614C-423.828 550.913 -422.819 552.528 -421.847 553.493C-404.568 570.741 -387.181 587.993 -369.851 605.19C-369.164 605.871 -368.433 606.392 -367.358 607.254C-369.354 571.629 -371.268 536.495 -373.284 501.463C-373.357 500.164 -374.365 498.549 -375.338 497.584C-392.617 480.337 -410.004 463.084 -427.334 445.887C-427.963 445.263 -428.592 444.639 -429.85 443.39C-427.888 479.391 -425.974 514.526 -423.901 549.614Z" fill="white"/>
<path d="M428.796 1293.16C463.785 1294.84 499.315 1296.56 534.521 1298.26C497.459 1261.48 459.996 1224.31 422.877 1187.47C424.86 1222.88 426.849 1258.4 428.796 1293.16Z" fill="white"/>
<path d="M199.674 1065.8C234.879 1067.5 270.41 1069.22 305.507 1070.91C268.731 1034.42 231.268 997.243 193.805 960.07C195.75 995.746 197.79 1031.21 199.674 1065.8Z" fill="white"/>
<path d="M-532.016 549.096C-530.244 582.658 -528.313 616.174 -526.433 649.741C-526.372 650.824 -526.254 651.963 -526.088 653.969C-509.215 636.965 -492.956 620.579 -476.753 604.136C-475.884 603.26 -475.713 601.487 -475.735 600.136C-477.582 566.193 -479.481 532.301 -481.385 498.3C-481.433 497.434 -481.648 496.506 -481.892 495.036C-498.56 511.834 -514.82 528.22 -531.022 544.663C-531.942 545.59 -532.101 547.58 -532.016 549.096Z" fill="white"/>
<path d="M480.245 1241.54C515.558 1243.24 551.089 1244.95 585.645 1246.62C583.686 1211.65 581.702 1176.24 579.743 1141.26C546.765 1174.5 513.275 1208.25 480.245 1241.54Z" fill="white"/>
<path d="M-305.07 1689.44C-288.76 1673 -272.04 1656.15 -255.321 1639.3C-274.081 1620.69 -292.841 1602.07 -310.971 1584.08C-309.006 1619.17 -307.029 1654.47 -305.07 1689.44Z" fill="white"/>
<path d="M-419.46 1575.93C-403.149 1559.5 -386.43 1542.65 -369.71 1525.8C-388.47 1507.18 -407.23 1488.57 -425.361 1470.58C-423.396 1505.66 -421.419 1540.96 -419.46 1575.93Z" fill="white"/>
<path d="M-369.596 1525.91L-369.602 1525.8L-369.653 1525.85C-369.653 1525.85 -369.653 1525.85 -369.596 1525.91Z" fill="white"/>
<path d="M-255.213 1639.31C-255.27 1639.25 -255.27 1639.25 -255.213 1639.31C-255.264 1639.36 -255.264 1639.36 -255.213 1639.31C-255.155 1639.37 -255.155 1639.37 -255.213 1639.31C-255.161 1639.26 -255.161 1639.26 -255.213 1639.31Z" fill="white"/>
<path d="M-205.355 1589.18C-221.665 1605.61 -238.385 1622.46 -255.104 1639.31C-236.344 1657.93 -217.584 1676.54 -199.454 1694.53C-201.419 1659.45 -203.396 1624.15 -205.355 1589.18Z" fill="white"/>
<path d="M-434.287 1362.32C-450.444 1378.6 -467.215 1395.5 -483.934 1412.35C-465.174 1430.97 -446.472 1449.53 -428.398 1467.46C-430.363 1432.38 -432.34 1397.08 -434.287 1362.32Z" fill="white"/>
<path d="M-483.986 1412.4C-483.992 1412.29 -483.933 1412.35 -483.986 1412.4Z" fill="white"/>
<path d="M-261.425 1531.29C-278.195 1548.19 -294.813 1564.94 -311.123 1581.38C-276.026 1583.07 -240.604 1584.78 -205.831 1586.45C-223.962 1568.46 -242.665 1549.91 -261.425 1531.29Z" fill="white"/>
<path d="M-718.983 1077.27C-735.754 1094.17 -752.371 1110.91 -768.323 1126.99C-733.659 1128.66 -698.345 1130.37 -663.79 1132.03C-681.52 1114.44 -700.223 1095.88 -718.983 1077.27Z" fill="white"/>
<path d="M-497.297 1196.92C-513.71 1213.46 -530.43 1230.31 -547.149 1247.16C-528.389 1265.77 -509.629 1284.39 -491.384 1302.49C-493.349 1267.41 -495.326 1232.11 -497.297 1196.92Z" fill="white"/>
<path d="M-547.314 1247.1L-547.308 1247.21L-547.257 1247.15C-547.257 1247.15 -547.257 1247.15 -547.314 1247.1Z" fill="white"/>
<path d="M-725.7 969.871C-742.318 986.617 -758.986 1003.42 -775.654 1020.21C-756.837 1038.89 -738.192 1057.39 -719.775 1075.66C-721.803 1040.41 -723.723 1005.17 -725.7 969.871Z" fill="white"/>
<path d="M-553.316 1138.98L-553.259 1139.04L-553.208 1138.99C-553.157 1138.93 -553.316 1138.98 -553.316 1138.98Z" fill="white"/>
<path d="M-497.437 1194.43C-515.854 1176.15 -534.556 1157.6 -553.259 1139.04C-570.03 1155.94 -586.8 1172.84 -603.162 1189.33C-567.956 1191.03 -532.642 1192.73 -497.437 1194.43Z" fill="white"/>
<path d="M-151.414 1537.68C-133.169 1555.78 -114.467 1574.34 -95.7639 1592.9C-78.9933 1576 -62.2226 1559.1 -46.0145 1542.76C-81.1117 1541.07 -116.426 1539.37 -151.414 1537.68Z" fill="white"/>
<path d="M-95.8662 1593L-95.7578 1593.01L-95.815 1592.95C-95.815 1592.95 -95.8151 1592.95 -95.8662 1593Z" fill="white"/>
<path d="M-380.022 1310.83C-361.948 1328.77 -343.189 1347.38 -324.486 1365.94C-307.715 1349.04 -290.996 1332.19 -274.839 1315.91C-309.936 1314.22 -345.25 1312.51 -380.022 1310.83Z" fill="white"/>
<path d="M-324.486 1365.94L-324.537 1365.99C-324.537 1365.99 -324.48 1366.05 -324.486 1365.94L-324.537 1365.99L-324.429 1366C-324.429 1366 -324.429 1366 -324.486 1365.94Z" fill="white"/>
<path d="M176.841 1661.12C141.635 1659.42 106.43 1657.73 71.2244 1656.03C89.6411 1674.3 108.287 1692.8 126.989 1711.36C143.76 1694.46 160.428 1677.66 176.841 1661.12Z" fill="white"/>
<path d="M-44.7034 1541.1C-27.8305 1524.09 -11.1622 1507.29 5.14824 1490.86C-29.9489 1489.16 -65.2627 1487.46 -100.468 1485.76C-82.1087 1503.98 -63.4633 1522.48 -44.7034 1541.1Z" fill="white"/>
<path d="M-273.425 1314.14C-256.604 1297.19 -239.986 1280.44 -223.574 1263.9C-258.779 1262.2 -293.985 1260.51 -329.19 1258.81C-310.773 1277.08 -292.071 1295.64 -273.425 1314.14Z" fill="white"/>
<path d="M-280.871 1207.25C-315.968 1205.56 -351.282 1203.86 -386.379 1202.16C-368.077 1220.32 -349.488 1238.77 -330.671 1257.44C-313.798 1240.44 -297.13 1223.64 -280.871 1207.25Z" fill="white"/>
<path d="M-97.4612 565.415C-62.689 567.092 -27.3751 568.796 7.07221 570.457C-10.7726 552.75 -29.4181 534.249 -48.1208 515.69C-64.8914 532.592 -81.5598 549.39 -97.4612 565.415Z" fill="white"/>
<path d="M-326.49 338.768C-291.501 340.456 -256.187 342.159 -221.198 343.847C-239.386 325.8 -258.032 307.298 -276.791 288.683C-293.715 305.739 -310.333 322.485 -326.49 338.768Z" fill="white"/>
<path d="M581.386 1139.72C600.203 1158.39 618.791 1176.84 637.151 1195.06C635.18 1159.87 633.209 1124.67 631.237 1089.48C614.774 1106.07 598.054 1122.92 581.386 1139.72Z" fill="white"/>
<path d="M123.879 685.646C142.753 704.374 161.398 722.876 179.643 740.98C177.678 705.897 175.701 670.598 173.73 635.406C157.318 651.947 140.649 668.745 123.879 685.646Z" fill="white"/>
<path d="M-366.615 607.991C-347.741 626.72 -329.095 645.221 -310.85 663.326C-312.815 628.243 -314.792 592.943 -316.763 557.752C-333.176 574.292 -349.844 591.09 -366.615 607.991Z" fill="white"/>
<path d="M-85.6564 781.961C-69.4993 765.678 -52.7288 748.777 -36.0093 731.927C-54.7692 713.312 -73.4719 694.754 -91.5454 676.82C-89.5804 711.903 -87.6032 747.203 -85.6564 781.961Z" fill="white"/>
<path d="M-35.9522 731.984L-35.9582 731.876L-36.0093 731.927L-35.9522 731.984Z" fill="white"/>
<path d="M-93.4268 675.056C-112.187 656.441 -130.775 637.996 -148.963 619.948C-146.998 655.031 -145.021 690.331 -143.074 725.089C-126.866 708.755 -110.197 691.957 -93.4268 675.056Z" fill="white"/>
<path d="M574.836 1031.47L574.945 1031.48L574.888 1031.42C574.888 1031.42 574.888 1031.42 574.836 1031.47Z" fill="white"/>
<path d="M519.117 975.978C537.476 994.196 556.179 1012.75 574.881 1031.31C591.652 1014.41 608.423 997.51 624.733 981.073C589.636 979.38 554.322 977.676 519.117 975.978Z" fill="white"/>
<path d="M-138.218 834.932L-138.212 835.04L-138.161 834.988C-138.161 834.988 -138.161 834.988 -138.218 834.932Z" fill="white"/>
<path d="M-88.3542 784.908C-104.665 801.346 -121.384 818.195 -138.104 835.045C-119.344 853.66 -100.584 872.275 -82.4531 890.266C-84.4182 855.183 -86.3953 819.883 -88.3542 784.908Z" fill="white"/>
<path d="M-31.3518 842.084C-47.3555 858.212 -63.9726 874.959 -80.7433 891.86C-61.9834 910.475 -43.3378 928.977 -25.4931 946.684C-27.4399 911.925 -29.4171 876.626 -31.3518 842.084Z" fill="white"/>
<path d="M528.393 1189.81C510.148 1171.71 491.445 1153.15 472.742 1134.59C455.972 1151.49 439.201 1168.39 422.993 1184.73C458.09 1186.42 493.404 1188.12 528.393 1189.81Z" fill="white"/>
<path d="M472.742 1134.59L472.793 1134.54C472.844 1134.49 472.736 1134.48 472.742 1134.59L472.793 1134.54C472.787 1134.43 472.736 1134.48 472.742 1134.59C472.736 1134.48 472.685 1134.53 472.685 1134.53C472.685 1134.53 472.685 1134.53 472.742 1134.59Z" fill="white"/>
<path d="M142.599 1009.27C159.012 992.732 175.629 975.985 192.4 959.084C173.526 940.356 154.88 921.854 136.692 903.807C138.657 938.89 140.685 974.138 142.599 1009.27Z" fill="white"/>
<path d="M-165.434 294.055C-166.084 294.023 -166.779 294.152 -167.639 294.218C-148.708 313.004 -130.062 331.505 -111.245 350.177C-94.3213 333.121 -77.5506 316.22 -60.78 299.319C-61.3788 299.236 -61.9838 299.045 -62.5254 299.019C-96.8644 297.362 -131.203 295.706 -165.434 294.055Z" fill="white"/>
<path d="M-60.6716 299.324L-60.6778 299.216C-60.7289 299.268 -60.78 299.319 -60.78 299.319C-60.78 299.319 -60.78 299.319 -60.6716 299.324Z" fill="white"/>
<path d="M426.564 1295.75C410.254 1312.19 393.534 1329.04 376.815 1345.89C395.632 1364.56 414.22 1383 432.465 1401.11C430.5 1366.02 428.574 1330.67 426.564 1295.75Z" fill="white"/>
<path d="M-131.771 943.285C-112.897 962.013 -94.2513 980.515 -76.0633 998.562C-78.0283 963.479 -80.0054 928.18 -81.9704 893.097C-98.332 909.586 -115 926.384 -131.771 943.285Z" fill="white"/>
<path d="M-74.5701 1000.15C-55.753 1018.82 -37.1647 1037.26 -18.748 1055.54C-20.7191 1020.35 -22.639 985.103 -24.6673 949.855C-41.1822 966.499 -57.9017 983.348 -74.5701 1000.15Z" fill="white"/>
<path d="M154.107 1227.26C172.867 1245.88 191.455 1264.32 209.757 1282.48C207.786 1247.29 205.809 1211.99 203.856 1177.13C187.597 1193.51 170.877 1210.36 154.107 1227.26Z" fill="white"/>
<path d="M375.696 1347.13C359.181 1363.77 342.513 1380.57 325.793 1397.42C344.61 1416.09 363.199 1434.53 381.615 1452.81C379.587 1417.56 377.616 1382.37 375.696 1347.13Z" fill="white"/>
<path d="M-76.3059 1000.98C-111.403 999.287 -146.717 997.584 -181.923 995.886C-163.563 1014.1 -144.918 1032.61 -126.158 1051.22C-109.336 1034.27 -92.6675 1017.47 -76.3059 1000.98Z" fill="white"/>
<path d="M331.509 1505.25C348.331 1488.3 364.948 1471.55 381.207 1455.17C346.11 1453.47 310.796 1451.77 275.916 1450.09C294.161 1468.19 312.863 1486.75 331.509 1505.25Z" fill="white"/>
<path d="M-576.731 704.548C-560.216 687.905 -543.547 671.107 -526.828 654.257C-545.645 635.585 -564.233 617.141 -582.65 598.866C-580.622 634.114 -578.651 669.305 -576.731 704.548Z" fill="white"/>
<path d="M-297.946 881.167C-316.706 862.552 -335.295 844.107 -353.425 826.116C-351.46 861.199 -349.483 896.499 -347.542 931.149C-331.385 914.866 -314.717 898.068 -297.946 881.167Z" fill="white"/>
<path d="M505.78 758.116L505.722 758.06C505.665 758.003 505.671 758.111 505.78 758.116C505.722 758.06 505.722 758.06 505.722 758.06C505.722 758.06 505.722 758.06 505.671 758.111L505.677 758.219C505.729 758.168 505.729 758.168 505.78 758.116Z" fill="white"/>
<path d="M510.29 758.604C542.947 760.125 575.61 761.755 608.267 763.276C609.567 763.339 610.918 763.35 612.702 763.382C593.656 744.483 574.954 725.925 556.137 707.253C539.213 724.309 522.493 741.158 505.722 758.06C505.894 758.23 506.066 758.4 506.237 758.57C507.645 758.638 508.99 758.541 510.29 758.604Z" fill="white"/>
<path d="M150.658 309.302C151.958 309.365 153.36 309.325 155.201 309.414C136.155 290.515 117.453 271.956 98.6927 253.341C98.0731 253.851 97.607 254.207 97.198 254.619C81.3477 270.593 65.4974 286.566 49.6471 302.54C49.0847 303.107 48.6426 303.895 48.1374 304.519C49.8134 304.546 51.4323 304.516 53.0572 304.594C85.5546 306.162 118.109 307.786 150.658 309.302Z" fill="white"/>
<path d="M270.253 423.168L270.259 423.276L270.31 423.224C270.31 423.224 270.31 423.225 270.253 423.168Z" fill="white"/>
<path d="M320.27 372.99C303.857 389.531 287.138 406.38 270.418 423.23C289.178 441.845 307.938 460.46 326.183 478.564C324.218 443.481 322.241 408.181 320.27 372.99Z" fill="white"/>
<path d="M41.9133 196.284C60.7876 215.013 79.433 233.514 97.6781 251.619C95.7131 216.536 93.736 181.236 91.7649 146.045C75.3522 162.585 58.6839 179.383 41.9133 196.284Z" fill="white"/>
<path d="M-91.8115 674C-56.6059 675.698 -21.292 677.401 13.4802 679.079C-4.65054 661.088 -23.3533 642.53 -42.1132 623.915C-58.9349 640.867 -75.5522 657.614 -91.8115 674Z" fill="white"/>
<path d="M-627.451 755.664C-611.346 739.433 -594.626 722.583 -577.907 705.733C-596.724 687.062 -615.255 668.674 -633.328 650.74C-631.369 685.714 -629.392 721.014 -627.451 755.664Z" fill="white"/>
<path d="M-63.0964 1216.57C-81.9135 1197.9 -100.502 1179.45 -118.976 1161.12C-116.993 1196.53 -115.021 1231.72 -113.05 1266.91C-96.5864 1250.32 -79.867 1233.47 -63.0964 1216.57Z" fill="white"/>
<path d="M-55.8044 1323.61C-39.3917 1307.07 -22.6722 1290.22 -5.95268 1273.37C-24.7698 1254.7 -43.3581 1236.26 -61.7176 1218.04C-59.6893 1253.29 -57.7694 1288.53 -55.8044 1323.61Z" fill="white"/>
<path d="M320.131 370.5C301.714 352.225 283.011 333.667 264.308 315.109C247.538 332.01 230.767 348.911 214.406 365.4C249.611 367.098 284.925 368.801 320.131 370.5Z" fill="white"/>
<path d="M264.411 315.006L264.302 315L264.36 315.057C264.36 315.057 264.36 315.057 264.411 315.006Z" fill="white"/>
<path d="M51.3503 1330.13C32.5904 1311.52 13.9449 1293.02 -4.07143 1275.14C-2.11856 1310 -0.141385 1345.3 1.80542 1380.06C17.9113 1363.83 34.5286 1347.08 51.3503 1330.13Z" fill="white"/>
<path d="M721.803 768.969L721.752 769.02C721.701 769.072 721.81 769.077 721.803 768.969C721.752 769.02 721.752 769.02 721.752 769.02C721.758 769.129 721.81 769.077 721.803 768.969Z" fill="white"/>
<path d="M666.153 713.748C684.398 731.852 703.101 750.41 721.803 768.969C738.574 752.068 755.345 735.166 771.553 718.832C736.456 717.139 701.142 715.436 666.153 713.748Z" fill="white"/>
<path d="M493.196 542.126L493.139 542.07L493.087 542.121C493.03 542.064 493.196 542.126 493.196 542.126Z" fill="white"/>
<path d="M493.081 542.013C509.852 525.112 526.572 508.262 542.729 491.979C507.631 490.286 472.318 488.583 437.545 486.906C455.676 504.896 474.379 523.455 493.081 542.013Z" fill="white"/>
<path d="M-735.746 750.98C-700.54 752.678 -665.226 754.382 -630.454 756.059C-648.642 738.011 -667.288 719.51 -686.048 700.895C-702.818 717.796 -719.435 734.542 -735.746 750.98Z" fill="white"/>
<path d="M-514.463 871.154C-531.234 888.055 -547.851 904.802 -564.213 921.291C-529.007 922.989 -493.693 924.693 -458.813 926.375C-477.001 908.328 -495.704 889.769 -514.463 871.154Z" fill="white"/>
<path d="M-99.2507 567.218C-116.072 584.171 -132.69 600.917 -149.154 617.509C-113.84 619.213 -78.5259 620.916 -43.4287 622.609C-61.7882 604.392 -80.4908 585.833 -99.2507 567.218Z" fill="white"/>
<path d="M-401.967 982.68C-419.812 964.973 -438.457 946.471 -457.16 927.913C-473.931 944.814 -490.599 961.612 -506.5 977.637C-471.728 979.314 -436.414 981.018 -401.967 982.68Z" fill="white"/>
<path d="M994.216 837.615C959.227 835.928 923.913 834.224 889.249 832.552C907.266 850.429 925.968 868.987 944.671 887.546C961.493 870.593 978.059 853.898 994.216 837.615Z" fill="white"/>
<path d="M-206.252 560.545C-171.047 562.243 -135.733 563.947 -100.961 565.624C-119.149 547.576 -137.851 529.018 -156.554 510.46C-173.325 527.361 -189.891 544.056 -206.252 560.545Z" fill="white"/>
<path d="M717.671 662.401C735.573 680.165 754.218 698.666 772.978 717.281C789.749 700.38 806.417 683.582 822.421 667.454C787.54 665.771 752.227 664.068 717.671 662.401Z" fill="white"/>
<path d="M593.892 440.075C558.794 438.382 523.48 436.679 488.383 434.986C506.628 453.09 525.274 471.592 544.091 490.263C560.964 473.259 577.632 456.461 593.892 440.075Z" fill="white"/>
<path d="M486.89 433.402C503.763 416.398 520.431 399.6 536.691 383.214C501.593 381.521 466.28 379.817 431.182 378.124C449.485 396.285 468.13 414.787 486.89 433.402Z" fill="white"/>
<path d="M-266.028 505.935C-301.125 504.242 -336.439 502.538 -371.644 500.84C-353.285 519.058 -334.582 537.616 -315.879 556.175C-299.058 539.222 -282.389 522.424 -266.028 505.935Z" fill="white"/>
<path d="M653.533 497.108C655.504 532.3 657.481 567.599 659.452 602.791C675.916 586.199 692.635 569.349 709.355 552.499C690.538 533.828 671.892 515.326 653.533 497.108Z" fill="white"/>
<path d="M137.356 -14.9805C118.482 -33.7091 99.8363 -52.2105 81.6483 -70.258C83.6133 -35.175 85.5903 0.12461 87.5554 35.2077C103.917 18.7188 120.585 1.92062 137.356 -14.9805Z" fill="white"/>
<path d="M938.733 779.595C957.55 798.267 976.138 816.712 994.498 834.929C992.52 799.63 990.543 764.33 988.584 729.355C972.172 745.896 955.503 762.694 938.733 779.595Z" fill="white"/>
<path d="M638.331 1196.84C621.458 1213.85 604.79 1230.64 588.53 1247.03C623.628 1248.72 658.941 1250.43 694.039 1252.12C675.736 1233.96 657.091 1215.46 638.331 1196.84Z" fill="white"/>
<path d="M481.174 325.57C499.934 344.185 518.58 362.686 536.539 380.507C534.586 345.64 532.609 310.341 530.668 275.691C514.613 291.871 497.945 308.669 481.174 325.57Z" fill="white"/>
<path d="M-106.591 1375.48C-71.3856 1377.18 -36.1801 1378.88 -0.97455 1380.58C-19.3341 1362.36 -38.0368 1343.8 -56.7395 1325.24C-73.5612 1342.19 -90.2296 1358.99 -106.591 1375.48Z" fill="white"/>
<path d="M1046.75 785.129C1029.93 802.082 1013.31 818.829 997.052 835.215C1032.04 836.902 1067.36 838.606 1102.34 840.293C1084.1 822.189 1065.4 803.631 1046.75 785.129Z" fill="white"/>
<path d="M314.82 1182.21C333.065 1200.31 351.768 1218.87 370.47 1237.43C387.241 1220.53 404.011 1203.63 420.22 1187.29C385.122 1185.6 349.809 1183.9 314.82 1182.21Z" fill="white"/>
<path d="M710.925 551.603C746.131 553.302 781.336 555 816.542 556.698C798.125 538.424 779.422 519.865 760.777 501.364C744.006 518.265 727.338 535.063 710.925 551.603Z" fill="white"/>
<path d="M-201.453 670.331C-218.275 687.283 -234.892 704.03 -251.305 720.57C-216.099 722.268 -180.894 723.967 -145.688 725.665C-164.105 707.39 -182.751 688.889 -201.453 670.331Z" fill="white"/>
<path d="M426.133 1292.87C407.888 1274.76 389.185 1256.2 370.482 1237.65C353.712 1254.55 336.941 1271.45 320.733 1287.78C355.83 1289.48 391.144 1291.18 426.133 1292.87Z" fill="white"/>
<path d="M370.482 1237.65L370.533 1237.59C370.585 1237.54 370.476 1237.54 370.482 1237.65L370.533 1237.59L370.476 1237.54L370.425 1237.59C370.425 1237.59 370.425 1237.59 370.482 1237.65Z" fill="white"/>
<path d="M229.069 1608.95C212.298 1625.85 195.681 1642.59 179.371 1659.03C214.576 1660.73 249.89 1662.43 284.662 1664.11C266.531 1646.12 247.829 1627.56 229.069 1608.95Z" fill="white"/>
<path d="M416.172 159.318C397.813 141.1 377.481 120.925 358.778 102.367C341.956 119.32 325.339 136.066 308.926 152.607C344.081 154.356 380.967 157.619 416.172 159.318Z" fill="white"/>
<path d="M253.52 97.4237C288.617 99.1167 323.931 100.82 358.92 102.508C340.675 84.4036 321.972 65.8454 303.27 47.2871C286.448 64.2398 269.78 81.0379 253.52 97.4237Z" fill="white"/>
<path d="M131.628 -123.029C114.806 -106.077 98.1891 -89.3301 81.8276 -72.8412C116.925 -71.1482 152.239 -69.4447 187.336 -67.7517C169.033 -85.9127 150.388 -104.414 131.628 -123.029Z" fill="white"/>
<path d="M-286.439 1099.16C-302.852 1115.7 -319.52 1132.49 -336.24 1149.34C-317.365 1168.07 -298.72 1186.57 -280.532 1204.62C-282.497 1169.54 -284.525 1134.29 -286.439 1099.16Z" fill="white"/>
<path d="M170.506 1553.8C154.553 1569.88 137.885 1586.67 121.165 1603.52C139.925 1622.14 158.571 1640.64 176.358 1658.29C174.412 1623.53 172.434 1588.23 170.506 1553.8Z" fill="white"/>
<path d="M868.861 506.145C850.044 487.474 831.455 469.029 813.038 450.754C815.016 486.054 816.993 521.354 818.958 556.437C835.37 539.896 852.09 523.047 868.861 506.145Z" fill="white"/>
<path d="M761.763 499.684C778.176 483.143 794.793 466.397 811.564 449.495C792.689 430.767 774.044 412.265 755.856 394.218C757.821 429.301 759.798 464.601 761.763 499.684Z" fill="white"/>
<path d="M698.604 337.408C700.569 372.491 702.546 407.79 704.517 442.982C720.93 426.441 737.598 409.643 754.369 392.742C735.552 374.07 716.906 355.569 698.604 337.408Z" fill="white"/>
<path d="M189.764 -67.7965C206.279 -84.44 222.947 -101.238 239.718 -118.139C220.901 -136.811 202.313 -155.256 183.839 -173.587C185.822 -138.179 187.793 -102.988 189.764 -67.7965Z" fill="white"/>
<path d="M-730.063 859.188C-713.65 842.648 -696.982 825.85 -680.211 808.949C-699.086 790.22 -717.731 771.719 -735.977 753.614C-734.005 788.806 -732.034 823.997 -730.063 859.188Z" fill="white"/>
<path d="M-158.115 1426.72C-141.703 1410.18 -125.034 1393.38 -108.264 1376.48C-127.138 1357.75 -145.783 1339.25 -164.029 1321.15C-162.058 1356.34 -160.086 1391.53 -158.115 1426.72Z" fill="white"/>
<path d="M519.525 57.4486C500.708 38.7768 482.062 20.2753 463.703 2.05757C465.674 37.2489 467.651 72.5486 469.622 107.74C486.239 90.9933 502.856 74.2467 519.525 57.4486Z" fill="white"/>
<path d="M290.86 -169.45C271.929 -188.236 253.283 -206.737 235.553 -224.331C237.493 -189.681 239.47 -154.381 241.417 -119.623C257.472 -135.803 274.089 -152.549 290.86 -169.45Z" fill="white"/>
<path d="M-370.966 497.525C-355.218 481.655 -338.754 465.063 -322.188 448.368C-340.948 429.753 -359.364 411.478 -376.752 394.225C-374.841 428.334 -372.882 463.309 -370.966 497.525Z" fill="white"/>
</g>
</g>
<path d="M491.136 122.065C491.136 122.065 485.875 121.008 481.458 125.46C477.136 129.815 476.971 136.404 481.105 140.505C485.142 144.512 491.572 144.519 496.02 140.036C498.008 138.033 498.538 135.782 498.538 135.782L498.601 135.718C498.601 135.718 498.951 136.319 499.652 137.203L504.744 143.518L495.91 152.42L497.881 154.376L508.608 143.566L498.965 131.6L497.068 132.494C497.068 132.494 496.604 135.378 494.238 137.762C491.083 140.942 486.428 141.245 483.376 138.216C480.324 135.187 480.591 130.531 483.651 127.446C487.027 124.044 491.274 124.978 491.274 124.978L491.136 122.065ZM458.85 148.244C454.969 152.155 454.707 158.078 459.349 162.685C463.578 166.881 469.437 166.953 473.475 162.883C475.778 160.562 477.001 157.295 476.484 154.637L476.547 154.573C480.524 159.277 482.768 166.236 478.131 170.91C476.301 172.754 474.118 173.364 474.118 173.364L475.237 176.115C475.237 176.115 477.768 175.409 480.229 172.929C487.075 166.029 482.951 156.132 477.355 150.579C471.314 144.585 463.677 143.379 458.85 148.244ZM460.948 150.263C464.26 146.925 470.411 148.421 473.399 151.387C475.211 153.185 474.817 157.589 471.851 160.577C468.823 163.63 464.737 163.551 461.557 160.396C458.473 157.335 457.951 153.283 460.948 150.263ZM444.317 163.653L442.046 165.942L452.586 196.971L454.112 198.486L468.53 183.956L466.559 182L456.179 192.46C455.075 193.573 454.571 194.208 454.571 194.208L454.507 194.145C454.507 194.145 454.28 192.657 453.671 190.854L444.317 163.653ZM432.235 188.674C428.007 184.478 421.929 185.452 417.923 189.49C413.632 193.814 413.529 199.832 417.026 203.302C419.347 205.605 422.166 205.626 425.045 204.823C425.047 205.33 425.193 210.397 428.373 213.551C431.87 217.022 436.841 216.654 440.974 212.489C445.454 207.974 444.896 203.004 442.003 200.133C439.873 198.019 437.338 197.839 434.712 198.388C434.898 197.563 435.828 192.239 432.235 188.674ZM419.298 201.076C416.659 198.458 417.339 194.148 419.957 191.509C422.639 188.806 427.07 188.029 430.091 191.026C432.952 193.865 432.24 198.144 431.959 199.253C427.089 200.983 422.191 203.947 419.298 201.076ZM439.763 202.327C441.766 204.315 441.778 207.609 438.939 210.47C436.257 213.173 432.87 213.597 430.486 211.231C427.815 208.581 427.705 204.686 427.733 203.894C432.319 202.071 436.869 199.456 439.763 202.327ZM395.165 218.783C395.165 218.783 389.903 217.727 385.487 222.178C381.164 226.534 381 233.122 385.133 237.223C389.171 241.23 395.601 241.237 400.049 236.754C402.036 234.751 402.566 232.5 402.566 232.5L402.629 232.437C402.629 232.437 402.98 233.037 403.68 233.921L408.772 240.236L399.939 249.138L401.91 251.094L412.636 240.284L402.993 228.318L401.097 229.212C401.097 229.212 400.633 232.096 398.266 234.48C395.112 237.66 390.457 237.963 387.405 234.934C384.352 231.906 384.619 227.249 387.68 224.165C391.055 220.763 395.303 221.696 395.303 221.696L395.165 218.783ZM362.878 244.962C358.998 248.873 358.736 254.797 363.378 259.403C367.606 263.599 373.466 263.671 377.504 259.601C379.807 257.28 381.03 254.013 380.513 251.355L380.576 251.291C384.553 255.995 386.797 262.954 382.159 267.628C380.329 269.472 378.146 270.082 378.146 270.082L379.266 272.834C379.266 272.834 381.797 272.127 384.257 269.647C391.104 262.748 386.98 252.85 381.384 247.298C375.343 241.303 367.705 240.098 362.878 244.962ZM364.976 246.981C368.289 243.643 374.439 245.139 377.428 248.105C379.24 249.903 378.845 254.307 375.88 257.296C372.851 260.348 368.765 260.269 365.586 257.114C362.502 254.054 361.979 250.002 364.976 246.981ZM348.346 260.371L346.074 262.66L356.615 293.69L358.141 295.204L372.559 280.674L370.587 278.718L360.208 289.178C359.103 290.291 358.599 290.926 358.599 290.926L358.536 290.863C358.536 290.863 358.308 289.376 357.699 287.573L348.346 260.371ZM336.264 285.392C332.035 281.196 325.958 282.17 321.951 286.208C317.66 290.532 317.557 296.55 321.055 300.02C323.375 302.323 326.194 302.344 329.073 301.541C329.075 302.048 329.222 307.115 332.401 310.27C335.899 313.74 340.87 313.372 345.003 309.207C349.482 304.693 348.925 299.722 346.032 296.851C343.901 294.737 341.367 294.557 338.74 295.106C338.927 294.282 339.857 288.957 336.264 285.392ZM323.326 297.794C320.687 295.176 321.367 290.866 323.986 288.227C326.668 285.524 331.099 284.747 334.119 287.744C336.981 290.584 336.269 294.862 335.988 295.972C331.117 297.701 326.22 300.665 323.326 297.794ZM343.791 299.045C345.794 301.033 345.807 304.327 342.968 307.188C340.286 309.891 336.899 310.316 334.514 307.949C331.843 305.299 331.733 301.404 331.762 300.612C336.347 298.789 340.898 296.174 343.791 299.045ZM302.503 319.416C298.274 315.22 292.197 316.194 288.19 320.231C283.9 324.555 283.796 330.574 287.294 334.044C289.615 336.347 292.433 336.368 295.312 335.565C295.314 336.072 295.461 341.138 298.64 344.293C302.138 347.764 307.109 347.396 311.242 343.231C315.722 338.716 315.164 333.746 312.271 330.875C310.14 328.761 307.606 328.581 304.979 329.13C305.166 328.305 306.096 322.981 302.503 319.416ZM289.565 331.818C286.926 329.2 287.606 324.889 290.225 322.251C292.907 319.548 297.338 318.771 300.358 321.768C303.22 324.607 302.508 328.886 302.227 329.995C297.356 331.725 292.459 334.689 289.565 331.818ZM310.03 333.069C312.033 335.057 312.046 338.35 309.207 341.212C306.525 343.914 303.138 344.339 300.753 341.973C298.083 339.323 297.972 335.428 298.001 334.636C302.586 332.813 307.137 330.198 310.03 333.069ZM280.369 341.722C276.141 337.526 270.063 338.499 266.057 342.537C261.766 346.861 261.663 352.879 265.16 356.35C267.481 358.653 270.3 358.673 273.179 357.871C273.181 358.377 273.327 363.444 276.507 366.599C280.004 370.069 284.975 369.702 289.108 365.537C293.588 361.022 293.03 356.052 290.137 353.181C288.007 351.067 285.472 350.887 282.846 351.435C283.033 350.611 283.962 345.287 280.369 341.722ZM267.432 354.124C264.793 351.505 265.473 347.195 268.092 344.556C270.773 341.854 275.204 341.076 278.225 344.074C281.086 346.913 280.374 351.191 280.094 352.301C275.223 354.03 270.325 356.995 267.432 354.124ZM287.897 355.375C289.9 357.362 289.913 360.656 287.073 363.518C284.392 366.22 281.004 366.645 278.62 364.279C275.949 361.629 275.839 357.734 275.867 356.942C280.453 355.119 285.004 352.504 287.897 355.375ZM258.236 364.027C254.007 359.831 247.93 360.805 243.923 364.843C239.633 369.167 239.529 375.185 243.027 378.655C245.348 380.958 248.166 380.979 251.045 380.176C251.047 380.683 251.194 385.75 254.373 388.905C257.871 392.375 262.842 392.008 266.975 387.842C271.455 383.328 270.897 378.357 268.004 375.486C265.873 373.373 263.339 373.192 260.712 373.741C260.899 372.917 261.829 367.592 258.236 364.027ZM245.298 376.43C242.659 373.811 243.339 369.501 245.958 366.862C248.64 364.159 253.071 363.382 256.091 366.379C258.953 369.219 258.241 373.497 257.96 374.607C253.089 376.336 248.192 379.3 245.298 376.43ZM265.763 377.68C267.766 379.668 267.779 382.962 264.94 385.823C262.258 388.526 258.871 388.951 256.486 386.585C253.816 383.934 253.705 380.039 253.734 379.247C258.319 377.424 262.87 374.809 265.763 377.68ZM221.253 387.689C217.373 391.6 217.111 397.524 221.753 402.13C225.981 406.326 231.841 406.398 235.879 402.328C238.182 400.007 239.405 396.74 238.888 394.082L238.951 394.018C242.928 398.722 245.172 405.681 240.534 410.355C238.705 412.199 236.522 412.809 236.522 412.809L237.641 415.56C237.641 415.56 240.172 414.854 242.633 412.374C249.479 405.474 245.355 395.577 239.759 390.024C233.718 384.03 226.08 382.825 221.253 387.689ZM223.352 389.708C226.664 386.37 232.814 387.866 235.803 390.832C237.615 392.63 237.221 397.034 234.255 400.023C231.226 403.075 227.14 402.996 223.961 399.841C220.877 396.78 220.354 392.728 223.352 389.708ZM196.387 413.512L184.367 425.626L186.338 427.582L191.228 422.654L211.608 442.877L213.627 440.842L213.62 430.802L210.801 430.781L210.82 435.532C210.795 437.274 211.051 437.97 211.051 437.97L210.988 438.033C210.988 438.033 210.415 437.402 209.779 436.771L193.373 420.492L198.358 415.468L196.387 413.512ZM185.954 436.427L174.848 447.618L168.649 441.466L166.472 443.66L172.672 449.812L169.517 452.992L171.456 454.916L174.611 451.737L188.823 465.839L191.189 463.454L187.384 437.846L185.954 436.427ZM185.243 441.022L185.307 441.085L187.621 458.147C187.817 459.54 188.202 460.932 188.202 460.932L188.139 460.996C188.139 460.996 187.089 459.765 186.135 458.818L176.788 449.543L185.243 441.022ZM160.098 455.425C160.098 455.425 154.364 455.099 150.01 459.487C145.814 463.715 145.902 469.986 149.717 473.772C154.55 478.567 160.273 475.98 163.24 473.308L164.308 487.619L165.771 489.07L178.738 476.003L176.766 474.047L168.437 482.441C167.27 483.617 166.735 484.348 166.735 484.348L166.671 484.285C166.671 484.285 166.698 483.176 166.598 481.878L165.601 469.783L163.761 469.03L162.247 470.556C159.345 473.481 155.041 474.575 151.894 471.451C149.032 468.612 149.49 464.208 152.14 461.537C155.548 458.103 160.458 458.433 160.458 458.433L160.098 455.425ZM139.071 476.87C139.071 476.87 133.809 475.814 129.392 480.265C125.07 484.621 124.906 491.209 129.039 495.31C133.077 499.317 139.506 499.324 143.955 494.841C145.942 492.838 146.472 490.587 146.472 490.587L146.535 490.524C146.535 490.524 146.886 491.124 147.586 492.008L152.678 498.323L143.844 507.225L145.816 509.181L156.542 498.371L146.899 486.405L145.002 487.299C145.002 487.299 144.538 490.183 142.172 492.567C139.017 495.747 134.363 496.05 131.311 493.021C128.258 489.993 128.525 485.336 131.585 482.252C134.961 478.85 139.209 479.783 139.209 479.783L139.071 476.87Z" fill="white"/>
<path d="M451.24 89.8293C447.982 93.1136 449.745 96.9669 453.29 100.484C456.817 103.985 460.667 105.701 463.926 102.417C467.167 99.1497 465.421 95.3136 461.894 91.8133C458.349 88.2958 454.482 86.5625 451.24 89.8293ZM452.822 91.3984C454.805 89.4001 457.476 90.913 460.152 93.5684C462.811 96.2065 464.327 98.8491 462.344 100.847C460.344 102.863 457.69 101.367 455.031 98.7293C452.355 96.074 450.822 93.4141 452.822 91.3984ZM445.098 99.3564C445.098 99.3564 441.964 99.1781 439.481 101.68C436.981 104.2 437.185 107.679 439.287 109.765C441.668 112.127 444.676 111.181 446.453 109.737L446.983 116.884L448.078 117.971L455.354 110.637L453.86 109.155L449.739 113.308C449.066 113.985 448.756 114.402 448.756 114.402L448.722 114.368C448.722 114.368 448.754 113.675 448.681 112.81L448.191 107.013L446.874 106.499L446.029 107.35C444.529 108.862 442.454 109.458 440.942 107.958C439.621 106.648 439.821 104.604 441.183 103.232C442.942 101.459 445.47 101.588 445.47 101.588L445.098 99.3564ZM431.47 108.711L429.987 110.206L439.265 128.172L440.748 126.678L431.47 108.711ZM423.09 118.616L415.245 126.522L416.739 128.005L422.774 121.923C425.537 124.734 420.352 131.211 424.383 135.211C426.503 137.315 429.515 137.095 431.756 134.836C434.498 132.073 433.273 128.651 433.273 128.651L431.163 129.074C431.163 129.074 431.864 131.495 430.261 133.111C428.985 134.397 427.254 134.508 426.038 133.301C423.153 130.438 428.494 123.805 424.115 119.46C423.819 119.167 423.472 118.891 423.09 118.616ZM406.755 134.661C404.479 136.955 404.527 140.278 406.942 142.675C409.218 144.934 412.525 145.146 414.836 142.817C415.905 141.74 416.539 140.162 416.361 138.951L416.396 138.916C418.17 141.194 419.1 144.428 416.859 146.687C415.893 147.66 414.718 148.045 414.718 148.045L415.643 150.067C415.643 150.067 417.078 149.629 418.509 148.186C422.285 144.381 420.239 138.936 417.094 135.815C413.601 132.349 409.359 132.037 406.755 134.661ZM408.354 136.213C409.905 134.649 412.885 135.226 414.484 136.812C415.37 137.691 415.1 139.631 413.721 141.021C412.169 142.585 410.126 142.455 408.632 140.972C407.207 139.558 406.957 137.62 408.354 136.213Z" fill="white"/>
<g filter="url(#filter1_bi_1_28)">
<rect x="593.133" y="222.603" width="91.8" height="73.44" rx="12.24" transform="rotate(134.778 593.133 222.603)" fill="white" fill-opacity="0.32"/>
<rect x="593.133" y="222.603" width="91.8" height="73.44" rx="12.24" transform="rotate(134.778 593.133 222.603)" fill="url(#paint2_linear_1_28)" fill-opacity="0.03"/>
<rect x="593.133" y="222.603" width="91.8" height="73.44" rx="12.24" transform="rotate(134.778 593.133 222.603)" fill="url(#paint3_linear_1_28)"/>
<rect x="591.51" y="222.609" width="89.505" height="71.145" rx="11.0925" transform="rotate(134.778 591.51 222.609)" stroke="white" stroke-opacity="0.4" stroke-width="2.295"/>
</g>
<path opacity="0.9" fill-rule="evenodd" clip-rule="evenodd" d="M539.779 257.922L520.588 277.234L518.48 275.213L536.686 256.865L522.598 242.935L503.9 261.258L501.792 259.237L520.522 240.883L506.976 227.492L488.334 246.307L486.226 244.286L505.908 224.451C506.456 223.914 507.378 223.905 507.966 224.486L510.829 227.317L520.577 217.765L511.847 209.135C511.567 208.858 511.413 208.489 511.411 208.113L511.594 201.702L514.481 198.807L514.312 207.588L522.6 215.782L532.348 206.23L529.677 203.572C529.092 202.994 529.106 202.096 529.651 201.562L549.563 181.671L551.631 183.732L532.743 202.619L546.088 215.829L565.123 197.175L567.191 199.236L548.164 217.882L561.832 231.444L580.683 212.679L582.751 214.74L562.901 234.485C562.353 235.022 561.43 235.031 560.842 234.45L557.856 231.448L548.109 240.999L556.839 249.629C557.118 249.906 557.273 250.275 557.275 250.651L557.275 250.674L557.584 255.445L554.655 258.382L554.363 251.166L546.085 242.983L536.338 252.535L539.752 255.912C540.337 256.49 540.323 257.388 539.779 257.922ZM512.905 229.369L534.262 250.482L555.78 229.395L534.424 208.282L512.905 229.369Z" fill="#FBDCA6"/>
<defs>
<filter id="filter0_bi_1_28" x="-159.417" y="-159.851" width="1066.03" height="1067.37" filterUnits="userSpaceOnUse" color-interpolation-filters="sRGB">
<feFlood flood-opacity="0" result="BackgroundImageFix"/>
<feGaussianBlur in="BackgroundImage" stdDeviation="87.975"/>
<feComposite in2="SourceAlpha" operator="in" result="effect1_backgroundBlur_1_28"/>
<feBlend mode="normal" in="SourceGraphic" in2="effect1_backgroundBlur_1_28" result="shape"/>
<feColorMatrix in="SourceAlpha" type="matrix" values="0 0 0 0 0 0 0 0 0 0 0 0 0 0 0 0 0 0 127 0" result="hardAlpha"/>
<feMorphology radius="2.295" operator="erode" in="SourceAlpha" result="effect2_innerShadow_1_28"/>
<feOffset dy="3.06"/>
<feGaussianBlur stdDeviation="5.355"/>
<feComposite in2="hardAlpha" operator="arithmetic" k2="-1" k3="1"/>
<feColorMatrix type="matrix" values="0 0 0 0 1 0 0 0 0 1 0 0 0 0 1 0 0 0 0.25 0"/>
<feBlend mode="normal" in2="shape" result="effect2_innerShadow_1_28"/>
</filter>
<filter id="filter1_bi_1_28" x="305.461" y="-0.00575256" width="458.551" height="458.652" filterUnits="userSpaceOnUse" color-interpolation-filters="sRGB">
<feFlood flood-opacity="0" result="BackgroundImageFix"/>
<feGaussianBlur in="BackgroundImage" stdDeviation="87.975"/>
<feComposite in2="SourceAlpha" operator="in" result="effect1_backgroundBlur_1_28"/>
<feBlend mode="normal" in="SourceGraphic" in2="effect1_backgroundBlur_1_28" result="shape"/>
<feColorMatrix in="SourceAlpha" type="matrix" values="0 0 0 0 0 0 0 0 0 0 0 0 0 0 0 0 0 0 127 0" result="hardAlpha"/>
<feMorphology radius="2.295" operator="erode" in="SourceAlpha" result="effect2_innerShadow_1_28"/>
<feOffset dy="3.06"/>
<feGaussianBlur stdDeviation="5.355"/>
<feComposite in2="hardAlpha" operator="arithmetic" k2="-1" k3="1"/>
<feColorMatrix type="matrix" values="0 0 0 0 1 0 0 0 0 1 0 0 0 0 1 0 0 0 0.25 0"/>
<feBlend mode="normal" in2="shape" result="effect2_innerShadow_1_28"/>
</filter>
<linearGradient id="paint0_linear_1_28" x1="1071.63" y1="285.839" x2="1071.63" y2="691.289" gradientUnits="userSpaceOnUse">
<stop stop-color="white" stop-opacity="0.2"/>
<stop offset="1" stop-color="white" stop-opacity="0"/>
</linearGradient>
<linearGradient id="paint1_linear_1_28" x1="1070.71" y1="286.382" x2="1070.71" y2="691.832" gradientUnits="userSpaceOnUse">
<stop stop-color="white" stop-opacity="0.2"/>
<stop offset="1" stop-color="white" stop-opacity="0"/>
</linearGradient>
<linearGradient id="paint2_linear_1_28" x1="639.033" y1="222.603" x2="639.033" y2="296.043" gradientUnits="userSpaceOnUse">
<stop stop-color="#564C16" stop-opacity="0.2"/>
<stop offset="1" stop-color="white" stop-opacity="0"/>
</linearGradient>
<linearGradient id="paint3_linear_1_28" x1="639.033" y1="222.603" x2="639.033" y2="296.043" gradientUnits="userSpaceOnUse">
<stop stop-color="#F6B545"/>
<stop offset="1" stop-color="#F6B545"/>
</linearGradient>
</defs>
</svg>
