<svg width="628" height="30" viewBox="0 0 628 30" fill="none" xmlns="http://www.w3.org/2000/svg">
<path d="M0.264 23H2.472V12.92H10.728V10.936H2.472V2.488H12.104V0.504H0.264V23ZM16.4827 23H18.6587V16.216C18.6587 15.192 18.7867 14.104 19.1067 13.08C19.8107 10.712 21.5067 8.92 23.7787 8.92C24.1947 8.92 24.5787 8.984 24.5787 8.984V6.84C24.5787 6.84 24.1628 6.744 23.7148 6.744C21.1867 6.744 19.3947 8.6 18.6267 11.032H18.5627C18.5627 11.032 18.6267 10.456 18.6267 9.752V6.904H16.4827V23ZM27.1575 14.872C27.1575 19.736 30.9655 23.384 35.6695 23.384C40.3735 23.384 44.1815 19.736 44.1815 14.872C44.1815 10.104 40.3735 6.52 35.6695 6.52C30.9655 6.52 27.1575 10.104 27.1575 14.872ZM29.3975 14.872C29.3975 11.224 32.2135 8.504 35.6695 8.504C39.1255 8.504 41.9415 11.224 41.9415 14.872C41.9415 18.616 39.1255 21.432 35.6695 21.432C32.2135 21.432 29.3975 18.616 29.3975 14.872ZM47.5757 21.048C47.5757 21.048 49.6237 23.384 53.5277 23.384C56.7597 23.384 59.0317 21.496 59.0317 18.872C59.0317 13.56 50.3597 14.52 50.3597 10.968C50.3597 9.176 51.9277 8.472 53.5597 8.472C56.2157 8.472 57.5917 9.944 57.5917 9.944L58.5837 8.28C58.5837 8.28 57.0157 6.52 53.6237 6.52C50.7117 6.52 48.1197 8.088 48.1197 10.968C48.1197 16.216 56.7917 15.352 56.7917 18.872C56.7917 20.568 55.2877 21.432 53.5597 21.432C50.5517 21.432 48.7597 19.48 48.7597 19.48L47.5757 21.048ZM64.3232 17.144C64.3232 22.52 68.0672 23.128 69.9232 23.128C70.4992 23.128 70.8512 23.064 70.8512 23.064V21.112C70.8512 21.112 70.5632 21.176 70.1152 21.176C68.8992 21.176 66.4992 20.696 66.4992 16.92V8.92H70.5312V7.096H66.4992V2.456H64.3552V7.096H62.2112V8.92H64.3232V17.144ZM73.954 14.968C73.954 19.928 77.57 23.384 82.37 23.384C85.986 23.384 88.322 21.144 88.322 21.144L87.33 19.48C87.33 19.48 85.378 21.432 82.434 21.432C79.106 21.432 76.29 19.192 76.194 15.064H88.546C88.546 15.064 88.61 14.328 88.61 13.944C88.61 9.944 86.338 6.52 81.89 6.52C77.538 6.52 73.954 9.688 73.954 14.968ZM76.29 13.272C76.802 10.04 79.138 8.344 81.826 8.344C84.226 8.344 86.274 9.912 86.402 13.272H76.29ZM92.3455 14.936C92.3455 19.928 95.0335 23.384 99.3535 23.384C103.577 23.384 104.889 20.152 104.889 20.152H104.953C104.953 20.152 104.889 20.6 104.889 21.304V23H107.001V0.504H104.825V8.344C104.825 9.016 104.889 9.56 104.889 9.56H104.825C104.825 9.56 103.481 6.52 99.5775 6.52C95.3535 6.52 92.3455 9.848 92.3455 14.936ZM94.5855 14.936C94.5855 10.872 96.9215 8.472 99.7695 8.472C103.225 8.472 104.889 11.672 104.889 14.936C104.889 19.512 102.361 21.432 99.6735 21.432C96.6655 21.432 94.5855 18.904 94.5855 14.936ZM121.255 11.736C121.255 18.424 126.119 23.384 132.263 23.384C136.999 23.384 139.591 20.344 139.591 20.344H139.655C139.655 20.344 139.623 20.824 139.623 21.304V23H141.671V12.248H135.719V14.232H139.559V18.04C139.559 18.04 136.871 21.336 132.487 21.336C127.367 21.336 123.559 17.24 123.559 11.704C123.559 6.36 127.239 2.168 132.679 2.168C136.775 2.168 139.399 4.408 139.399 4.408L140.583 2.744C140.583 2.744 137.799 0.119999 132.583 0.119999C126.119 0.119999 121.255 5.24 121.255 11.736ZM146.849 19.192C146.849 22.712 149.217 23.128 150.561 23.128C150.977 23.128 151.361 23.064 151.361 23.064V21.112C151.361 21.112 151.105 21.144 150.817 21.144C149.985 21.144 149.025 20.824 149.025 18.712V0.504H146.849V19.192ZM154.243 18.616C154.243 21.816 157.027 23.384 159.715 23.384C163.747 23.384 165.091 19.896 165.091 19.896H165.155C165.155 19.896 165.091 20.44 165.091 21.24V23H167.171V12.696C167.171 8.664 165.027 6.52 161.155 6.52C157.539 6.52 155.427 8.344 155.427 8.344L156.451 10.008C156.451 10.008 158.339 8.472 160.995 8.472C163.299 8.472 164.995 9.528 164.995 12.632V13.048H164.099C161.315 13.048 154.243 13.176 154.243 18.616ZM156.483 18.488C156.483 14.936 161.539 14.84 164.067 14.84H164.995V15.544C164.995 18.328 163.139 21.528 160.067 21.528C157.667 21.528 156.483 19.992 156.483 18.488ZM171.508 21.048C171.508 21.048 173.556 23.384 177.46 23.384C180.692 23.384 182.964 21.496 182.964 18.872C182.964 13.56 174.292 14.52 174.292 10.968C174.292 9.176 175.86 8.472 177.492 8.472C180.148 8.472 181.524 9.944 181.524 9.944L182.516 8.28C182.516 8.28 180.948 6.52 177.556 6.52C174.644 6.52 172.052 8.088 172.052 10.968C172.052 16.216 180.724 15.352 180.724 18.872C180.724 20.568 179.22 21.432 177.492 21.432C174.484 21.432 172.692 19.48 172.692 19.48L171.508 21.048ZM186.336 21.048C186.336 21.048 188.384 23.384 192.288 23.384C195.52 23.384 197.792 21.496 197.792 18.872C197.792 13.56 189.12 14.52 189.12 10.968C189.12 9.176 190.688 8.472 192.32 8.472C194.976 8.472 196.352 9.944 196.352 9.944L197.344 8.28C197.344 8.28 195.776 6.52 192.384 6.52C189.472 6.52 186.88 8.088 186.88 10.968C186.88 16.216 195.552 15.352 195.552 18.872C195.552 20.568 194.048 21.432 192.32 21.432C189.312 21.432 187.52 19.48 187.52 19.48L186.336 21.048ZM212.349 23H225.597V21.016H214.557V12.664H223.101V10.68H214.557V2.488H225.021V0.504H212.349V23ZM241.513 23H243.689V8.728H247.817V6.904H243.689V6.328C243.689 2.744 246.057 2.296 247.305 2.296C247.753 2.296 248.073 2.36 248.073 2.36V0.407999C248.073 0.407999 247.689 0.344 247.081 0.344C245.257 0.344 241.513 1.016 241.513 6.328V6.904H233.449V6.328C233.449 2.744 235.817 2.296 237.065 2.296C237.513 2.296 237.833 2.36 237.833 2.36V0.407999C237.833 0.407999 237.449 0.344 236.841 0.344C235.017 0.344 231.273 1.016 231.273 6.328V6.904H229.257V8.728H231.273V23H233.449V8.728H241.513V23ZM250.4 14.968C250.4 19.928 254.016 23.384 258.816 23.384C262.432 23.384 264.768 21.144 264.768 21.144L263.776 19.48C263.776 19.48 261.824 21.432 258.88 21.432C255.552 21.432 252.736 19.192 252.64 15.064H264.992C264.992 15.064 265.056 14.328 265.056 13.944C265.056 9.944 262.784 6.52 258.336 6.52C253.984 6.52 250.4 9.688 250.4 14.968ZM252.736 13.272C253.248 10.04 255.584 8.344 258.272 8.344C260.672 8.344 262.72 9.912 262.848 13.272H252.736ZM268.728 14.968C268.728 19.96 272.408 23.384 277.176 23.384C281.272 23.384 283.448 20.856 283.448 20.856L282.456 19.16C282.456 19.16 280.568 21.432 277.304 21.432C273.752 21.432 270.968 18.744 270.968 14.968C270.968 11.128 273.72 8.504 277.24 8.504C280.152 8.504 281.944 10.456 281.944 10.456L283.064 8.824C283.064 8.824 281.112 6.52 277.176 6.52C272.44 6.52 268.728 10.008 268.728 14.968ZM288.658 17.144C288.658 22.52 292.402 23.128 294.258 23.128C294.834 23.128 295.186 23.064 295.186 23.064V21.112C295.186 21.112 294.898 21.176 294.45 21.176C293.234 21.176 290.834 20.696 290.834 16.92V8.92H294.866V7.096H290.834V2.456H288.69V7.096H286.546V8.92H288.658V17.144ZM299.473 23H302.001V20.44H299.473V23ZM317.829 23H320.037V12.92H328.293V10.936H320.037V2.488H329.669V0.504H317.829V23ZM334.048 23H336.224V16.216C336.224 15.192 336.352 14.104 336.672 13.08C337.376 10.712 339.072 8.92 341.344 8.92C341.76 8.92 342.144 8.984 342.144 8.984V6.84C342.144 6.84 341.728 6.744 341.28 6.744C338.752 6.744 336.96 8.6 336.192 11.032H336.128C336.128 11.032 336.192 10.456 336.192 9.752V6.904H334.048V23ZM344.787 14.968C344.787 19.928 348.403 23.384 353.203 23.384C356.819 23.384 359.155 21.144 359.155 21.144L358.163 19.48C358.163 19.48 356.211 21.432 353.267 21.432C349.939 21.432 347.123 19.192 347.027 15.064H359.379C359.379 15.064 359.443 14.328 359.443 13.944C359.443 9.944 357.171 6.52 352.723 6.52C348.371 6.52 344.787 9.688 344.787 14.968ZM347.123 13.272C347.635 10.04 349.971 8.344 352.659 8.344C355.059 8.344 357.107 9.912 357.235 13.272H347.123ZM363.114 14.968C363.114 19.928 366.73 23.384 371.53 23.384C375.146 23.384 377.482 21.144 377.482 21.144L376.49 19.48C376.49 19.48 374.538 21.432 371.594 21.432C368.266 21.432 365.45 19.192 365.354 15.064H377.706C377.706 15.064 377.77 14.328 377.77 13.944C377.77 9.944 375.498 6.52 371.05 6.52C366.698 6.52 363.114 9.688 363.114 14.968ZM365.45 13.272C365.962 10.04 368.298 8.344 370.986 8.344C373.386 8.344 375.434 9.912 375.562 13.272H365.45ZM392.435 23H394.643V12.92H402.899V10.936H394.643V2.488H404.275V0.504H392.435V23ZM408.809 3.224H411.081V0.504H408.809V3.224ZM408.873 23H411.049V6.904H408.873V23ZM418.166 26.648L417.334 28.44C418.902 29.24 420.758 29.72 422.614 29.72C426.55 29.72 430.326 27.736 430.326 22.616V6.904H428.214V8.664C428.214 9.016 428.246 9.208 428.246 9.208H428.182C428.182 9.208 427.126 6.52 422.87 6.52C418.55 6.52 415.894 9.816 415.894 14.648C415.894 19.48 418.742 22.904 423.062 22.904C425.558 22.904 427.19 21.88 428.15 20.088H428.214C428.214 20.088 428.15 20.632 428.15 21.24V22.712C428.15 26.296 425.654 27.768 422.518 27.768C420.15 27.768 418.166 26.648 418.166 26.648ZM423.414 20.952C420.214 20.952 418.134 18.456 418.134 14.616C418.134 10.776 419.958 8.504 423.094 8.504C425.942 8.504 428.182 9.944 428.182 14.648C428.182 19.384 425.942 20.952 423.414 20.952ZM436.215 23H438.391V15.384C438.391 14.648 438.455 13.912 438.615 13.24C439.287 10.776 441.271 8.504 443.895 8.504C446.935 8.504 447.287 10.872 447.287 13.304V23H449.463V15.384C449.463 14.52 449.527 13.752 449.751 13.048C450.359 10.68 452.375 8.504 454.839 8.504C457.783 8.504 458.327 10.68 458.327 13.304V23H460.503V12.76C460.503 8.792 459.063 6.52 455.159 6.52C452.439 6.52 450.103 8.376 449.239 10.552H449.175C448.695 7.896 447.159 6.52 444.183 6.52C441.687 6.52 439.127 8.408 438.359 10.584H438.295C438.295 10.584 438.359 10.008 438.359 9.304V6.904H436.215V23ZM464.856 18.616C464.856 21.816 467.64 23.384 470.328 23.384C474.36 23.384 475.704 19.896 475.704 19.896H475.768C475.768 19.896 475.704 20.44 475.704 21.24V23H477.784V12.696C477.784 8.664 475.64 6.52 471.768 6.52C468.152 6.52 466.04 8.344 466.04 8.344L467.064 10.008C467.064 10.008 468.952 8.472 471.608 8.472C473.912 8.472 475.608 9.528 475.608 12.632V13.048H474.712C471.928 13.048 464.856 13.176 464.856 18.616ZM467.096 18.488C467.096 14.936 472.152 14.84 474.68 14.84H475.608V15.544C475.608 18.328 473.752 21.528 470.68 21.528C468.28 21.528 467.096 19.992 467.096 18.488ZM498.363 23H500.571V2.488H508.635V0.504H490.267V2.488H498.363V23ZM507.968 14.968C507.968 19.928 511.584 23.384 516.384 23.384C520 23.384 522.336 21.144 522.336 21.144L521.344 19.48C521.344 19.48 519.392 21.432 516.448 21.432C513.12 21.432 510.304 19.192 510.208 15.064H522.56C522.56 15.064 522.624 14.328 522.624 13.944C522.624 9.944 520.352 6.52 515.904 6.52C511.552 6.52 507.968 9.688 507.968 14.968ZM510.304 13.272C510.816 10.04 513.152 8.344 515.84 8.344C518.24 8.344 520.288 9.912 520.416 13.272H510.304ZM527.415 23H529.591V15.384C529.591 14.648 529.655 13.912 529.815 13.24C530.487 10.776 532.471 8.504 535.095 8.504C538.135 8.504 538.487 10.872 538.487 13.304V23H540.663V15.384C540.663 14.52 540.727 13.752 540.951 13.048C541.559 10.68 543.575 8.504 546.039 8.504C548.983 8.504 549.527 10.68 549.527 13.304V23H551.703V12.76C551.703 8.792 550.263 6.52 546.359 6.52C543.639 6.52 541.303 8.376 540.439 10.552H540.375C539.895 7.896 538.359 6.52 535.383 6.52C532.887 6.52 530.327 8.408 529.559 10.584H529.495C529.495 10.584 529.559 10.008 529.559 9.304V6.904H527.415V23ZM557.368 29.4H559.544V21.72C559.544 20.888 559.48 20.312 559.48 20.312H559.544C559.544 20.312 560.952 23.384 564.824 23.384C568.984 23.384 572.024 20.056 572.024 14.968C572.024 9.976 569.336 6.52 565.016 6.52C560.76 6.52 559.448 9.72 559.448 9.72H559.384C559.384 9.72 559.448 9.176 559.448 8.472V6.904H557.368V29.4ZM559.48 15C559.48 10.424 562.008 8.504 564.696 8.504C567.704 8.504 569.784 11.032 569.784 14.968C569.784 19.064 567.448 21.464 564.6 21.464C561.272 21.464 559.48 18.232 559.48 15ZM576.691 19.192C576.691 22.712 579.059 23.128 580.403 23.128C580.819 23.128 581.203 23.064 581.203 23.064V21.112C581.203 21.112 580.947 21.144 580.659 21.144C579.827 21.144 578.867 20.824 578.867 18.712V0.504H576.691V19.192ZM584.086 18.616C584.086 21.816 586.87 23.384 589.558 23.384C593.59 23.384 594.934 19.896 594.934 19.896H594.998C594.998 19.896 594.934 20.44 594.934 21.24V23H597.014V12.696C597.014 8.664 594.87 6.52 590.998 6.52C587.382 6.52 585.27 8.344 585.27 8.344L586.294 10.008C586.294 10.008 588.182 8.472 590.838 8.472C593.142 8.472 594.838 9.528 594.838 12.632V13.048H593.942C591.158 13.048 584.086 13.176 584.086 18.616ZM586.326 18.488C586.326 14.936 591.382 14.84 593.91 14.84H594.838V15.544C594.838 18.328 592.982 21.528 589.91 21.528C587.51 21.528 586.326 19.992 586.326 18.488ZM603.177 17.144C603.177 22.52 606.921 23.128 608.777 23.128C609.353 23.128 609.705 23.064 609.705 23.064V21.112C609.705 21.112 609.417 21.176 608.969 21.176C607.753 21.176 605.353 20.696 605.353 16.92V8.92H609.385V7.096H605.353V2.456H603.209V7.096H601.065V8.92H603.177V17.144ZM612.808 14.968C612.808 19.928 616.424 23.384 621.224 23.384C624.84 23.384 627.176 21.144 627.176 21.144L626.184 19.48C626.184 19.48 624.232 21.432 621.288 21.432C617.96 21.432 615.144 19.192 615.048 15.064H627.4C627.4 15.064 627.464 14.328 627.464 13.944C627.464 9.944 625.192 6.52 620.744 6.52C616.392 6.52 612.808 9.688 612.808 14.968ZM615.144 13.272C615.656 10.04 617.992 8.344 620.68 8.344C623.08 8.344 625.128 9.912 625.256 13.272H615.144Z" fill="#787878"/>
</svg>
