<svg width="969" height="757" viewBox="0 0 969 757" fill="none" xmlns="http://www.w3.org/2000/svg">
<g filter="url(#filter0_bi_1_30)">
<rect x="155.628" y="0.72113" width="850" height="530" rx="50" transform="rotate(17 155.628 0.72113)" fill="white" fill-opacity="0.32"/>
<rect x="155.628" y="0.72113" width="850" height="530" rx="50" transform="rotate(17 155.628 0.72113)" fill="url(#paint0_linear_1_30)" fill-opacity="0.03"/>
<rect x="155.96" y="1.34547" width="849" height="529" rx="49.5" transform="rotate(17 155.96 1.34547)" stroke="white" stroke-opacity="0.4"/>
</g>
<mask id="mask0_1_30" style="mask-type:alpha" maskUnits="userSpaceOnUse" x="14" y="13" width="943" height="731">
<rect x="156.584" y="1.01352" width="849" height="530" rx="50" transform="rotate(17 156.584 1.01352)" fill="white" fill-opacity="0.32"/>
<rect x="156.584" y="1.01352" width="849" height="530" rx="50" transform="rotate(17 156.584 1.01352)" fill="url(#paint1_linear_1_30)" fill-opacity="0.03"/>
<rect x="156.916" y="1.63786" width="848" height="529" rx="49.5" transform="rotate(17 156.916 1.63786)" stroke="white" stroke-opacity="0.4"/>
</mask>
<g mask="url(#mask0_1_30)">
<g opacity="0.18">
<path d="M146.687 331.178C147.659 330.594 148.602 329.781 150.305 328.429C119.816 319.108 90.3241 310.091 60.9233 301.103C60.7143 300.488 60.5959 299.901 60.4177 299.186C140.754 250.946 221.09 202.706 301.184 154.612C272.781 145.929 243.924 137.106 215.037 128.385C213.404 127.885 211.006 128.914 209.304 129.936C171.051 152.824 132.797 175.712 94.6035 198.729C93.0235 199.677 91.4142 200.397 89.7743 201.217C69.4501 267.695 49.126 334.172 28.8018 400.649C30.2278 400.204 31.8953 399.943 33.2014 399.241C71.0903 376.572 108.889 353.875 146.687 331.178Z" fill="white"/>
<path d="M918.52 -542.709C917.062 -541.833 915.573 -540.856 913.202 -539.268C943.601 -529.974 972.911 -521.013 1003.67 -511.608C962.715 -487.014 922.972 -463.15 882.378 -438.774C912.505 -429.564 941.362 -420.741 970.249 -412.02C971.791 -411.548 973.947 -412.431 975.496 -413.279C1013.63 -436.094 1051.67 -458.937 1089.74 -481.881C1090.71 -482.464 1091.75 -483.25 1093.54 -484.574C1063.14 -493.867 1033.65 -502.884 1004.16 -511.9C1004.1 -512.359 1003.95 -512.845 1003.89 -513.303C1005.59 -513.995 1007.32 -514.458 1008.81 -515.434C1045.76 -537.62 1082.71 -559.806 1119.65 -581.992C1121.23 -582.941 1122.66 -584.046 1124.18 -585.123C1093.97 -594.362 1063.66 -603.628 1033.44 -612.866C1031.95 -611.56 1030.58 -609.996 1029 -609.048C992.141 -586.834 955.315 -564.721 918.52 -542.709Z" fill="white"/>
<path d="M2028.49 1339.24C2027.03 1340.11 2025.52 1340.86 2023.02 1342.19C2033.4 1308.25 2043.41 1275.51 2053.23 1243.38C2013.49 1267.24 1973.63 1291.18 1934.73 1314.54C1954.28 1356.42 1974.06 1398.81 1994.08 1441.72C1994.97 1441.11 1996.43 1439.9 1998.01 1438.95C2035.07 1416.69 2072.14 1394.43 2109.21 1372.17C2110.79 1371.23 2112.4 1370.51 2114.04 1369.69C2124.2 1336.45 2134.37 1303.21 2144.53 1269.97C2142.89 1270.79 2141.28 1271.51 2139.7 1272.46C2102.63 1294.72 2065.56 1316.98 2028.49 1339.24Z" fill="white"/>
<path d="M-64.213 708.132C-63.1968 704.808 -61.6118 702.87 -58.8165 701.191C-21.4136 678.814 15.9892 656.437 53.3321 633.931C54.9121 632.983 56.3106 631.979 58.0122 630.957C57.4435 629.572 57.0545 628.571 56.4842 627.516C37.4802 586.792 18.4765 546.068 -0.527449 505.344C-1.00704 504.317 -1.72994 503.435 -2.33107 502.48C-33.0329 602.901 -63.7039 703.222 -94.4057 803.643C-93.6099 802.014 -92.482 800.596 -91.9585 798.884C-82.5987 768.594 -73.3605 738.377 -64.213 708.132Z" fill="white"/>
<path d="M303.048 -177.985C283.984 -218.837 264.92 -259.69 245.917 -300.413C245.437 -301.441 244.714 -302.323 244.113 -303.278C233.951 -270.039 223.789 -236.8 213.627 -203.562C213.345 -201.665 213.395 -199.557 212.841 -197.744C203.816 -167.903 194.58 -138.015 185.465 -108.201C184.941 -106.489 184.418 -104.777 184.11 -103.77C224.096 -127.78 263.96 -151.718 303.946 -175.728C303.887 -176.186 303.468 -177.086 303.048 -177.985Z" fill="white"/>
<path d="M2116.76 1036.25C2116.54 1036.95 2116.6 1037.74 2116.47 1039.46C2118.75 1037.85 2120.18 1036.74 2121.76 1035.79C2158.62 1013.58 2195.53 991.496 2232.48 969.31C2234.06 968.361 2235.67 967.641 2237.22 966.793C2247.38 933.555 2257.54 900.316 2267.7 867.077C2266.06 867.898 2264.46 868.617 2262.88 869.566C2225.69 891.898 2188.53 914.129 2151.33 936.461C2149.88 937.337 2148.27 938.056 2146.75 938.804C2146.47 939.38 2146.08 940.03 2145.89 940.634C2136.25 972.49 2126.52 1004.32 2116.76 1036.25Z" fill="white"/>
<path d="M2454.63 -68.2269L2454.75 -68.2999C2454.75 -68.2999 2454.75 -68.2999 2454.63 -68.2269Z" fill="white"/>
<path d="M2369.6 -99.07C2368.14 -98.1943 2366.65 -97.2178 2364.31 -95.7305C2366.67 -95.0091 2368.12 -94.5652 2369.57 -94.1213C2389.35 -88.0733 2409.14 -82.0253 2428.92 -75.9774C2437.54 -73.3418 2446.13 -70.9354 2454.78 -68.4006C2456.18 -69.4048 2457.61 -70.5097 2459.07 -71.3855C2496.26 -93.7174 2533.45 -116.049 2570.52 -138.308C2572.1 -139.257 2573.53 -140.362 2575.05 -141.439C2545.1 -150.594 2515.16 -159.75 2485.21 -168.905C2483.69 -167.828 2482.26 -166.723 2480.71 -165.875C2443.64 -143.616 2406.67 -121.329 2369.6 -99.07Z" fill="white"/>
<path d="M1182.43 -460.813C1182.97 -459.657 1183.63 -458.574 1184.35 -457.362C1185.44 -458.019 1186.35 -458.401 1187.2 -458.912C1225.46 -481.8 1263.65 -504.817 1301.81 -527.732C1302.79 -528.316 1303.64 -529.157 1304.55 -529.869C1244.66 -548.18 1184.77 -566.49 1124.88 -584.8C1125.3 -583.571 1125.68 -582.241 1126.22 -581.085C1145.02 -540.976 1163.72 -500.894 1182.43 -460.813Z" fill="white"/>
<path d="M820.6 -570.994C821.08 -569.966 821.712 -569.112 822.282 -568.057C823.376 -568.713 824.286 -569.096 825.137 -569.607C863.391 -592.495 901.584 -615.511 939.747 -638.427C940.719 -639.011 941.572 -639.852 942.484 -640.564C882.594 -658.874 822.703 -677.185 762.812 -695.495C763.17 -694.394 763.407 -693.221 763.887 -692.193C782.892 -651.799 801.685 -611.36 820.6 -570.994Z" fill="white"/>
<path d="M2271.59 -127.383C2272.07 -126.355 2272.7 -125.501 2273.27 -124.446C2274.36 -125.103 2275.27 -125.485 2276.12 -125.996C2314.38 -148.884 2352.57 -171.9 2390.82 -194.788C2391.8 -195.372 2392.65 -196.213 2393.56 -196.925C2333.67 -215.236 2273.78 -233.546 2213.89 -251.856C2214.25 -250.756 2214.48 -249.582 2214.96 -248.554C2233.88 -208.188 2252.67 -167.749 2271.59 -127.383Z" fill="white"/>
<path d="M1643.53 -320.941C1642.07 -320.065 1640.67 -319.061 1638.54 -317.619C1640.72 -316.953 1642.08 -316.537 1643.44 -316.121C1670.39 -307.881 1697.29 -299.77 1724.17 -291.329C1727.17 -290.413 1729.5 -290.911 1732.21 -292.617C1769.79 -315.269 1807.47 -337.893 1845.15 -360.517C1846.61 -361.392 1847.82 -362.452 1849.19 -363.356C1819.25 -372.511 1789.3 -381.666 1759.36 -390.821C1757.84 -389.744 1756.41 -388.639 1754.83 -387.69C1717.67 -365.459 1680.6 -343.2 1643.53 -320.941Z" fill="white"/>
<path d="M269.256 -71.3499C270.471 -72.0797 271.536 -72.9657 273.39 -74.1611C242.628 -83.566 212.592 -92.749 182.556 -101.932C172.394 -68.6933 162.232 -35.4546 152.07 -2.2159C153.739 -2.80698 155.406 -3.06821 156.865 -3.94397C194.389 -26.3941 231.822 -48.872 269.256 -71.3499Z" fill="white"/>
<path d="M361.638 -373.519C362.854 -374.249 363.919 -375.135 365.772 -376.331C335.01 -385.736 304.974 -394.919 274.938 -404.101C264.776 -370.863 254.614 -337.624 244.452 -304.386C246.121 -304.977 247.789 -305.238 249.247 -306.114C286.771 -328.564 324.205 -351.042 361.638 -373.519Z" fill="white"/>
<path d="M238.462 29.3733C239.677 28.6435 240.742 27.7575 242.596 26.5621C211.834 17.1572 181.798 7.97424 151.762 -1.2087C141.599 32.03 131.437 65.2686 121.275 98.5073C122.944 97.9162 124.612 97.6551 126.07 96.7794C163.595 74.3292 201.028 51.8512 238.462 29.3733Z" fill="white"/>
<path d="M2297.31 761.476C2297.79 762.503 2298.51 763.385 2299.11 764.34C2309.28 731.101 2319.44 697.862 2329.6 664.624C2299.84 655.524 2270.07 646.424 2239.49 637.075C2240.36 639.103 2240.69 639.974 2241.11 640.873C2259.87 681.083 2278.55 721.266 2297.31 761.476Z" fill="white"/>
<path d="M1369.3 -403.791C1407.34 -426.634 1445.38 -449.476 1483.42 -472.319C1484.39 -472.903 1485.25 -473.744 1486.16 -474.456C1456.21 -483.611 1426.27 -492.767 1396.32 -501.922C1386.22 -468.885 1376.12 -435.847 1365.74 -401.904C1367.6 -402.769 1368.45 -403.28 1369.3 -403.791Z" fill="white"/>
<path d="M1823.01 -265.076C1861.05 -287.919 1899.07 -310.661 1937.11 -333.503C1938.08 -334.087 1938.93 -334.928 1939.84 -335.64C1909.9 -344.796 1879.95 -353.951 1850.01 -363.106C1839.91 -330.069 1829.81 -297.032 1819.43 -263.088C1821.31 -264.054 1822.16 -264.565 1823.01 -265.076Z" fill="white"/>
<path d="M1913.76 -237.333C1951.8 -260.176 1989.81 -282.918 2027.85 -305.76C2028.82 -306.344 2029.67 -307.185 2030.59 -307.897C2000.64 -317.053 1970.7 -326.208 1940.75 -335.363C1930.65 -302.326 1920.55 -269.288 1910.17 -235.345C1912.06 -236.311 1912.91 -236.822 1913.76 -237.333Z" fill="white"/>
<path d="M644.258 -625.458C682.3 -648.3 720.341 -671.143 758.382 -693.986C759.354 -694.57 760.207 -695.411 761.119 -696.123C731.174 -705.278 701.228 -714.433 671.283 -723.589C661.183 -690.551 651.082 -657.514 640.705 -623.57C642.557 -624.436 643.408 -624.947 644.258 -625.458Z" fill="white"/>
<path d="M462.772 -680.944C500.813 -703.786 538.854 -726.629 576.895 -749.472C577.867 -750.056 578.72 -750.897 579.632 -751.609C549.687 -760.764 519.742 -769.919 489.797 -779.074C479.696 -746.037 469.596 -713 459.218 -679.056C461.07 -679.922 461.921 -680.433 462.772 -680.944Z" fill="white"/>
<path d="M1550.78 -348.305C1588.83 -371.148 1626.87 -393.99 1664.91 -416.833C1665.88 -417.417 1666.73 -418.258 1667.64 -418.97C1637.7 -428.125 1607.75 -437.28 1577.81 -446.436C1567.71 -413.398 1557.61 -380.361 1547.23 -346.418C1549.08 -347.283 1549.93 -347.794 1550.78 -348.305Z" fill="white"/>
<path d="M486.121 -777.114C487.094 -777.698 487.946 -778.539 488.858 -779.251C458.913 -788.406 428.968 -797.562 399.022 -806.717C388.922 -773.68 378.821 -740.642 368.444 -706.699C370.358 -707.766 371.178 -708.176 372.028 -708.687C410.07 -731.529 448.08 -754.272 486.121 -777.114Z" fill="white"/>
<path d="M2420.49 358.583C2420.97 359.61 2421.69 360.492 2422.29 361.447C2432.45 328.208 2442.62 294.97 2452.78 261.731C2423.01 252.631 2393.25 243.532 2362.67 234.182C2363.54 236.21 2363.87 237.081 2364.29 237.981C2383.05 278.191 2401.72 318.373 2420.49 358.583Z" fill="white"/>
<path d="M2095.24 -181.847C2133.28 -204.69 2171.3 -227.432 2209.34 -250.274C2210.31 -250.858 2211.16 -251.699 2212.07 -252.411C2182.13 -261.566 2152.18 -270.722 2122.24 -279.877C2112.14 -246.84 2102.04 -213.802 2091.66 -179.859C2093.54 -180.825 2094.39 -181.336 2095.24 -181.847Z" fill="white"/>
<path d="M1459.95 -376.735C1497.87 -399.505 1535.79 -422.275 1573.62 -445.073C1574.47 -445.583 1575.17 -446.251 1575.96 -446.89C1546.29 -455.962 1516.71 -465.006 1487.03 -474.078C1477.03 -441.343 1467.02 -408.608 1456.76 -375.067C1458.53 -375.96 1459.25 -376.398 1459.95 -376.735Z" fill="white"/>
<path d="M1386.5 1152.65C1387.64 1148.92 1389.28 1146.45 1392.66 1144.51C1429.91 1122.31 1467.13 1099.87 1504.41 1077.57C1505.99 1076.62 1507.39 1075.62 1508.72 1074.81C1468.86 989.384 1429.17 904.34 1389.66 819.68C1349.92 843.545 1310.06 867.482 1270.19 891.42C1271.37 891.781 1273.01 892.28 1274.64 892.779C1301.59 901.019 1328.45 909.231 1355.43 917.37C1358.15 918.202 1359.94 919.518 1361.25 922.344C1379.84 962.498 1398.63 1002.61 1417.34 1042.69C1417.94 1043.97 1418.5 1045.36 1419.28 1047.36C1378.81 1071.66 1338.46 1095.89 1298.96 1119.61C1318.74 1162 1338.41 1204.14 1358.04 1246.05C1358.41 1244.84 1358.96 1243.03 1359.52 1241.21C1368.51 1211.8 1377.65 1182.22 1386.5 1152.65Z" fill="white"/>
<path d="M1748.81 597.196C1721.86 588.957 1694.97 580.846 1668.08 572.404C1665.09 571.489 1662.78 571.886 1659.99 573.564C1581.81 620.591 1503.66 667.518 1425.51 714.444C1424.05 715.32 1422.77 716.251 1421.8 716.835C1441.65 759.357 1461.43 801.751 1480.79 843.246C1520.41 819.454 1560.16 795.589 1600.02 771.652C1570.98 762.774 1541.49 753.758 1512 744.741C1511.94 744.283 1511.79 743.797 1511.73 743.338C1592.07 695.098 1672.41 646.859 1753.11 598.4C1751.44 598.001 1750.08 597.585 1748.81 597.196Z" fill="white"/>
<path d="M665.303 595.798C704.955 571.906 744.576 548.114 785.201 523.638C774.946 557.179 765.031 589.612 755.454 620.937C794.71 597.364 834.453 573.499 873.831 549.854C845.156 541.087 815.937 532.154 786.173 523.054C786.881 520.737 787.497 518.723 788.082 516.809C797.507 485.658 807.022 454.535 816.447 423.383C814.747 424.075 812.897 424.611 811.317 425.559C774.521 447.572 737.786 469.712 700.991 491.725C699.533 492.601 698.015 493.348 695.615 494.707C705.838 461.267 715.754 428.834 725.947 395.494C723.668 396.78 722.119 397.628 720.539 398.577C683.47 420.836 646.401 443.095 609.332 465.354C607.874 466.23 606.234 467.05 604.716 467.797C594.615 500.835 584.515 533.872 574.414 566.909C574.926 567.506 575.378 567.975 575.89 568.572C615.269 544.926 654.647 521.28 694.268 497.489C684.383 529.821 674.406 562.456 664.459 594.989C664.701 595.173 665.002 595.485 665.303 595.798Z" fill="white"/>
<path d="M939.236 19.1607C939.206 19.2614 939.115 19.2336 939.084 19.3343C939.175 19.3621 939.266 19.3898 939.356 19.4175C939.356 19.4175 939.356 19.4175 939.387 19.3168C939.296 19.2891 939.327 19.1884 939.236 19.1607Z" fill="white"/>
<path d="M788.6 193.162C828.252 169.27 867.873 145.478 908.376 121.075C898.183 154.414 888.267 186.847 878.813 217.769C917.827 194.343 957.57 170.478 997.069 146.76C938.268 128.782 878.831 110.61 819.394 92.4387C819.336 91.9804 819.246 91.6227 819.188 91.1643C820.797 90.4447 822.557 89.8814 824.137 88.9327C861.085 66.7467 898.032 44.5608 934.979 22.3748C936.438 21.499 937.776 20.3663 939.175 19.3621C908.957 10.1237 878.83 0.912978 848.613 -8.32545C847.244 -7.09203 845.873 -5.52867 844.293 -4.57993C806.828 17.9987 769.273 40.5495 731.749 62.9997C728.954 64.6782 727.429 66.7451 726.443 69.9683C717.45 99.7093 708.365 129.423 699.281 159.136C698.788 160.748 698.296 162.359 697.803 163.971C698.073 164.384 698.435 164.825 698.706 165.238C738.205 141.519 777.583 117.874 817.934 93.6444C807.71 127.085 797.764 159.618 787.817 192.152C787.968 192.308 788.329 192.749 788.6 193.162Z" fill="white"/>
<path d="M756.781 -36.4014C737.357 -78.0244 717.694 -120.161 698.031 -162.298C688.146 -129.966 678.138 -97.2311 667.852 -63.5896C666.623 -66.0582 665.812 -67.6274 665.093 -69.169C646.569 -108.865 628.014 -148.46 609.671 -188.101C608.292 -191.056 606.604 -192.673 603.609 -193.589C576.628 -201.728 549.768 -209.94 522.817 -218.179C521.546 -218.568 520.185 -218.984 519.459 -219.206C559.086 -134.29 598.772 -49.2452 638.039 34.9002C677.538 11.1817 717.524 -12.8288 756.781 -36.4014Z" fill="white"/>
<path d="M1630.15 1329.68C1639.85 1297.95 1649.7 1266.05 1659.28 1234.07C1659.87 1232.15 1659.12 1229.39 1658.22 1227.46C1639.7 1187.44 1620.96 1147.46 1602.32 1107.5C1601.66 1106.09 1600.82 1104.62 1599.77 1102.54C1597.98 1103.86 1596.58 1105.2 1595 1106.15C1558.05 1128.33 1521.1 1150.52 1484.21 1172.83C1480.81 1174.88 1477.96 1175.44 1474.36 1174.23C1447.65 1165.84 1420.85 1157.76 1394.08 1149.57C1392.54 1149.1 1391 1148.63 1389.55 1148.19C1409.45 1190.84 1429.05 1232.85 1449.2 1276.01C1489.43 1251.85 1529.65 1227.7 1571.01 1202.78C1590.64 1245.02 1610.36 1287.29 1630.15 1329.68Z" fill="white"/>
<path d="M1246.44 -321.962C1245.72 -323.503 1244.88 -324.972 1243.71 -327.312C1242.91 -324.693 1242.42 -323.081 1241.93 -321.47C1232.9 -291.958 1223.94 -262.318 1214.74 -232.861C1213.69 -229.437 1213.77 -226.77 1215.18 -223.586C1253.75 -141.083 1292.24 -58.6073 1330.73 23.868C1331.51 25.5381 1332.35 27.0066 1332.65 27.6489C1372.88 3.4925 1412.62 -20.372 1452.36 -44.2365C1451.27 -44.5694 1449.64 -45.0688 1448.01 -45.5682C1421.06 -53.8079 1394.17 -61.9191 1367.28 -70.3602C1365.1 -71.026 1362.69 -73.1955 1361.67 -75.3794C1342.75 -115.416 1324.08 -155.598 1305.37 -195.679C1304.77 -196.964 1304.33 -198.422 1303.76 -199.808C1302.95 -201.377 1302.02 -202.873 1301.24 -204.543C1283.1 -243.569 1264.73 -282.779 1246.44 -321.962Z" fill="white"/>
<path d="M969.924 250.801C989.077 292.011 1008.35 333.148 1027.63 374.285C1028.47 376.083 1030.61 377.51 1032.51 378.092C1059.53 386.461 1086.66 394.756 1113.7 403.023C1114.97 403.411 1116.33 403.828 1118.05 404.355C1098.03 361.447 1078.31 319.182 1058.08 275.989C1099.28 251.249 1139.47 227.193 1179.22 203.329C1159.55 161.192 1139.89 119.055 1120.11 76.6611C1119.61 78.2727 1119.09 79.985 1118.54 81.798C1109.39 111.713 1100.28 141.527 1091.22 171.469C1090.24 174.692 1088.71 176.759 1085.91 178.438C1048.51 200.815 1011.08 223.293 973.767 245.698C972.187 246.647 970.697 247.623 969.086 248.673C969.506 249.572 969.624 250.159 969.924 250.801Z" fill="white"/>
<path d="M1332.7 359.179C1352.48 401.573 1372.14 443.71 1391.93 486.104C1392.42 484.492 1392.94 482.78 1393.5 480.967C1402.58 451.254 1411.76 421.568 1420.66 391.799C1421.77 388.173 1423.45 385.932 1426.52 384.007C1504.09 337.675 1581.54 291.086 1658.96 244.598C1660.54 243.649 1662.06 242.572 1664.27 241.157C1664.35 243.494 1664.04 245.821 1663.12 248.513C1653.51 278.949 1644.36 309.524 1635.03 340.043C1675.14 315.959 1715.01 292.022 1754.99 268.011C1754.99 268.011 1754.93 267.553 1754.78 267.067C1735.42 225.572 1716.15 184.105 1696.66 142.684C1695.94 141.142 1694.04 139.9 1692.5 139.428C1665.03 130.921 1637.54 122.515 1609.95 114.081C1608.86 113.748 1607.71 113.617 1605.44 113.253C1606.91 115.906 1607.94 117.43 1608.72 119.1C1626.58 157.383 1644.41 195.766 1662.43 233.876C1663.57 236.316 1664.2 238.49 1664.37 240.855C1662.37 240.245 1661.1 239.856 1659.83 239.468C1632.88 231.228 1605.99 223.117 1579.1 214.676C1576.1 213.76 1573.8 214.157 1571 215.836C1492.82 262.863 1414.68 309.789 1336.53 356.715C1335.04 357.692 1333.67 358.595 1332.7 359.179Z" fill="white"/>
<path d="M941.848 23.9241C960.283 63.2625 978.597 102.674 996.942 141.985C997.721 143.655 998.531 145.224 999.461 147.05C1001.25 146.056 1002.83 145.107 1004.38 144.259C1041.45 122.001 1078.61 99.7693 1115.62 77.3819C1118.81 75.3837 1121.54 74.8963 1125.08 75.9783C1151.79 84.364 1178.59 92.4474 1205.36 100.632C1206.9 101.103 1208.53 101.603 1209.71 101.963C1189.99 59.6979 1170.32 17.561 1150.18 -25.6036C1110.32 -1.66615 1070.09 22.4903 1029.25 47.0116C1028.59 45.2686 1028.15 43.4803 1027.34 41.911C1009.05 2.72877 990.8 -36.5541 972.425 -75.764C971.706 -77.3056 970.683 -78.8297 969.842 -80.2983C959.68 -47.0597 949.549 -13.9218 939.387 19.3168C940.197 20.8862 941.038 22.3548 941.848 23.9241Z" fill="white"/>
<path d="M2060.32 255.298C2059.31 253.114 2056.89 250.945 2054.71 250.279C2027.73 241.81 2000.66 233.643 1973.53 225.348C1972.26 224.96 1970.96 224.672 1970.2 224.551C2009.83 309.467 2049.45 394.383 2088.9 478.914C2128.52 455.123 2168.51 431.112 2207.4 407.758C2187.92 366.007 2168.19 323.741 2148.65 281.861C2138.89 313.791 2128.88 346.526 2118.38 380.872C2117.24 377.772 2116.71 375.956 2115.93 374.286C2097.4 334.59 2078.88 294.894 2060.32 255.298Z" fill="white"/>
<path d="M754.707 954.096C755.977 954.484 757.611 954.983 759.244 955.483C786.195 963.722 813.055 971.935 840.036 980.074C843.031 980.989 844.719 982.607 846.098 985.561C864.621 1025.59 883.387 1065.47 901.819 1105.47C902.838 1107.65 902.972 1111.1 902.323 1113.55C893.328 1143.62 884.061 1173.61 874.854 1203.72C874.33 1205.44 873.807 1207.15 873.191 1209.16C913.663 1184.86 953.405 1161 992.874 1137.38C953.068 1052.08 913.382 967.033 873.935 882.502C834.526 906.248 794.662 930.186 754.707 954.096Z" fill="white"/>
<path d="M179.161 886.069C188.892 854.24 198.714 822.44 208.294 790.455C208.879 788.541 208.136 785.781 207.327 783.881C188.805 743.855 170.07 703.875 151.426 663.922C150.766 662.508 149.925 661.04 148.784 658.929C146.99 660.253 145.59 661.587 144.01 662.536C107.518 684.531 70.9664 706.397 34.4743 728.392C30.1897 731.047 26.6117 731.715 21.9238 730.171C-4.2994 721.824 -30.6766 713.98 -56.9922 705.934C-58.5348 705.463 -60.0775 704.991 -61.6202 704.519C-41.717 747.17 -22.1136 789.179 -1.9707 832.343C38.2582 808.187 78.4874 784.03 119.841 759.116C139.655 801.41 159.378 843.675 179.161 886.069Z" fill="white"/>
<path d="M483.477 870.842C503.08 912.85 522.863 955.244 542.946 998.28C543.859 997.568 545.319 996.362 546.899 995.414C583.968 973.155 621.037 950.896 658.106 928.637C659.564 927.761 661.204 926.941 662.722 926.194C672.884 892.955 683.168 859.643 693.33 826.404C691.63 827.096 689.72 827.504 688.14 828.452C651.345 850.465 614.519 872.577 577.693 894.69C576.235 895.566 574.716 896.314 572.225 897.645C582.449 864.205 592.365 831.772 602.219 799.54C562.445 823.505 522.581 847.443 483.477 870.842Z" fill="white"/>
<path d="M933.236 678.154C934.96 678.681 937.54 677.707 939.332 676.713C977.19 654.145 1014.99 631.448 1052.79 608.751C1054.12 607.948 1055.52 606.944 1056.25 606.506C1036.35 563.856 1016.56 521.462 997.081 479.71C957.582 503.429 917.839 527.293 877.853 551.304C907.163 560.265 936.655 569.281 967.054 578.575C926.339 603.023 886.505 626.86 845.516 651.555C875.765 660.693 904.409 669.56 933.236 678.154Z" fill="white"/>
<path d="M850.867 -339.923C831.172 -381.959 811.6 -424.068 791.666 -466.618C821.43 -457.518 850.921 -448.502 879.959 -439.624C860.296 -481.761 840.633 -523.898 821.54 -564.979C781.888 -541.087 741.69 -517.031 701.218 -492.729C701.728 -491.802 702.75 -490.278 703.53 -488.608C721.814 -449.426 740.099 -410.243 758.383 -371.061C759.103 -369.52 759.67 -367.804 760.358 -366.162C790.122 -357.062 819.976 -347.935 849.74 -338.835C850.105 -339.054 850.531 -339.474 850.867 -339.923Z" fill="white"/>
<path d="M2272.49 -121.268C2232.87 -97.4762 2192.64 -73.3198 2152.29 -49.0904C2152.8 -48.1634 2153.71 -46.5663 2154.48 -44.8962C2172.77 -5.714 2191.05 33.4682 2209.34 72.6504C2210.06 74.192 2210.62 75.9072 2211.31 77.5495C2241.08 86.6493 2270.93 95.7767 2300.69 104.876C2301.12 104.456 2301.46 104.008 2301.85 103.688C2282.19 61.5514 2262.59 19.5429 2242.74 -22.9794C2272.51 -13.8797 2302 -4.86321 2331.04 4.01456C2311.37 -38.1224 2291.71 -80.2593 2272.49 -121.268Z" fill="white"/>
<path d="M2361.92 232.081C2402.15 207.925 2442.26 183.842 2481.76 160.123C2462.34 118.5 2442.55 76.1061 2423.25 34.74C2383.51 58.6045 2343.4 82.688 2303.41 106.698C2322.84 148.321 2342.5 190.458 2361.92 232.081Z" fill="white"/>
<path d="M1755.37 935.343C1754.59 933.673 1753.72 931.975 1752.64 929.663C1752.03 931.347 1751.75 931.924 1751.57 932.528C1742.08 963.551 1732.51 994.546 1723.17 1025.72C1722.53 1027.84 1723 1030.85 1723.96 1032.9C1762.38 1115.58 1801.02 1198.21 1839.57 1280.81C1840.23 1282.23 1841.01 1283.57 1841.97 1285.29C1852.29 1251.55 1862.39 1218.51 1872.49 1185.48C1871.68 1183.91 1870.74 1182.41 1870.03 1180.87C1831.84 1099.04 1793.56 1017.18 1755.37 935.343Z" fill="white"/>
<path d="M211.899 455.086C251.521 431.294 291.476 407.385 330.763 383.711C311.28 341.96 291.496 299.566 271.653 257.044C271.319 257.162 270.621 257.499 269.892 257.937C231.121 281.217 192.26 304.47 153.55 327.879C151.848 328.901 150.321 331.298 149.675 333.413C140.346 363.602 131.107 393.819 121.869 424.036C121.438 425.446 121.188 426.912 120.879 428.249C121.24 428.69 121.602 429.131 121.963 429.572C161.827 405.634 201.57 381.77 241.677 357.686C231.669 390.421 221.661 423.157 211.899 455.086Z" fill="white"/>
<path d="M1781.5 827.798C1761.9 785.789 1742.12 743.396 1722.27 700.873C1722.27 700.873 1721.7 701.137 1721.09 701.502C1682.32 724.783 1643.46 748.036 1604.75 771.445C1603.05 772.467 1601.43 774.836 1600.81 776.85C1591.48 807.039 1582.25 837.257 1573.01 867.473C1572.58 868.884 1572.15 870.294 1571.71 871.704C1572.02 872.016 1572.41 872.356 1572.71 872.669C1612.48 848.704 1652.32 824.867 1692.54 800.71C1682.41 833.848 1672.44 866.483 1662.37 899.419C1702.63 875.162 1742.49 851.224 1781.5 827.798Z" fill="white"/>
<path d="M304.386 491.732C303.606 490.062 302.736 488.364 301.657 486.052C301.043 487.736 300.768 488.313 300.583 488.917C291.098 519.94 281.523 550.935 272.189 582.114C271.542 584.229 272.012 587.236 273.002 589.191C311.428 671.868 350.066 754.499 388.613 837.103C389.273 838.516 390.054 839.857 391.014 841.582C401.33 807.84 411.431 774.803 421.531 741.765C420.721 740.196 419.79 738.7 419.07 737.158C380.852 655.426 342.573 573.565 304.386 491.732Z" fill="white"/>
<path d="M450.02 970.861C449.751 970.118 449.483 969.375 449.123 968.604C429.999 927.624 410.906 886.542 391.661 845.634C390.821 843.836 388.708 842.309 386.803 841.726C359.611 833.303 332.388 824.98 305.165 816.657C303.894 816.268 302.653 816.109 301.352 815.821C300.926 816.242 300.409 816.634 299.952 817.156C319.615 859.293 339.218 901.301 358.942 943.566C329.632 934.605 300.14 925.589 271.465 916.822C291.008 958.702 310.672 1000.84 330.215 1042.72C369.593 1019.07 409.579 995.063 450.02 970.861Z" fill="white"/>
<path d="M1699.44 -184.788C1698.84 -186.073 1698.03 -187.312 1697.79 -187.826C1657.44 -163.597 1617.33 -139.513 1577.59 -115.649C1597.01 -74.0255 1616.62 -32.0171 1636.58 10.7622C1646.68 -22.275 1656.69 -55.0101 1667.1 -89.0545C1687.24 -45.8899 1706.81 -3.78072 1726.83 39.127C1727.45 37.4424 1727.79 36.6644 1728.03 35.8587C1737.52 4.83592 1747.09 -26.1591 1756.43 -57.338C1757.04 -59.3525 1756.6 -62.1305 1755.67 -63.9568C1737.06 -104.34 1718.2 -144.578 1699.44 -184.788Z" fill="white"/>
<path d="M911.454 -211.922C951.197 -235.787 991.304 -259.87 1031.29 -283.88C1011.87 -325.503 992.203 -367.64 972.78 -409.264C932.429 -385.034 892.322 -360.951 852.944 -337.305C872.427 -295.554 892.241 -253.26 911.454 -211.922Z" fill="white"/>
<path d="M1842.59 1289.12C1841.81 1287.45 1839.88 1285.98 1838.15 1285.45C1810.69 1276.94 1783.19 1268.54 1755.61 1260.1C1754.52 1259.77 1753.46 1259.66 1752.31 1259.53C1751.76 1260.03 1751.21 1260.52 1750.78 1260.94C1770.39 1302.95 1790.05 1345.09 1809.65 1387.09C1780.53 1378.19 1751.03 1369.17 1722.63 1360.49C1742.12 1402.24 1761.78 1444.38 1781.38 1486.39C1820.76 1462.74 1860.62 1438.8 1900.98 1414.57C1900.71 1413.83 1900.53 1413.11 1900.2 1412.57C1881.04 1371.36 1861.89 1330.15 1842.59 1289.12Z" fill="white"/>
<path d="M718.843 727.701C720.302 726.826 721.942 726.005 723.46 725.258C722.984 723.571 722.781 721.636 722.062 720.095C703.628 680.426 685.073 640.831 666.64 601.163C665.98 599.75 665.139 598.281 665.019 598.024C624.79 622.18 584.049 648.987 544.215 672.824C573.163 681.674 602.473 690.635 631.964 699.651C622.264 731.379 613.595 759.734 604.049 790.958C603.464 792.872 603.12 794.97 602.717 796.939C604.478 796.046 606.239 795.153 607.941 794.131C644.948 772.073 681.896 749.887 718.843 727.701Z" fill="white"/>
<path d="M787.295 193.534C785.775 194.611 784.346 195.716 782.766 196.665C745.819 218.851 708.871 241.037 671.924 263.223C670.465 264.099 669.097 265.002 666.393 266.708C697.155 276.113 726.556 285.102 755.866 294.063C755.924 294.522 756.073 295.008 756.132 295.466C716.42 319.23 676.708 342.993 636.631 366.976C637.689 367.41 638.294 367.705 638.838 367.871C666.968 376.472 695.068 385.173 723.26 393.572C725.075 394.126 727.593 393.354 729.416 392.26C767.274 369.691 805.073 346.995 842.871 324.298C844.086 323.568 845.211 322.81 847.551 321.323C816.698 311.89 787.116 302.846 757.261 293.719C758 291.301 758.554 289.488 759.109 287.675C768.101 258.264 777.062 228.954 786.054 199.542C786.548 197.601 786.861 195.604 787.295 193.534Z" fill="white"/>
<path d="M760.356 -365.832L760.296 -365.961C760.296 -365.961 760.266 -365.86 760.356 -365.832Z" fill="white"/>
<path d="M786.968 -142.927C787.687 -141.386 788.497 -139.816 789.758 -137.448C790.528 -139.967 790.959 -141.377 791.421 -142.888C800.536 -172.702 809.591 -202.644 818.887 -232.403C819.904 -235.727 819.674 -238.22 818.295 -241.175C799.529 -281.055 780.976 -320.98 762.331 -360.933C761.612 -362.475 760.954 -364.218 760.356 -365.832C730.593 -374.932 700.829 -384.032 671.065 -393.131C671.233 -390.437 672.256 -388.912 673.035 -387.242C691.26 -348.189 709.484 -309.135 727.649 -270.21C728.428 -268.539 729.026 -266.925 729.684 -265.182C730.494 -263.613 731.426 -262.116 732.205 -260.446C750.399 -221.292 768.683 -182.109 786.968 -142.927Z" fill="white"/>
<path d="M2297.44 437.818C2259.06 460.779 2220.69 483.74 2182.34 506.93C2180.39 508.098 2178.32 510.658 2177.61 512.975C2168.19 543.136 2159.05 573.381 2149.84 603.497C2149.41 604.908 2149.19 606.272 2148.51 609.148C2151.15 607.313 2152.52 606.08 2154.1 605.131C2191.05 582.945 2228 560.759 2264.94 538.573C2266.52 537.624 2268.04 536.877 2269.68 536.057C2271.17 535.08 2272.6 533.976 2274.18 533.027C2311.13 510.841 2348.2 488.582 2385.27 466.323C2386.72 465.447 2388.21 464.471 2390.19 463.202C2388.95 462.713 2388.44 462.446 2387.89 462.279C2359.76 453.679 2331.66 444.978 2303.56 436.607C2301.78 435.951 2299.17 436.696 2297.44 437.818Z" fill="white"/>
<path d="M2269.77 536.085C2269.65 536.158 2269.68 536.057 2269.77 536.085C2269.65 536.158 2269.65 536.158 2269.65 536.158L2269.77 536.085Z" fill="white"/>
<path d="M1092.86 -152.606C1112.22 -111.111 1131.5 -69.6441 1150.98 -28.2225C1151.7 -26.6809 1153.6 -25.4385 1155.15 -24.9669C1182.79 -16.4045 1210.47 -7.9428 1238.15 0.518822C1239.05 0.796252 1240.14 0.799212 1242.14 1.07965C1240.73 -1.44444 1239.71 -2.96851 1238.93 -4.63857C1220.76 -43.5638 1202.69 -82.4614 1184.4 -121.314C1182.64 -124.939 1182.59 -128.036 1183.82 -132.065C1193.03 -161.521 1201.96 -191.061 1211.01 -220.674C1211.57 -222.487 1212.09 -224.199 1212.61 -225.911C1172.51 -201.828 1132.76 -177.963 1092.53 -153.807C1092.65 -153.55 1092.68 -152.991 1092.86 -152.606Z" fill="white"/>
<path d="M2084.86 1140.6C2074.66 1173.94 2064.69 1206.57 2054.71 1239.21C2094.82 1215.12 2134.68 1191.18 2174.06 1167.54C2154.51 1125.66 2134.79 1083.39 2115.31 1041.64C2075.81 1065.36 2035.94 1089.3 1995.84 1113.38C2025.33 1122.4 2055 1131.47 2084.86 1140.6Z" fill="white"/>
<path d="M1368.18 254.821C1405.24 232.562 1442.31 210.304 1479.41 187.944C1482.21 186.265 1484.57 185.997 1487.48 186.885C1514.4 195.225 1541.26 203.437 1568.21 211.677C1569.84 212.176 1571.38 212.648 1572.84 213.091C1553.05 170.698 1533.45 128.689 1513.67 86.2954C1513.42 86.4414 1512.75 86.6778 1512.03 87.1157C1473.26 110.396 1434.39 133.649 1395.65 157.159C1393.95 158.181 1392.42 160.578 1391.78 162.693C1384.91 184.494 1378.35 206.278 1371.67 228.135C1368.71 237.805 1365.76 247.474 1362.77 257.244C1363.04 257.657 1363.43 257.998 1363.7 258.411C1365.23 257.004 1366.63 255.669 1368.18 254.821Z" fill="white"/>
<path d="M940.332 1005.78C938.874 1006.66 937.385 1007.63 935.257 1009.07C936.587 1009.59 937.283 1009.91 938.009 1010.14C965.957 1018.68 993.876 1027.33 1021.98 1035.7C1023.79 1036.25 1026.37 1035.61 1028.1 1034.49C1066.2 1011.77 1104.28 988.829 1142.41 966.014C1143.62 965.284 1144.78 964.426 1144.81 964.325C1124.97 921.803 1105.3 879.666 1085.88 838.043C1085.6 838.95 1085.05 840.763 1084.46 842.676C1075.32 872.591 1066.29 902.433 1056.96 932.292C1056.23 934.709 1054.09 937.471 1052.03 938.712C1014.8 961.145 977.614 983.476 940.332 1005.78Z" fill="white"/>
<path d="M1065.35 -378.097C1083.7 -338.787 1102.13 -299.448 1120.45 -260.037C1121.17 -258.495 1121.82 -256.752 1122.42 -255.138C1152.19 -246.038 1181.95 -236.938 1211.71 -227.838C1211.61 -230.405 1210.76 -231.873 1210.01 -233.314C1191.79 -272.368 1173.57 -311.422 1155.31 -350.375C1153.66 -353.743 1153.37 -356.694 1154.57 -360.622C1163.84 -390.28 1172.83 -420.021 1181.92 -449.735C1182.44 -451.447 1182.99 -453.26 1183.43 -454.67C1143.32 -430.587 1103.45 -406.649 1062.98 -382.347C1063.61 -381.163 1064.67 -379.74 1065.35 -378.097Z" fill="white"/>
<path d="M1148.3 633.877C1149.79 632.901 1151.22 631.796 1152.68 630.92C1190.6 608.15 1228.52 585.38 1266.41 562.381C1268.35 561.214 1270.33 558.626 1271.13 556.337C1280.55 526.175 1289.7 495.931 1298.94 465.714C1299.37 464.304 1299.59 462.939 1299.77 462.334C1219.68 510.428 1139.59 558.522 1059.37 606.689C1088.86 615.706 1118.53 624.778 1148.3 633.877Z" fill="white"/>
<path d="M1148.3 633.877C1148.21 633.85 1148.18 633.95 1148.18 633.95L1148.3 633.877Z" fill="white"/>
<path d="M367.388 -378.37C406.766 -402.015 446.874 -426.099 485.887 -449.526C466.524 -491.02 446.86 -533.157 427.317 -575.037C417.493 -542.906 407.454 -510.071 397.292 -476.832C367.347 -485.987 337.856 -495.004 308.909 -503.854C328.481 -461.744 348.235 -419.58 367.388 -378.37Z" fill="white"/>
<path d="M461.028 -677.512C459.848 -677.872 458.179 -677.281 457.085 -676.625C417.981 -653.226 378.846 -629.726 339.802 -606.199C338.465 -605.396 337.032 -603.631 336.539 -602.019C326.687 -570.118 316.956 -538.289 307.441 -507.166C387.412 -555.187 467.505 -603.281 547.355 -651.229C519.043 -659.885 490.096 -668.735 461.028 -677.512Z" fill="white"/>
<path d="M2180.61 178.63C2180.55 178.502 2180.64 178.53 2180.61 178.63C2180.55 178.502 2180.55 178.502 2180.55 178.502L2180.61 178.63Z" fill="white"/>
<path d="M2121.2 51.6503C2122.1 53.2474 2123.12 54.7715 2123.9 56.4416C2142.12 95.4953 2160.35 134.549 2178.51 173.474C2179.29 175.144 2179.89 176.759 2180.55 178.502C2181.36 180.071 2182.29 181.568 2183.07 183.238C2201.35 222.42 2219.64 261.602 2237.92 300.784C2238.64 302.326 2239.45 303.895 2240.71 306.263C2241.48 303.745 2241.91 302.335 2242.38 300.824C2251.49 271.01 2260.55 241.067 2269.84 211.309C2270.86 207.985 2270.63 205.492 2269.25 202.537C2250.48 162.657 2231.93 122.732 2213.29 82.7787C2212.57 81.2371 2211.91 79.494 2211.31 77.8794C2181.55 68.7797 2151.78 59.68 2122.02 50.5803C2121.75 50.827 2121.5 51.3029 2121.2 51.6503Z" fill="white"/>
<path d="M2211.34 77.7787C2211.34 77.7787 2211.37 77.678 2211.28 77.6503C2211.28 77.6503 2211.25 77.751 2211.34 77.7787Z" fill="white"/>
<path d="M1934.1 984.26L1934.04 984.131C1934.13 984.159 1934.1 984.26 1934.1 984.26Z" fill="white"/>
<path d="M1872.55 1185.61C1872.46 1185.58 1872.49 1185.48 1872.55 1185.61C1872.64 1185.63 1872.64 1185.63 1872.55 1185.61C1872.58 1185.5 1872.58 1185.5 1872.55 1185.61Z" fill="white"/>
<path d="M1844.05 958.159C1844.95 959.756 1845.97 961.28 1846.75 962.95C1865.1 1002.26 1883.53 1041.6 1901.75 1080.98C1902.65 1082.91 1903 1085.99 1902.35 1088.11C1892.59 1120.69 1882.58 1153.1 1872.64 1185.63C1902.4 1194.73 1932.16 1203.83 1963.47 1213.4C1943.39 1170.37 1923.96 1128.74 1904.06 1086.09C1934.01 1095.25 1963.32 1104.21 1992.54 1113.14C1992.34 1110.55 1991.31 1109.03 1990.54 1107.36C1972.25 1068.17 1953.97 1028.99 1935.68 989.808C1934.9 988.138 1934.61 986.176 1934.1 984.26C1904.34 975.16 1874.58 966.06 1844.81 956.961C1844.6 957.336 1844.35 957.812 1844.05 958.159Z" fill="white"/>
<path d="M692.673 1153.75C731.687 1130.33 771.399 1106.56 810.96 1082.64C812.297 1081.84 813.397 1079.86 813.89 1078.25C817.46 1066.9 820.971 1055.42 824.451 1044.03C830.64 1023.79 836.861 1003.44 843.05 983.198C842.749 982.885 842.478 982.472 842.177 982.16C840.657 983.237 839.228 984.342 837.738 985.318C800.67 1007.58 763.601 1029.84 726.501 1052.2C723.705 1053.87 721.401 1054.27 718.407 1053.36C691.396 1044.99 664.354 1036.72 637.222 1028.43C635.679 1027.95 634.228 1027.51 633.592 1027.32C653.287 1069.35 672.95 1111.49 692.673 1153.75Z" fill="white"/>
<path d="M1151.11 300.467C1150.49 302.481 1151.02 305.287 1151.86 307.086C1170.5 347.369 1189.36 387.606 1208.09 427.917C1208.69 429.202 1209.41 430.413 1210.13 431.625C1210.02 431.038 1209.96 430.58 1209.84 429.993C1249.61 406.028 1289.45 382.191 1328.82 358.545C1302.05 350.361 1274.41 341.799 1246.76 333.566C1241.95 332.096 1239.18 329.486 1237.05 324.76C1218.53 284.734 1199.88 244.781 1180.76 203.8C1180.11 205.586 1179.78 206.364 1179.53 207.17C1170.02 238.293 1160.41 269.389 1151.11 300.467Z" fill="white"/>
<path d="M1874.22 855.592C1884.35 822.454 1894.39 789.619 1904.33 757.085C1864.35 781.095 1824.48 805.033 1785.59 828.386C1805.19 870.395 1824.98 912.789 1844.1 953.77C1883.24 930.27 1923.1 906.332 1962.6 882.614C1933.74 873.792 1904.16 864.747 1874.22 855.592Z" fill="white"/>
<path d="M393.023 510.461C432.28 486.888 472.144 462.951 511.765 439.159C482.818 430.309 453.236 421.265 423.109 412.054C433.271 378.816 443.341 345.879 453.349 313.144C413.242 337.228 373.499 361.092 334.364 384.592C354.056 426.958 373.87 469.251 393.023 510.461Z" fill="white"/>
<path d="M1329.66 689.436C1329.79 689.363 1329.75 689.464 1329.66 689.436C1329.79 689.363 1329.79 689.363 1329.79 689.363L1329.66 689.436Z" fill="white"/>
<path d="M1295.85 789.015C1297.66 789.57 1300.18 788.798 1301.97 787.804C1340.35 764.843 1378.72 741.882 1417.07 718.691C1419.01 717.524 1420.99 714.936 1421.79 712.647C1431.21 682.485 1440.36 652.241 1449.57 622.124C1450 620.714 1450.22 619.349 1450.9 616.474C1448.25 618.308 1446.88 619.542 1445.3 620.49C1408.36 642.676 1371.41 664.862 1334.46 687.048C1332.88 687.997 1331.36 688.744 1329.72 689.565C1328.23 690.541 1326.81 691.646 1325.23 692.595C1288.16 714.854 1251.09 737.113 1214.02 759.372C1212.56 760.247 1211.07 761.224 1209.1 762.492C1210.33 762.981 1210.85 763.249 1211.39 763.415C1239.65 771.943 1267.74 780.643 1295.85 789.015Z" fill="white"/>
<path d="M2025.51 683.664C1986.13 707.309 1946.14 731.32 1906.77 754.965C1926.49 797.231 1946.09 839.239 1965.7 881.248C1975.55 849.016 1985.59 816.181 1995.81 782.741C2025.85 791.923 2055.43 800.968 2084.29 809.79C2064.78 767.809 2045.11 725.672 2025.51 683.664Z" fill="white"/>
<path d="M1912.65 -233.707C1911.11 -234.178 1908.92 -233.525 1907.34 -232.576C1868.63 -209.497 1829.98 -186.289 1791.39 -162.953C1789.69 -161.931 1787.93 -159.718 1787.28 -157.603C1777.7 -126.938 1768.4 -96.1895 1759.01 -65.4689C1758.7 -64.4617 1758.67 -63.3712 1758.39 -62.1348C1838.85 -110.448 1918.82 -158.469 1999.28 -206.782C1998.61 -207.205 1998.22 -207.545 1997.86 -207.656C1969.48 -216.44 1941.08 -225.124 1912.65 -233.707Z" fill="white"/>
<path d="M1817.83 65.4044C1857.57 41.5399 1897.8 17.3835 1936.6 -5.99794C1917.24 -47.4925 1897.63 -89.5009 1878.21 -131.124C1868.51 -99.3962 1858.5 -66.6611 1848.22 -33.0196C1818.09 -42.2303 1788.51 -51.2745 1759.2 -60.2355C1778.98 -17.8416 1798.58 24.1668 1817.83 65.4044Z" fill="white"/>
<path d="M421.561 741.995L421.501 741.866C421.561 741.995 421.561 741.995 421.561 741.995C421.62 742.123 421.62 742.123 421.561 741.995C421.651 742.022 421.651 742.022 421.561 741.995C421.591 741.894 421.591 741.894 421.561 741.995Z" fill="white"/>
<path d="M393.063 514.548C393.964 516.145 394.987 517.669 395.766 519.339C414.11 558.65 432.545 597.988 450.768 637.372C451.668 639.299 452.016 642.379 451.369 644.495C441.604 677.084 431.598 709.489 421.651 742.022C451.415 751.122 481.179 760.222 512.485 769.793C492.402 726.757 472.102 688.003 452.198 645.352C482.144 654.507 511.454 663.468 540.673 672.401C540.474 669.807 540.329 665.414 539.549 663.744C521.265 624.562 502.98 585.38 484.696 546.198C483.917 544.528 483.624 542.566 483.118 540.649C453.354 531.549 423.59 522.449 393.827 513.35C393.613 513.725 393.368 514.201 393.063 514.548Z" fill="white"/>
<path d="M483.058 540.52L483.118 540.649C483.118 540.649 483.118 540.649 483.209 540.677L483.058 540.52Z" fill="white"/>
<path d="M515.137 437.216C524.899 405.287 534.938 372.451 545.1 339.213C575.046 348.368 604.537 357.384 633.847 366.345C614.124 324.08 594.461 281.943 575.277 240.834C535.534 264.699 495.427 288.782 456.656 312.063C475.96 353.429 495.654 395.465 515.137 437.216Z" fill="white"/>
<path d="M965.075 -78.0113C966.534 -78.8871 968.143 -79.6066 969.692 -80.4546C968.363 -81.3014 967.005 -82.3773 965.554 -82.8212C938.906 -91.0784 912.106 -99.1619 885.427 -107.318C883.794 -107.818 882.251 -108.289 880.255 -108.9C880.963 -111.216 881.517 -113.029 882.071 -114.842C891.094 -144.354 900.086 -173.766 909.109 -203.277C909.694 -205.191 910.038 -207.289 910.441 -209.258C908.921 -208.181 907.492 -207.076 905.912 -206.127C869.086 -184.014 832.26 -161.901 795.525 -139.76C794.066 -138.885 792.546 -137.807 790.085 -136.247C820.393 -126.981 849.703 -118.02 879.376 -108.948C869.122 -75.4071 859.021 -42.3699 848.952 -9.43345C850.712 -9.9968 852.501 -10.3309 854.081 -11.2796C891.059 -33.5663 928.097 -55.7246 965.075 -78.0113Z" fill="white"/>
<path d="M969.783 -80.4269C969.752 -80.3262 969.752 -80.3262 969.752 -80.3262C969.842 -80.2985 969.873 -80.3992 969.783 -80.4269C969.783 -80.4269 969.692 -80.4546 969.661 -80.3539C969.661 -80.3539 969.752 -80.3262 969.783 -80.4269Z" fill="white"/>
<path d="M848.921 -9.33271C848.952 -9.43344 848.982 -9.53414 848.982 -9.53414C848.982 -9.53414 848.892 -9.56188 848.861 -9.46115L848.921 -9.33271C848.861 -9.46114 848.892 -9.56183 848.892 -9.56183C848.861 -9.4611 848.83 -9.3604 848.921 -9.33271Z" fill="white"/>
<path d="M844.821 315.973C845.6 317.643 846.532 319.139 848.003 321.792C858.38 287.848 868.327 255.314 878.52 221.975C898.363 264.497 917.787 306.12 937.539 348.615C947.917 314.671 957.986 281.735 968.087 248.697C966.938 248.236 966.031 247.959 965.123 247.681C907.229 229.981 849.244 212.253 791.35 194.553C789.988 194.137 788.626 194.051 787.234 193.735C788.254 195.589 789.366 197.471 790.265 199.398C808.491 238.122 826.656 277.047 844.821 315.973Z" fill="white"/>
<path d="M967.997 -86.9202C968.776 -85.2501 969.708 -83.7538 971.179 -81.1013C981.557 -115.045 991.503 -147.579 1001.7 -180.918C1021.54 -138.396 1040.96 -96.7725 1060.75 -54.3787C1071.12 -88.3224 1081.19 -121.259 1091.36 -154.498C1090.18 -154.858 1089.27 -155.136 1088.36 -155.413C1030.47 -173.113 972.482 -190.841 914.588 -208.541C913.227 -208.957 911.864 -209.043 910.472 -209.359C911.493 -207.505 912.604 -205.623 913.504 -203.696C931.668 -164.771 949.833 -125.845 967.997 -86.9202Z" fill="white"/>
<path d="M513.857 1097.32C551.715 1074.75 589.513 1052.06 627.221 1029.33C628.436 1028.6 629.591 1027.74 631.445 1026.55C628.905 1025.77 627.362 1025.3 625.729 1024.8C599.867 1016.89 573.974 1009.09 548.265 1001.01C543.909 999.676 540.516 999.74 535.988 1002.54C499.494 1024.87 462.761 1046.68 426.147 1068.74C424.567 1069.69 422.838 1070.16 420.106 1071.3C421.918 1072.52 422.159 1072.7 422.431 1072.78C450.834 1081.47 479.206 1090.25 507.67 1098.73C509.485 1099.29 512.125 1098.44 513.857 1097.32Z" fill="white"/>
<path d="M1181.86 200.834C1221.36 177.116 1261.23 153.178 1300.85 129.387C1281.49 87.8921 1261.88 45.8837 1242.16 3.61829C1221.96 69.6927 1201.76 135.767 1181.86 200.834Z" fill="white"/>
<path d="M1118.98 407.171C1079.48 430.889 1039.62 454.827 1000.6 478.254C1058.86 496.065 1118.3 514.236 1177.37 532.297C1157.8 490.188 1138.1 448.152 1118.98 407.171Z" fill="white"/>
<path d="M2338.56 1.79921C2337.1 2.67497 2335.73 3.57836 2333.51 4.99273C2363.46 14.1479 2392.41 22.998 2421.29 31.7196C2422.84 32.1912 2424.99 31.3083 2426.57 30.3595C2464.58 7.61745 2502.5 -15.1525 2540.42 -37.9223C2541.64 -38.6521 2542.7 -39.5381 2544.47 -40.7612C2513.98 -50.0829 2484.3 -59.1549 2454.72 -68.1991C2453.11 -67.1497 2451.47 -65.9994 2449.86 -64.9499C2412.7 -42.7187 2375.63 -20.4597 2338.56 1.79921Z" fill="white"/>
<path d="M786.501 853.348C844.849 871.186 904.286 889.358 963.36 907.419C943.757 865.41 924.093 823.273 904.909 782.164C865.348 806.084 825.514 829.921 786.501 853.348Z" fill="white"/>
<path d="M2092.45 807.439C2090.99 808.315 2089.5 809.291 2087.16 810.778C2089.52 811.5 2090.97 811.944 2092.42 812.388C2119.19 820.572 2145.96 828.756 2172.7 837.041C2175.61 837.928 2177.97 837.66 2180.76 835.982C2218.23 813.403 2255.78 790.852 2293.25 768.273C2294.59 767.471 2295.95 766.567 2298.17 765.153C2267.5 755.776 2237.83 746.704 2208.06 737.604C2206.57 738.58 2205.14 739.685 2203.69 740.561C2166.62 762.82 2129.52 785.18 2092.45 807.439Z" fill="white"/>
<path d="M1989.77 1444.8C1951.64 1467.62 1913.59 1490.46 1875.43 1513.38C1874.34 1514.03 1873.43 1514.75 1871.78 1515.9C1874.05 1516.59 1875.59 1517.06 1877.05 1517.51C1903.63 1525.63 1930.34 1533.69 1956.87 1542.02C1959.96 1542.96 1962.41 1542.72 1965.42 1541C2002.76 1518.49 2040.1 1495.99 2077.51 1473.61C2078.96 1472.73 2080.48 1472.32 2081.97 1471.67C2081.82 1471.18 2081.67 1470.7 2081.52 1470.21C2081.1 1469.97 2080.77 1469.76 2080.31 1469.62C2052 1460.97 2023.81 1452.24 1995.44 1443.78C1993.83 1443.18 1991.47 1443.78 1989.77 1444.8Z" fill="white"/>
<path d="M755.316 624.309C775.039 666.574 794.432 708.298 813.886 749.82C814.665 751.49 816.78 752.687 818.504 753.214C845.515 761.583 872.647 769.878 899.689 778.145C900.959 778.534 902.32 778.95 904.589 779.643C884.626 736.864 865.233 695.14 845.778 653.618C845.059 652.076 843.157 650.834 841.614 650.362C814.15 641.855 786.564 633.421 759.069 625.015C757.98 624.682 756.889 624.679 755.316 624.309Z" fill="white"/>
<path d="M873.554 544.593C874.273 546.134 875.114 547.603 876.104 549.558C896.521 482.778 916.691 416.804 937.046 350.226C935.771 350.828 935.072 351.165 934.465 351.53C896.09 374.491 857.775 397.58 819.46 420.67C818.366 421.327 817.633 422.424 816.659 423.338C817.469 424.908 818.401 426.404 819.12 427.946C837.316 466.77 855.48 505.695 873.554 544.593Z" fill="white"/>
<path d="M816.69 423.237L816.63 423.109C816.599 423.21 816.569 423.31 816.569 423.31C816.569 423.31 816.659 423.338 816.69 423.237C816.659 423.338 816.659 423.338 816.69 423.237Z" fill="white"/>
<path d="M2146.63 938.877L2146.75 938.804C2146.75 938.804 2146.75 938.804 2146.63 938.877Z" fill="white"/>
<path d="M2171.52 842.188C2134.46 864.447 2097.39 886.706 2060.32 908.965C2058.86 909.84 2057.25 910.56 2055.7 911.408C2045.6 944.445 2035.5 977.482 2025.4 1010.52C2025.7 1010.83 2026.09 1011.17 2026.43 1011.38C2027.95 1010.31 2029.31 1009.07 2030.89 1008.12C2067.75 985.911 2104.67 963.826 2141.62 941.64C2143.32 940.618 2144.96 939.798 2146.63 938.877C2156.7 905.94 2166.77 873.004 2177.18 838.959C2174.65 840.391 2173.1 841.239 2171.52 842.188Z" fill="white"/>
<path d="M723.551 725.286L723.611 725.414C723.641 725.313 723.672 725.213 723.703 725.112C723.672 725.213 723.551 725.286 723.551 725.286Z" fill="white"/>
<path d="M696.004 830.967C714.199 869.791 732.273 908.689 750.468 947.513C751.188 949.055 751.938 950.496 753.108 952.836C763.27 919.597 773.062 887.567 782.764 855.51C783.318 853.697 782.513 851.137 781.674 849.339C766.897 817.507 752.09 785.776 737.282 754.045C732.786 744.41 728.168 734.848 723.641 725.313C713.635 757.719 703.688 790.252 693.773 822.685C693.434 823.793 693.67 824.967 693.695 826.186L693.635 826.057C693.604 826.158 693.604 826.158 693.573 826.259L693.695 826.186C694.383 827.828 695.315 829.324 696.004 830.967Z" fill="white"/>
<path d="M663.791 259.965C664.51 261.507 665.32 263.076 666.55 265.545C667.351 262.926 667.844 261.315 668.336 259.703C677.42 229.99 686.505 200.276 695.68 170.591C696.665 167.368 696.557 164.801 695.178 161.847C676.623 122.251 658.099 82.5551 639.544 42.9598C638.884 41.5467 638.134 40.1058 636.964 37.7657C626.556 71.8101 616.486 104.747 606.386 137.784C607.196 139.353 608.127 140.85 608.847 142.391C627.222 181.601 645.506 220.783 663.791 259.965Z" fill="white"/>
<path d="M2146.67 614.202C2147.65 610.978 2147.54 608.412 2146.16 605.457C2127.61 565.862 2109.08 526.166 2090.53 486.571C2089.87 485.158 2089.12 483.717 2087.95 481.377C2077.54 515.421 2067.47 548.357 2057.37 581.395C2058.18 582.964 2059.11 584.46 2059.83 586.002C2078.12 625.184 2096.4 664.366 2114.78 703.576C2115.5 705.118 2116.31 706.687 2117.54 709.156C2118.34 706.537 2118.83 704.925 2119.32 703.314C2128.41 673.601 2137.49 643.887 2146.67 614.202Z" fill="white"/>
<path d="M635.605 37.0197C575.986 18.7925 516.459 0.593062 457.929 -17.3012C477.413 24.4504 497.076 66.5873 516.619 108.467C555.876 84.8947 595.619 61.0302 635.605 37.0197Z" fill="white"/>
<path d="M636.215 -299.265C636.935 -297.723 637.836 -296.126 638.915 -293.814C639.467 -295.297 639.804 -296.075 640.02 -296.78C649.504 -327.803 659.111 -358.899 668.414 -389.977C669.06 -392.092 668.469 -395.026 667.51 -397.082C649.107 -436.851 630.552 -476.446 612.119 -516.114C611.459 -517.528 610.709 -518.968 609.539 -521.309C608.769 -518.79 608.277 -517.179 607.784 -515.567C601.317 -494.415 594.85 -473.264 588.384 -452.112C585.212 -441.737 582.221 -431.307 579.14 -420.905C579.981 -419.436 580.913 -417.94 581.632 -416.398C599.766 -377.372 617.991 -338.319 636.215 -299.265Z" fill="white"/>
<path d="M210.697 788.436C230.001 829.802 249.695 871.839 269.328 914.076C289.59 847.8 309.761 781.826 329.561 717.061C290.183 740.707 250.319 764.644 210.697 788.436Z" fill="white"/>
<path d="M576.289 -426.182C558.004 -465.365 539.72 -504.547 521.344 -543.757C520.625 -545.298 519.875 -546.739 518.705 -549.079C508.543 -515.841 498.72 -483.71 489.018 -451.652C488.494 -449.94 489.18 -447.638 489.959 -445.968C508.632 -405.786 527.336 -365.704 546.04 -325.623C546.64 -324.338 547.392 -323.227 548.413 -321.373C558.76 -355.216 568.829 -388.153 578.868 -420.988C578.029 -422.787 577.037 -424.412 576.289 -426.182Z" fill="white"/>
<path d="M1908.31 426.015C1927.97 468.152 1947.55 510.261 1967.06 551.912C2006.56 528.193 2046.42 504.256 2086.17 480.391C2026.91 462.275 1967.48 444.103 1908.31 426.015Z" fill="white"/>
<path d="M511.837 -221.536C513.107 -221.148 514.469 -220.732 516.737 -220.038C496.805 -262.918 477.381 -304.541 457.836 -346.091C457.117 -347.633 455.215 -348.875 453.672 -349.347C426.207 -357.854 398.621 -366.288 371.126 -374.694C370.037 -375.027 368.978 -375.13 367.373 -375.401C387.097 -333.135 406.489 -291.412 425.944 -249.889C426.723 -248.219 428.838 -247.022 430.562 -246.495C457.663 -238.099 484.795 -229.804 511.837 -221.536Z" fill="white"/>
<path d="M2087.2 144.346C2087.92 145.887 2088.73 147.457 2089.9 149.797C2090.45 148.314 2090.79 147.536 2091.01 146.831C2100.49 115.808 2110.1 84.7122 2119.4 53.634C2120.05 51.5188 2119.45 48.5846 2118.5 46.5291C2100.09 6.76006 2081.54 -32.8352 2063.1 -72.5035C2062.44 -73.9167 2061.69 -75.3575 2060.52 -77.6976C2059.75 -75.1795 2059.26 -73.568 2058.77 -71.9564C2052.21 -50.5024 2045.62 -28.9476 2039.06 -7.49357C2035.98 2.57875 2033.08 12.7065 2030.13 22.7058C2030.97 24.1744 2031.9 25.6708 2032.62 27.2124C2050.75 66.2383 2068.98 105.292 2087.2 144.346Z" fill="white"/>
<path d="M453.421 -18.4592C433.938 -60.2107 414.275 -102.348 394.911 -143.842C375.11 -79.0771 354.971 -13.2042 334.801 52.7695C374.908 28.6861 414.651 4.82147 453.421 -18.4592Z" fill="white"/>
<path d="M389.568 181.634C390.566 181.939 391.564 182.244 393.56 182.854C373.628 139.974 354.204 98.3515 334.659 56.8014C333.94 55.2598 332.038 54.0173 330.495 53.5457C303.031 45.0388 275.445 36.605 247.949 28.1988C246.86 27.8659 245.801 27.7622 244.196 27.492C263.92 69.7574 283.312 111.481 302.767 153.003C303.486 154.545 305.388 155.788 306.931 156.259C334.486 164.794 362.072 173.228 389.568 181.634Z" fill="white"/>
<path d="M59.5663 629.119C99.309 605.255 139.173 581.317 178.551 557.671C159.128 516.048 139.465 473.911 119.861 431.903C99.8143 497.474 79.6441 563.448 59.5663 629.119Z" fill="white"/>
<path d="M1661.71 1231.95C1681.08 1273.44 1700.68 1315.45 1720.4 1357.71C1740.64 1291.54 1760.84 1225.47 1780.7 1160.5C1741.2 1184.22 1701.33 1208.15 1661.71 1231.95Z" fill="white"/>
<path d="M1972.33 -100.146C1971.61 -101.687 1970.86 -103.128 1969.69 -105.468C1959.53 -72.2298 1949.71 -40.099 1940 -8.04134C1939.48 -6.32905 1940.17 -4.02697 1940.94 -2.35691C1959.62 37.8253 1978.32 77.9067 1997.03 117.988C1997.63 119.273 1998.38 120.384 1999.4 122.238C2009.75 88.3949 2019.81 55.4583 2029.85 22.6226C2028.98 20.9248 2028.02 19.1992 2027.15 17.5014C2008.9 -21.7815 1990.61 -60.9636 1972.33 -100.146Z" fill="white"/>
<path d="M1908.85 97.4188C1908.25 96.1341 1906.74 94.902 1905.47 94.5135C1876.74 85.6183 1848.06 76.8514 1818.3 67.7517C1819.11 69.651 1819.44 70.5226 1819.77 71.3941C1838.71 111.989 1857.56 152.557 1876.63 193.079C1877.53 195.006 1879.79 196.69 1881.79 197.3C1908.77 205.769 1935.93 213.963 1962.97 222.231C1964.24 222.619 1965.51 223.008 1967.06 223.479C1967.06 222.489 1967.06 222.16 1966.94 221.903C1947.61 180.307 1928.25 138.813 1908.85 97.4188Z" fill="white"/>
<path d="M1786.06 496.134C1825.8 472.269 1865.67 448.332 1904.32 425.124C1884.83 383.372 1865.17 341.236 1845.99 300.126C1826.25 364.69 1806.08 430.664 1786.06 496.134Z" fill="white"/>
<path d="M1843.71 624.667C1824.34 583.172 1805.07 541.705 1785.59 500.284C1785.05 499.128 1783.84 497.878 1782.66 497.517C1753.83 488.594 1724.98 479.772 1695.03 470.617C1695.84 472.516 1696.17 473.388 1696.59 474.287C1715.53 514.882 1734.39 555.45 1753.45 595.972C1754.35 597.899 1756.65 599.482 1758.61 600.193C1785.59 608.662 1812.75 616.856 1839.8 625.124C1841.07 625.512 1842.34 625.9 1843.88 626.372C1843.82 625.254 1843.83 624.924 1843.71 624.667Z" fill="white"/>
<path d="M1510.55 1072.4C1550.3 1048.54 1590.16 1024.6 1629.17 1001.17C1609.81 959.677 1590.15 917.54 1570.66 875.788C1550.68 941.158 1530.54 1007.03 1510.55 1072.4Z" fill="white"/>
<path d="M1814.85 67.0275C1756.41 49.161 1696.97 30.9893 1638.54 13.1228C1657.96 54.7458 1677.68 97.0112 1696.75 137.863C1735.97 114.392 1775.75 90.4263 1814.85 67.0275Z" fill="white"/>
<path d="M1604.72 441.134C1643.98 417.561 1683.72 393.697 1723.71 369.686C1664 351.431 1604.47 333.232 1546.12 315.393C1565.52 357.117 1585.18 399.254 1604.72 441.134Z" fill="white"/>
<path d="M1691.4 469.837C1633.24 452.054 1573.8 433.882 1514.72 415.821C1534.39 457.958 1553.99 499.967 1573.12 540.948C1612.52 517.201 1652.42 493.163 1691.4 469.837Z" fill="white"/>
<path d="M1327.01 1021.68C1287.51 1045.4 1247.65 1069.34 1208.03 1093.13C1227.39 1134.63 1246.99 1176.63 1266.72 1218.9C1286.92 1152.82 1307.12 1086.75 1327.01 1021.68Z" fill="white"/>
<path d="M1326.64 1018.37C1306.97 976.237 1287.37 934.228 1268.13 892.991C1228.26 916.928 1188.52 940.792 1149.51 964.219C1207.85 982.058 1267.38 1000.26 1326.64 1018.37Z" fill="white"/>
<path d="M1515.17 82.0198C1535.03 17.0533 1555.17 -48.8197 1575.04 -113.786C1535.54 -90.0676 1495.67 -66.1301 1456.9 -42.8494C1476.26 -1.35483 1495.87 40.6537 1515.17 82.0198Z" fill="white"/>
<path d="M1173.72 1193.66C1175.18 1192.78 1176.43 1190.63 1176.96 1188.92C1186.38 1158.43 1195.74 1127.81 1205.07 1097.29C1205.44 1096.08 1205.6 1094.92 1205.94 1093.15C1165.95 1117.16 1126.48 1140.78 1087.2 1164.45C1085.74 1165.33 1084.48 1167.48 1083.96 1169.19C1074.54 1199.68 1065.18 1230.3 1055.85 1260.82C1055.51 1261.93 1055.17 1263.04 1054.49 1265.25C1094.93 1241.05 1134.4 1217.43 1173.72 1193.66Z" fill="white"/>
<path d="M1514.19 -245.499C1494.83 -286.994 1475.17 -329.13 1455.68 -370.882C1435.73 -305.613 1415.56 -239.64 1395.57 -174.27C1435.32 -198.135 1475.18 -222.072 1514.19 -245.499Z" fill="white"/>
<path d="M1390.83 157.998C1371.35 116.247 1351.69 74.1097 1332.26 32.4867C1312.46 97.2517 1292.29 163.225 1272.12 229.199C1312.2 205.216 1351.97 181.251 1390.83 157.998Z" fill="white"/>
<path d="M1238.99 1319.02C1276.72 1296.52 1314.31 1273.87 1351.99 1251.25C1353.2 1250.52 1354.45 1249.69 1356.67 1248.27C1326.72 1239.12 1297.86 1230.29 1268.98 1221.57C1267.43 1221.1 1265.28 1221.98 1263.73 1222.83C1225.6 1245.65 1187.56 1268.49 1149.39 1291.4C1148.42 1291.99 1147.48 1292.8 1145.93 1293.98C1175.51 1303.02 1204.37 1311.85 1233.25 1320.57C1234.89 1321.07 1237.29 1320.04 1238.99 1319.02Z" fill="white"/>
<path d="M1423.15 -273.554C1403.61 -315.434 1383.94 -357.571 1364.82 -398.552C1325.56 -374.979 1285.82 -351.115 1246.56 -327.542C1305.09 -309.648 1364.53 -291.476 1423.15 -273.554Z" fill="white"/>
<path d="M2419.59 361.834C2390.65 352.984 2360.97 343.912 2331.3 334.84C2321.2 367.877 2311.1 400.914 2301.34 432.843C2340.72 409.198 2380.34 385.406 2419.59 361.834Z" fill="white"/>
<path d="M2358 563.28C2329.06 554.43 2299.38 545.358 2269.71 536.286C2259.61 569.323 2249.51 602.36 2239.75 634.29C2279.13 610.644 2318.75 586.853 2358 563.28Z" fill="white"/>
<path d="M2269.77 536.085L2269.65 536.158L2269.74 536.185C2269.74 536.185 2269.74 536.185 2269.77 536.085Z" fill="white"/>
<path d="M2331.24 334.711C2331.21 334.812 2331.21 334.812 2331.24 334.711C2331.33 334.739 2331.33 334.739 2331.24 334.711C2331.27 334.611 2331.27 334.611 2331.24 334.711C2331.15 334.684 2331.15 334.684 2331.24 334.711Z" fill="white"/>
<path d="M2242.89 307.589C2271.83 316.439 2301.51 325.511 2331.18 334.583C2341.28 301.545 2351.38 268.508 2361.14 236.579C2321.76 260.225 2282.14 284.016 2242.89 307.589Z" fill="white"/>
<path d="M2119.98 710.565C2148.66 719.331 2178.42 728.431 2208.09 737.503C2218.19 704.466 2228.26 671.529 2238 639.701C2198.62 663.347 2159 687.138 2119.98 710.565Z" fill="white"/>
<path d="M2208.19 737.531C2208.06 737.606 2208.09 737.503 2208.19 737.531Z" fill="white"/>
<path d="M2210.1 407.702C2239.86 416.801 2269.35 425.818 2298.3 434.668C2278.88 393.045 2259.27 351.036 2240.03 309.799C2230.27 341.728 2220.2 374.664 2210.1 407.702Z" fill="white"/>
<path d="M1963.74 1213.49C1993.51 1222.59 2023 1231.6 2051.31 1240.26C2032.13 1199.15 2012.58 1157.27 1993.46 1116.29C1983.91 1147.51 1973.84 1180.45 1963.74 1213.49Z" fill="white"/>
<path d="M1967.08 884.202C1996.2 893.108 2025.88 902.18 2055.55 911.252C2065.65 878.215 2075.75 845.177 2085.57 813.047C2046.2 836.692 2006.58 860.484 1967.08 884.202Z" fill="white"/>
<path d="M2055.58 911.481L2055.7 911.408L2055.61 911.38C2055.61 911.38 2055.61 911.38 2055.58 911.481Z" fill="white"/>
<path d="M1843.63 1286.68C1873.12 1295.7 1902.7 1304.74 1932.28 1313.79C1942.42 1280.65 1952.45 1247.81 1962.37 1215.38C1922.84 1239.2 1883.25 1262.89 1843.63 1286.68Z" fill="white"/>
<path d="M1934.19 984.287L1934.23 984.187L1934.13 984.159C1934.04 984.131 1934.19 984.287 1934.19 984.287Z" fill="white"/>
<path d="M1964.28 885.881C1954.36 918.314 1944.29 951.25 1934.23 984.187C1963.99 993.287 1993.75 1002.39 2022.79 1011.26C2003.31 969.513 1983.76 927.633 1964.28 885.881Z" fill="white"/>
<path d="M2150.46 276.578C2160.29 244.448 2170.36 211.511 2180.43 178.575C2150.66 169.475 2120.9 160.375 2092.13 151.581C2111.56 193.204 2131.1 235.084 2150.46 276.578Z" fill="white"/>
<path d="M2180.61 178.63L2180.55 178.502L2180.52 178.603C2180.52 178.603 2180.52 178.603 2180.61 178.63Z" fill="white"/>
<path d="M2027.38 679.169C2037.11 647.341 2047.21 614.303 2057.28 581.367C2027.52 572.267 1997.84 563.195 1969.17 554.428C1988.59 596.052 2008.14 637.932 2027.38 679.169Z" fill="white"/>
<path d="M2057.28 581.367L2057.37 581.395C2057.37 581.395 2057.4 581.294 2057.28 581.367L2057.37 581.395L2057.31 581.266C2057.31 581.266 2057.31 581.266 2057.28 581.367Z" fill="white"/>
<path d="M2093.26 -178.269C2112.74 -136.517 2132.22 -94.7659 2151.71 -53.0143C2161.62 -85.4472 2171.66 -118.283 2181.73 -151.219C2151.97 -160.319 2122.39 -169.363 2093.26 -178.269Z" fill="white"/>
<path d="M2089.41 151.079C2059.46 141.923 2029.88 132.879 2000.93 124.029C2020.36 165.652 2039.9 207.532 2059.38 249.284C2069.27 216.952 2079.31 184.116 2089.41 151.079Z" fill="white"/>
<path d="M1966.26 553.871C1936.41 544.743 1906.92 535.727 1877.79 526.821C1897.27 568.573 1916.76 610.324 1936.24 652.076C1946.15 619.643 1956.22 586.706 1966.26 553.871Z" fill="white"/>
<path d="M1847.18 627.6C1866.6 669.223 1886.14 711.103 1905.57 752.726C1915.42 720.495 1925.43 687.76 1935.56 654.622C1905.61 645.466 1876.03 636.422 1847.18 627.6Z" fill="white"/>
<path d="M993.125 806.491C973.881 765.254 954.338 723.374 935.274 682.521C925.666 713.947 915.627 746.783 905.558 779.719C935.321 788.819 964.904 797.863 993.125 806.491Z" fill="white"/>
<path d="M870.524 1209.45C851.16 1167.96 831.616 1126.08 812.253 1084.58C802.46 1116.61 792.421 1149.45 782.321 1182.48C812.357 1191.67 841.849 1200.68 870.524 1209.45Z" fill="white"/>
<path d="M1243.78 -328.503C1253.91 -361.641 1263.92 -394.376 1273.8 -426.708C1234.3 -402.99 1194.8 -379.271 1155.31 -355.553C1184.52 -346.619 1214.2 -337.547 1243.78 -328.503Z" fill="white"/>
<path d="M997.336 477.255C1007.5 444.016 1017.54 411.18 1027.36 379.05C987.982 402.695 948.361 426.487 908.861 450.205C937.99 459.111 967.572 468.155 997.336 477.255Z" fill="white"/>
<path d="M1206.34 1091.84C1216.5 1058.6 1226.54 1025.77 1236.36 993.637C1196.98 1017.28 1157.36 1041.07 1117.86 1064.79C1146.99 1073.7 1176.57 1082.74 1206.34 1091.84Z" fill="white"/>
<path d="M1236.38 660.916C1207.7 652.15 1177.94 643.05 1148.27 633.978C1138.17 667.015 1128.1 699.952 1118.37 731.78C1157.75 708.134 1197.37 684.343 1236.38 660.916Z" fill="white"/>
<path d="M1148.3 633.877L1148.18 633.95L1148.27 633.978L1148.3 633.877Z" fill="white"/>
<path d="M1117.47 735.031C1107.37 768.068 1097.36 800.803 1087.57 832.833C1126.95 809.188 1166.57 785.396 1205.58 761.969C1176.82 753.175 1147.24 744.131 1117.47 735.031Z" fill="white"/>
<path d="M1122.57 -254.981L1122.51 -255.11L1122.48 -255.009C1122.48 -255.009 1122.48 -255.009 1122.57 -254.981Z" fill="white"/>
<path d="M1092.34 -156.731C1102.22 -189.063 1112.29 -222 1122.36 -254.936C1092.6 -264.036 1062.83 -273.135 1033.89 -281.985C1053.31 -240.362 1072.85 -198.482 1092.34 -156.731Z" fill="white"/>
<path d="M1329.66 689.436L1329.79 689.363L1329.69 689.336C1329.69 689.336 1329.69 689.335 1329.66 689.436Z" fill="white"/>
<path d="M1241.43 662.241C1270.38 671.091 1300.05 680.163 1329.73 689.235C1339.83 656.198 1349.93 623.16 1359.69 591.231C1320.31 614.877 1280.69 638.668 1241.43 662.241Z" fill="white"/>
<path d="M1272.83 561.483C1301.24 570.166 1330.73 579.183 1360.49 588.282C1370.59 555.245 1380.63 522.409 1390.24 490.984C1351.22 514.41 1311.6 538.202 1272.83 561.483Z" fill="white"/>
<path d="M1333.99 -297.728C1324.17 -265.597 1314.1 -232.661 1304.03 -199.724C1333.79 -190.625 1363.56 -181.525 1392.32 -172.73C1372.9 -214.354 1353.36 -256.234 1333.99 -297.728Z" fill="white"/>
<path d="M1304.03 -199.724L1303.94 -199.752C1303.85 -199.78 1303.91 -199.652 1304.03 -199.724L1303.94 -199.752C1303.82 -199.679 1303.91 -199.652 1304.03 -199.724C1303.91 -199.652 1304 -199.624 1304 -199.624C1304 -199.624 1304 -199.624 1304.03 -199.724Z" fill="white"/>
<path d="M1360.22 258.447C1331.09 249.541 1301.6 240.525 1271.84 231.425C1261.67 264.664 1251.64 297.5 1241.84 329.53C1281.22 305.884 1320.75 282.065 1360.22 258.447Z" fill="white"/>
<path d="M720.693 1050.42C721.053 1051.19 721.625 1051.92 722.226 1052.87C732.419 1019.53 742.458 986.696 752.589 953.558C722.553 944.375 692.789 935.276 663.025 926.176C663.294 926.919 663.442 927.735 663.742 928.377C682.745 969.101 701.749 1009.83 720.693 1050.42Z" fill="white"/>
<path d="M662.965 926.047L662.844 926.12C662.935 926.148 663.025 926.176 663.025 926.176C663.025 926.176 663.025 926.176 662.965 926.047Z" fill="white"/>
<path d="M1518.55 -244.497C1547.5 -235.647 1577.17 -226.575 1606.84 -217.503C1616.98 -250.641 1626.98 -283.376 1636.81 -315.507C1597.43 -291.861 1557.72 -268.098 1518.55 -244.497Z" fill="white"/>
<path d="M1451.05 615.97C1461.21 582.731 1471.25 549.896 1481.05 517.866C1441.67 541.511 1402.05 565.303 1362.67 588.948C1391.71 597.826 1421.29 606.87 1451.05 615.97Z" fill="white"/>
<path d="M1481.97 515.174C1492.1 482.036 1502.11 449.301 1512.02 416.868C1472.52 440.586 1432.93 464.277 1393.4 488.096C1422.71 497.057 1452.39 506.129 1481.97 515.174Z" fill="white"/>
<path d="M1605.33 112.336C1615.43 79.2992 1625.43 46.5641 1635.29 14.3327C1595.79 38.0512 1556.17 61.8428 1517.03 85.3425C1545.89 94.1647 1575.56 103.237 1605.33 112.336Z" fill="white"/>
<path d="M1608.96 -216.966C1638.27 -208.005 1667.85 -198.961 1697.53 -189.889C1707.66 -223.027 1717.67 -255.762 1727.58 -288.194C1688.05 -264.375 1648.55 -240.657 1608.96 -216.966Z" fill="white"/>
<path d="M1483.99 516.673C1503.41 558.296 1522.96 600.176 1542.44 641.928C1552.33 609.596 1562.36 576.76 1572.46 543.723C1542.61 534.595 1513.03 525.551 1483.99 516.673Z" fill="white"/>
<path d="M1818.76 -262.192C1788.9 -271.319 1759.41 -280.335 1730.56 -289.158C1749.98 -247.535 1769.52 -205.655 1788.83 -164.289C1798.65 -196.419 1808.72 -229.356 1818.76 -262.192Z" fill="white"/>
<path d="M1446.02 1276.03C1416.71 1267.07 1387.12 1258.02 1357.45 1248.95C1347.32 1282.09 1337.31 1314.82 1327.39 1347.26C1366.93 1323.44 1406.43 1299.72 1446.02 1276.03Z" fill="white"/>
<path d="M1480.45 846.003C1470.34 879.04 1460.34 911.775 1450.58 943.705C1489.95 920.059 1529.57 896.267 1568.47 872.914C1539.79 864.147 1510.21 855.103 1480.45 846.003Z" fill="white"/>
<path d="M848.493 -8.58232L848.462 -8.48164C848.432 -8.38092 848.553 -8.45388 848.493 -8.58232C848.462 -8.48161 848.462 -8.48164 848.462 -8.48164C848.462 -8.48164 848.462 -8.48165 848.553 -8.45392L848.675 -8.52688C848.584 -8.5546 848.584 -8.5546 848.493 -8.58232Z" fill="white"/>
<path d="M846.309 -14.0962C828.174 -52.7923 810.16 -91.5614 792.024 -130.257C791.305 -131.799 790.495 -133.368 789.445 -135.452C779.19 -101.911 769.121 -68.9742 758.989 -35.8363C789.026 -26.6533 818.699 -17.5814 848.462 -8.48164C848.555 -8.78381 848.647 -9.08604 848.74 -9.38821C847.96 -11.0583 847.029 -12.5546 846.309 -14.0962Z" fill="white"/>
<path d="M545.762 675.556C545.042 674.014 544.141 672.417 543.122 670.233C532.868 703.774 522.798 736.711 512.698 769.748C513.665 770.154 514.36 770.476 515.086 770.698C543.217 779.299 571.347 787.899 599.477 796.499C600.476 796.804 601.657 796.835 602.686 797.04C601.696 795.085 600.675 793.231 599.776 791.304C581.791 752.764 563.837 714.123 545.762 675.556Z" fill="white"/>
<path d="M604.594 467.87L604.716 467.797L604.625 467.77C604.625 467.77 604.625 467.769 604.594 467.87Z" fill="white"/>
<path d="M516.09 440.591C545.219 449.497 574.892 458.569 604.565 467.641C614.665 434.604 624.766 401.567 634.589 369.436C595.211 393.081 555.59 416.873 516.09 440.591Z" fill="white"/>
<path d="M481.299 870.176C491.461 836.937 501.5 804.101 511.323 771.971C471.945 795.616 432.324 819.408 392.824 843.126C421.953 852.032 451.535 861.076 481.299 870.176Z" fill="white"/>
<path d="M1115.27 733.806C1095.78 692.055 1076.24 650.174 1057 608.937C1047.23 640.866 1037.16 673.803 1027.06 706.84C1056.92 715.967 1086.41 724.984 1115.27 733.806Z" fill="white"/>
<path d="M1536.03 1303.55C1507.45 1294.81 1477.78 1285.74 1448.1 1276.67C1437.97 1309.8 1427.99 1342.44 1418.26 1374.27C1457.52 1350.69 1497.14 1326.9 1536.03 1303.55Z" fill="white"/>
<path d="M1725.28 370.057C1715.15 403.195 1705.14 435.93 1695.2 468.464C1734.94 444.599 1774.44 420.881 1813.94 397.162C1784.72 388.229 1755.04 379.157 1725.28 370.057Z" fill="white"/>
<path d="M1844.64 296.411C1815.51 287.506 1785.84 278.434 1756.17 269.362C1746.03 302.5 1736.03 335.235 1726.14 367.567C1765.67 343.747 1805.26 320.057 1844.64 296.411Z" fill="white"/>
<path d="M513.295 442.27C503.379 474.703 493.309 507.639 483.24 540.576C513.003 549.676 542.767 558.775 571.805 567.653C552.322 525.902 532.778 484.022 513.295 442.27Z" fill="white"/>
<path d="M483.058 540.52L483.118 540.649L483.149 540.548C483.149 540.548 483.149 540.548 483.058 540.52Z" fill="white"/>
<path d="M1786.9 168.51C1776.8 201.547 1766.76 234.383 1757.06 266.111C1796.2 242.611 1835.82 218.82 1874.83 195.393C1846.25 186.654 1816.75 177.638 1786.9 168.51Z" fill="white"/>
<path d="M729.441 -265.036L729.531 -265.008C729.622 -264.98 729.562 -265.109 729.441 -265.036C729.531 -265.008 729.531 -265.008 729.531 -265.008C729.653 -265.081 729.562 -265.109 729.441 -265.036Z" fill="white"/>
<path d="M699.478 -167.032C709.301 -199.163 719.371 -232.1 729.441 -265.036C699.677 -274.136 669.913 -283.235 641.147 -292.03C660.571 -250.407 680.114 -208.527 699.478 -167.032Z" fill="white"/>
<path d="M606.356 137.555L606.326 137.655L606.416 137.683C606.386 137.784 606.356 137.555 606.356 137.555Z" fill="white"/>
<path d="M606.295 137.756C576.531 128.656 546.858 119.584 518.183 110.818C537.607 152.441 557.15 194.321 576.394 235.558C586.155 203.629 596.225 170.693 606.295 137.756Z" fill="white"/>
<path d="M1596.59 1431.65C1577.11 1389.9 1557.56 1348.02 1538.32 1306.78C1528.53 1338.81 1518.49 1371.65 1508.39 1404.68C1538.15 1413.78 1567.64 1422.8 1596.59 1431.65Z" fill="white"/>
<path d="M1600.77 1102.52C1630.53 1111.61 1660.03 1120.63 1689.06 1129.51C1669.58 1087.76 1650.04 1045.88 1630.73 1004.51C1620.94 1036.54 1610.87 1069.48 1600.77 1102.52Z" fill="white"/>
<path d="M996.301 807.462C1026.16 816.59 1055.65 825.606 1084.87 834.539C1065.32 792.659 1045.78 750.78 1026.36 709.156C1016.47 741.489 1006.4 774.425 996.301 807.462Z" fill="white"/>
<path d="M1661.22 904.465C1651.61 935.891 1641.57 968.727 1631.5 1001.66C1661.27 1010.76 1690.85 1019.81 1719.07 1028.44C1699.83 987.198 1680.28 945.318 1661.22 904.465Z" fill="white"/>
<path d="M642.878 -621.915C662.241 -580.42 681.784 -538.54 700.968 -497.431C710.668 -529.159 720.738 -562.095 730.808 -595.032C700.953 -604.159 671.552 -613.148 642.878 -621.915Z" fill="white"/>
<path d="M1053.77 935.28C1034.29 893.529 1014.74 851.649 995.499 810.411C985.706 842.441 975.636 875.377 965.567 908.314C995.331 917.414 1024.73 926.403 1053.77 935.28Z" fill="white"/>
<path d="M608.707 -195.334C618.346 -226.861 628.385 -259.696 638.485 -292.734C608.721 -301.833 579.139 -310.878 550.736 -319.561C570.04 -278.195 589.583 -236.315 608.707 -195.334Z" fill="white"/>
<path d="M426.984 83.2657C446.408 124.889 465.951 166.769 485.375 208.392C495.198 176.261 505.237 143.425 515.368 110.287C485.423 101.132 455.841 92.088 426.984 83.2657Z" fill="white"/>
<path d="M484.453 211.084C454.507 201.928 424.925 192.884 396.069 184.062C415.492 225.685 435.036 267.565 454.459 309.188C464.313 276.957 474.352 244.121 484.453 211.084Z" fill="white"/>
<path d="M1027.03 1037.68C1046.45 1079.31 1065.99 1121.19 1085.48 1162.94C1095.36 1130.6 1105.43 1097.67 1115.5 1064.73C1085.65 1055.6 1056.06 1046.56 1027.03 1037.68Z" fill="white"/>
<path d="M456.612 -20.4573C496.112 -44.1759 535.733 -67.9675 575.233 -91.686C546.013 -100.619 516.34 -109.691 486.667 -118.763C476.536 -85.6253 466.497 -52.7895 456.612 -20.4573Z" fill="white"/>
<path d="M178.816 888.496C168.654 921.735 158.615 954.571 148.822 986.601C188.201 962.955 227.822 939.164 267.2 915.518C238.162 906.64 208.58 897.596 178.816 888.496Z" fill="white"/>
<path d="M609.575 -522.399C619.706 -555.537 629.714 -588.272 639.599 -620.604C599.978 -596.813 560.357 -573.021 521.1 -549.448C550.229 -540.543 579.811 -531.499 609.575 -522.399Z" fill="white"/>
<path d="M1275.15 -429.16C1305.09 -420.005 1334.68 -410.961 1363.53 -402.139C1344.11 -443.762 1324.57 -485.642 1305.14 -527.265C1295.29 -495.033 1285.25 -462.198 1275.15 -429.16Z" fill="white"/>
<path d="M363.222 283.387C373.322 250.349 383.361 217.514 393.03 185.886C353.895 209.386 314.274 233.178 275.382 256.531C303.875 265.243 333.458 274.287 363.222 283.387Z" fill="white"/>
<path d="M1935.57 323.55C1916.09 281.798 1896.6 240.047 1877.12 198.295C1867.23 230.627 1857.16 263.564 1847.09 296.5C1876.95 305.628 1906.53 314.672 1935.57 323.55Z" fill="white"/>
<path d="M550.17 -650.699C580.025 -641.571 609.516 -632.555 638.373 -623.733C619.009 -665.227 599.466 -707.107 580.102 -748.602C570.279 -716.471 560.209 -683.535 550.17 -650.699Z" fill="white"/>
<path d="M1455.31 -46.0888C1465.13 -78.2195 1475.2 -111.156 1485.27 -144.092C1455.51 -153.192 1425.75 -162.292 1396.98 -171.086C1416.4 -129.463 1435.95 -87.5833 1455.31 -46.0888Z" fill="white"/>
<path d="M484.674 -120.033C465.191 -161.785 445.707 -203.536 426.224 -245.288C416.308 -212.855 406.238 -179.919 396.199 -147.083C425.963 -137.983 455.545 -128.939 484.674 -120.033Z" fill="white"/>
<path d="M1177.82 862.848C1207.67 871.975 1237.16 880.991 1266.29 889.897C1246.81 848.145 1227.33 806.394 1207.84 764.642C1197.93 797.075 1187.89 829.911 1177.82 862.848Z" fill="white"/>
<path d="M1515.48 -242.242C1505.66 -210.111 1495.59 -177.175 1485.52 -144.238C1515.28 -135.139 1545.04 -126.039 1573.81 -117.244C1554.39 -158.867 1534.84 -200.747 1515.48 -242.242Z" fill="white"/>
<path d="M1485.52 -144.238L1485.43 -144.266C1485.34 -144.294 1485.4 -144.165 1485.52 -144.238L1485.43 -144.266L1485.4 -144.165L1485.49 -144.138C1485.49 -144.138 1485.49 -144.138 1485.52 -144.238Z" fill="white"/>
<path d="M2001.09 -206.886C2030.86 -197.787 2060.35 -188.77 2089.3 -179.92C2069.81 -221.672 2050.27 -263.552 2031.03 -304.789C2021.26 -272.86 2011.19 -239.924 2001.09 -206.886Z" fill="white"/>
<path d="M210.543 459.848C200.658 492.18 189.711 527.985 179.641 560.921C209.496 570.049 238.988 579.065 268.116 587.971C248.724 546.247 230.026 501.599 210.543 459.848Z" fill="white"/>
<path d="M238.049 685.669C218.625 644.046 199.082 602.166 179.718 560.671C169.895 592.802 159.825 625.738 149.755 658.675C179.61 667.802 209.192 676.847 238.049 685.669Z" fill="white"/>
<path d="M57.3418 960.945C87.1964 970.073 116.688 979.089 145.726 987.967C126.302 946.344 106.759 904.464 87.3353 862.841C77.4812 895.072 67.4423 927.908 57.3418 960.945Z" fill="white"/>
<path d="M1725.55 699.893C1754.68 708.798 1784.26 717.842 1813.93 726.914C1824.1 693.676 1834.14 660.84 1843.93 628.81C1804.55 652.455 1765.02 676.275 1725.55 699.893Z" fill="white"/>
<path d="M1972.99 -105.56C2001.31 -96.9043 2030.89 -87.8601 2060.56 -78.7882C2070.66 -111.825 2080.7 -144.661 2090.28 -175.986C2051.26 -152.559 2011.64 -128.768 1972.99 -105.56Z" fill="white"/>
<path d="M335.884 -275C325.753 -241.862 315.744 -209.127 305.829 -176.694C345.45 -200.486 385.071 -224.277 424.45 -247.923C395.321 -256.829 365.648 -265.901 335.884 -275Z" fill="white"/>
<path d="M393.655 -147.2C364.527 -156.105 335.035 -165.122 305.271 -174.222C295.109 -140.983 285.07 -108.147 275.278 -76.1172C314.656 -99.7627 354.277 -123.554 393.655 -147.2Z" fill="white"/>
<path d="M244.452 24.7067C283.831 1.06119 323.452 -22.7303 362.952 -46.4489C333.823 -55.3544 304.241 -64.3986 274.477 -73.4984C264.346 -40.3604 254.307 -7.52468 244.452 24.7067Z" fill="white"/>
<path d="M85.8042 860.06C56.494 851.099 26.9117 842.055 -2.85211 832.955C-12.9834 866.093 -22.9915 898.828 -32.9381 931.362C6.80474 907.497 46.3044 883.779 85.8042 860.06Z" fill="white"/>
<path d="M1718.28 1359.16C1689.15 1350.25 1659.57 1341.21 1629.8 1332.11C1619.64 1365.35 1609.6 1398.18 1599.78 1430.31C1639.28 1406.59 1678.78 1382.88 1718.28 1359.16Z" fill="white"/>
<path d="M2026.22 351.925C1997.09 343.019 1967.51 333.975 1937.74 324.875C1927.58 358.114 1917.54 390.95 1907.72 423.081C1947.22 399.362 1986.72 375.643 2026.22 351.925Z" fill="white"/>
<path d="M29.7627 402.375C19.6314 435.513 9.59256 468.348 -0.292381 500.681C39.2074 476.962 78.8287 453.17 118.328 429.452C88.8368 420.435 59.3451 411.419 29.7627 402.375Z" fill="white"/>
<path d="M-93.3524 805.066C-103.545 838.405 -113.584 871.241 -123.13 902.465C-84.2383 879.112 -44.6169 855.32 -5.60332 831.894C-34.0967 823.182 -63.5885 814.166 -93.3524 805.066Z" fill="white"/>
<path d="M1081.23 1164.17C1053.28 1155.63 1024.06 1146.69 994.66 1137.7C984.56 1170.74 974.644 1203.18 965.282 1233.79C1003.57 1210.81 1042.82 1187.23 1081.23 1164.17Z" fill="white"/>
</g>
</g>
<path d="M120.814 401.034L145.394 408.549L146.456 405.078L125.907 398.795C129.164 388.342 149.606 392.571 153.646 379.357C155.529 373.198 152.539 366.958 145.036 364.664C136.693 362.113 130.935 368.128 130.935 368.128L133.248 370.978C133.248 370.978 137.915 366.527 143.682 368.291C148.609 369.797 150.864 374.037 149.546 378.349C146.293 388.987 125.588 384.616 121.36 398.446C121.121 399.23 120.92 400.087 120.814 401.034ZM158.528 400.626L178.237 406.651L174.899 417.57L178.762 418.751L182.1 407.833L187.699 409.544L188.744 406.129L183.144 404.417L190.796 379.389L186.597 378.105L159.298 398.106L158.528 400.626ZM164.275 398.648L164.31 398.536L182.633 385.464C184.124 384.39 185.5 383.096 185.5 383.096L185.612 383.13C185.612 383.13 184.827 385.095 184.314 386.774L179.281 403.236L164.275 398.648ZM196.824 418.885C196.824 418.885 198.808 425.614 206.647 428.011C214.317 430.356 222.038 426.533 224.263 419.254C226.437 412.143 222.528 404.703 214.633 402.289C211.106 401.21 208.18 401.969 208.18 401.969L208.068 401.935C208.068 401.935 208.549 401.163 209.144 399.815L213.346 390.079L229.023 394.872L230.085 391.4L211.047 385.58L203.082 404.023L205.272 405.672C205.272 405.672 208.89 404.451 213.09 405.735C218.689 407.447 221.875 412.646 220.232 418.021C218.588 423.396 213.04 425.924 207.608 424.264C201.617 422.432 200.109 416.951 200.109 416.951L196.824 418.885ZM233.645 430.143C233.645 430.143 235.629 436.872 243.468 439.268C251.139 441.613 258.859 437.79 261.084 430.511C263.258 423.4 259.349 415.96 251.454 413.546C247.927 412.468 245.001 413.226 245.001 413.226L244.889 413.192C244.889 413.192 245.37 412.421 245.966 411.072L250.167 401.336L265.844 406.129L266.906 402.658L247.868 396.838L239.903 415.28L242.093 416.929C242.093 416.929 245.711 415.709 249.911 416.993C255.51 418.705 258.696 423.903 257.053 429.278C255.409 434.654 249.861 437.182 244.43 435.521C238.438 433.69 236.931 428.208 236.931 428.208L233.645 430.143ZM293.614 441.497C291.337 448.944 296.165 455.379 303.276 457.553C310.891 459.882 317.914 456.335 319.797 450.176C321.047 446.088 319.354 442.816 316.671 439.975C317.256 439.664 323.027 436.408 324.739 430.809C326.622 424.65 323.168 419.124 315.833 416.882C307.883 414.451 302.474 418.124 300.916 423.219C299.769 426.971 301.105 430.012 303.339 432.715C302.272 433.001 295.548 435.17 293.614 441.497ZM315.839 448.904C314.418 453.552 309.019 455.391 304.372 453.97C299.613 452.515 296.014 447.864 297.64 442.545C299.181 437.505 304.563 435.722 306.017 435.371C310.985 439.951 317.397 443.809 315.839 448.904ZM304.818 424.473C305.897 420.946 309.699 418.925 314.738 420.465C319.497 421.92 322.052 425.579 320.768 429.778C319.33 434.482 314.892 436.982 313.959 437.431C309.057 433.239 303.261 429.569 304.818 424.473ZM337.967 468.159C350.173 471.891 359.051 461.075 362.064 451.22C365.317 440.582 362.058 431.014 353.491 428.395C346.604 426.289 339.65 429.612 337.15 437.787C334.874 445.234 338.304 452.038 345.471 454.229C349.558 455.478 354.081 454.902 356.897 452.702L357.009 452.736C353.936 460.184 347.31 467.036 339.023 464.503C335.776 463.51 333.74 461.357 333.74 461.357L331.24 464.327C331.24 464.327 333.655 466.841 337.967 468.159ZM347.148 450.946C341.773 449.302 339.375 444.528 341.087 438.929C342.747 433.498 347.115 430.425 352.435 432.052C358.314 433.849 360.33 441.874 358.721 447.137C357.745 450.328 352.467 452.572 347.148 450.946ZM376.811 480.035C389.017 483.767 397.895 472.951 400.908 463.096C404.161 452.458 400.902 442.89 392.336 440.271C385.449 438.165 378.494 441.488 375.995 449.663C373.718 457.11 377.148 463.914 384.315 466.105C388.402 467.354 392.925 466.778 395.741 464.578L395.853 464.612C392.78 472.06 386.154 478.912 377.868 476.379C374.62 475.386 372.584 473.233 372.584 473.233L370.084 476.203C370.084 476.203 372.5 478.717 376.811 480.035ZM385.992 462.822C380.617 461.178 378.219 456.404 379.931 450.805C381.592 445.374 385.96 442.301 391.279 443.927C397.158 445.725 399.174 453.749 397.565 459.013C396.589 462.204 391.311 464.448 385.992 462.822ZM410.584 477.258C408.307 484.705 413.135 491.141 420.246 493.315C427.861 495.643 434.884 492.096 436.768 485.937C438.017 481.85 436.324 478.577 433.641 475.736C434.226 475.425 439.997 472.169 441.709 466.57C443.592 460.411 440.138 454.886 432.803 452.643C424.853 450.212 419.444 453.885 417.886 458.981C416.739 462.732 418.075 465.773 420.31 468.477C419.242 468.763 412.518 470.931 410.584 477.258ZM432.809 484.666C431.388 489.313 425.989 491.152 421.342 489.731C416.583 488.276 412.984 483.625 414.611 478.306C416.151 473.267 421.533 471.483 422.987 471.132C427.955 475.712 434.367 479.57 432.809 484.666ZM421.788 460.235C422.867 456.707 426.669 454.686 431.708 456.227C436.467 457.682 439.022 461.34 437.738 465.54C436.3 470.243 431.862 472.743 430.929 473.193C426.027 469 420.231 465.33 421.788 460.235ZM470.501 495.577C468.225 503.024 473.053 509.459 480.164 511.633C487.779 513.962 494.802 510.415 496.685 504.256C497.935 500.168 496.241 496.896 493.559 494.055C494.144 493.744 499.915 490.488 501.627 484.889C503.51 478.73 500.056 473.204 492.721 470.962C484.77 468.531 479.362 472.204 477.804 477.299C476.657 481.051 477.992 484.092 480.227 486.795C479.16 487.081 472.436 489.25 470.501 495.577ZM492.727 502.984C491.306 507.632 485.907 509.471 481.26 508.05C476.5 506.595 472.902 501.944 474.528 496.624C476.069 491.585 481.451 489.802 482.905 489.451C487.872 494.031 494.285 497.889 492.727 502.984ZM481.706 478.553C482.785 475.026 486.586 473.005 491.626 474.545C496.385 476 498.94 479.659 497.656 483.858C496.218 488.562 491.78 491.062 490.847 491.511C485.945 487.319 480.148 483.649 481.706 478.553ZM509.783 507.587C507.506 515.034 512.335 521.469 519.446 523.643C527.061 525.971 534.084 522.424 535.967 516.265C537.216 512.178 535.523 508.905 532.84 506.065C533.425 505.754 539.196 502.497 540.908 496.898C542.791 490.739 539.338 485.214 532.003 482.971C524.052 480.541 518.643 484.214 517.085 489.309C515.938 493.06 517.274 496.101 519.509 498.805C518.442 499.091 511.717 501.26 509.783 507.587ZM532.008 514.994C530.588 519.641 525.189 521.48 520.541 520.06C515.782 518.605 512.184 513.953 513.81 508.634C515.35 503.595 520.732 501.812 522.187 501.46C527.154 506.04 533.566 509.899 532.008 514.994ZM520.988 490.563C522.066 487.036 525.868 485.014 530.907 486.555C535.666 488.01 538.221 491.669 536.937 495.868C535.5 500.571 531.062 503.072 530.128 503.521C525.226 499.328 519.43 495.658 520.988 490.563ZM549.065 519.596C546.788 527.043 551.616 533.479 558.727 535.653C566.342 537.981 573.365 534.434 575.248 528.275C576.498 524.188 574.805 520.915 572.122 518.074C572.707 517.763 578.478 514.507 580.19 508.908C582.073 502.749 578.619 497.223 571.284 494.981C563.334 492.55 557.925 496.223 556.367 501.318C555.22 505.07 556.556 508.111 558.79 510.814C557.723 511.101 550.999 513.269 549.065 519.596ZM571.29 527.004C569.869 531.651 564.47 533.49 559.823 532.069C555.064 530.614 551.465 525.963 553.091 520.644C554.632 515.604 560.014 513.821 561.468 513.47C566.436 518.05 572.848 521.908 571.29 527.004ZM560.269 502.573C561.348 499.045 565.15 497.024 570.189 498.564C574.948 500.019 577.503 503.678 576.219 507.878C574.781 512.581 570.343 515.081 569.41 515.531C564.508 511.338 558.712 507.668 560.269 502.573ZM598.961 547.953C605.848 550.059 612.859 546.753 615.358 538.578C617.635 531.132 614.148 524.311 606.981 522.119C602.894 520.87 598.371 521.446 595.611 523.664L595.499 523.629C598.516 516.164 605.198 509.329 613.429 511.845C616.676 512.838 618.712 514.991 618.712 514.991L621.212 512.021C621.212 512.021 618.853 509.524 614.485 508.189C602.335 504.474 593.401 515.273 590.388 525.128C587.136 535.766 590.394 545.334 598.961 547.953ZM600.018 544.297C594.138 542.499 592.122 534.475 593.731 529.211C594.707 526.02 600.041 523.793 605.304 525.403C610.679 527.046 613.077 531.82 611.365 537.419C609.705 542.85 605.337 545.923 600.018 544.297ZM643.975 560.981L665.308 567.503L666.369 564.031L657.691 561.378L668.664 525.488L665.08 524.392L653.473 530.517L655.166 533.79L660.649 530.874C662.679 529.842 663.328 529.122 663.328 529.122L663.44 529.156C663.44 529.156 663.059 530.203 662.716 531.322L653.883 560.214L645.037 557.509L643.975 560.981ZM676.833 559.088L696.542 565.113L693.204 576.032L697.068 577.213L700.406 566.294L706.005 568.006L707.049 564.591L701.45 562.879L709.102 537.851L704.902 536.567L677.604 556.568L676.833 559.088ZM682.581 557.11L682.615 556.998L700.938 543.926C702.43 542.852 703.805 541.558 703.805 541.558L703.917 541.592C703.917 541.592 703.133 543.557 702.619 545.236L697.587 561.698L682.581 557.11ZM714.557 577.417C714.557 577.417 717.673 584.247 725.4 586.61C732.847 588.886 740.046 584.965 742.1 578.246C744.702 569.735 738.223 564.693 733.325 562.889L749.226 552.934L750.014 550.359L727.001 543.323L725.94 546.795L740.722 551.314C742.793 551.947 743.965 552.122 743.965 552.122L743.93 552.234C743.93 552.234 742.631 552.877 741.191 553.784L727.81 562.305L728.06 564.892L730.748 565.714C735.899 567.289 739.785 571.599 738.09 577.142C736.55 582.182 731.177 584.335 726.474 582.897C720.427 581.048 717.816 575.168 717.816 575.168L714.557 577.417ZM752.169 588.671C752.169 588.671 754.153 595.4 761.992 597.797C769.663 600.142 777.383 596.319 779.608 589.04C781.782 581.929 777.873 574.489 769.978 572.075C766.451 570.996 763.525 571.755 763.525 571.755L763.413 571.721C763.413 571.721 763.894 570.949 764.49 569.601L768.691 559.865L784.369 564.658L785.43 561.187L766.393 555.366L758.428 573.809L760.617 575.458C760.617 575.458 764.235 574.238 768.435 575.521C774.034 577.233 777.22 582.432 775.577 587.807C773.933 593.182 768.385 595.711 762.954 594.05C756.963 592.218 755.455 586.737 755.455 586.737L752.169 588.671Z" fill="white"/>
<path d="M101.109 458.797L113.534 462.596L114.338 459.964L109.626 458.523L115.426 439.55L112.733 438.727L106.027 442.164L107.283 444.623L109.911 443.251C110.941 442.73 111.335 442.315 111.335 442.315L111.397 442.334C111.397 442.334 111.16 442.997 110.954 443.671L106.688 457.625L101.914 456.166L101.109 458.797ZM126.864 467.073C132.647 468.841 136.03 464.454 137.938 458.211C139.838 451.999 139.477 446.502 133.693 444.733C127.94 442.974 124.567 447.331 122.668 453.543C120.759 459.786 121.11 465.314 126.864 467.073ZM127.715 464.288C124.196 463.212 124.318 459.2 125.759 454.488C127.19 449.806 129.323 446.442 132.842 447.518C136.392 448.603 136.279 452.584 134.847 457.266C133.407 461.979 131.265 465.373 127.715 464.288ZM140.323 472.192L142.955 472.996L158.081 451.32L155.45 450.515L140.323 472.192ZM156.883 475.849L170.807 480.106L171.611 477.474L160.901 474.2C162.468 469.291 173.118 471.343 175.288 464.243C176.43 460.51 174.342 457.161 170.363 455.945C165.498 454.457 162.285 457.959 162.285 457.959L164.061 460.141C164.061 460.141 166.433 457.855 169.279 458.725C171.544 459.417 172.726 461.351 172.071 463.494C170.518 468.574 159.593 466.438 157.235 474.15C157.076 474.67 156.969 475.239 156.883 475.849ZM177.455 482.139L191.379 486.396L192.184 483.764L181.473 480.489C183.041 475.581 193.69 477.632 195.861 470.533C197.002 466.799 194.914 463.45 190.936 462.234C186.07 460.747 182.858 464.248 182.858 464.248L184.633 466.431C184.633 466.431 187.006 464.145 189.852 465.015C192.116 465.707 193.298 467.641 192.643 469.783C191.09 474.863 180.165 472.728 177.808 480.439C177.649 480.96 177.541 481.529 177.455 482.139Z" fill="white"/>
<path d="M754.091 269.452L726.995 322.967L742.696 327.767L769.8 274.255L754.091 269.452Z" fill="white"/>
<path d="M731.089 262.489L703.927 296.33L704.066 290.009C703.177 282.069 697.646 269.367 689.479 259.93L689.131 311.36L705.753 316.412L747.727 267.562L731.089 262.489Z" fill="white"/>
<path d="M706.874 259.508C707.013 255.787 704.682 253.952 701.436 252.825L677.093 245.383L676.547 246.446C694.113 256.746 703.327 271.441 704.535 286.093L706.874 259.508Z" fill="white"/>
<path d="M798.31 294.819C803.471 296.31 806.858 298.55 809.401 300.575L810.618 301.662L816.487 290.062C813.728 287.966 809.229 285.248 803.147 283.389C787.632 278.645 774.352 282.967 770.908 293.927C768.326 302.013 774.831 308.958 779.965 313.486C785.235 318.13 786.748 320.52 785.962 322.987C784.757 326.756 779.397 327.014 774.886 325.635C768.598 323.713 765.519 321.84 761.006 318.156L759.259 316.634L753.183 328.608C756.374 331.312 762.739 334.744 769.757 336.967C786.262 342.013 799.303 337.718 803.005 326.014C805.037 319.614 802.348 313.433 794.503 306.637C789.812 302.336 786.985 299.565 787.826 296.929C788.545 294.58 792.164 292.94 798.31 294.819Z" fill="white"/>
<path d="M857.192 301.042L845.061 297.334C841.293 296.182 838.183 296.331 835.401 299.509L796.252 344.175L812.741 349.216C812.741 349.216 817.56 343.074 818.636 341.735C820.441 342.287 836.454 347.209 838.736 347.907C838.601 350.023 838.062 356.958 838.062 356.958L852.628 361.411L857.192 301.042ZM826.691 331.549C828.976 328.7 837.776 317.667 837.776 317.667C837.644 317.795 840.055 314.79 841.517 312.911L841.086 318.107C841.086 318.107 839.969 332.52 839.735 335.537L826.691 331.549Z" fill="white"/>
<g filter="url(#filter1_bi_1_30)">
<rect x="175.929" y="216.63" width="120" height="96" rx="16" transform="rotate(17 175.929 216.63)" fill="white" fill-opacity="0.32"/>
<rect x="175.929" y="216.63" width="120" height="96" rx="16" transform="rotate(17 175.929 216.63)" fill="url(#paint2_linear_1_30)" fill-opacity="0.03"/>
<rect x="175.929" y="216.63" width="120" height="96" rx="16" transform="rotate(17 175.929 216.63)" fill="url(#paint3_linear_1_30)"/>
<rect x="176.925" y="218.503" width="117" height="93" rx="14.5" transform="rotate(17 176.925 218.503)" stroke="white" stroke-opacity="0.4" stroke-width="3"/>
</g>
<path opacity="0.9" fill-rule="evenodd" clip-rule="evenodd" d="M249.281 256.82L283.308 267.249L282.255 270.919L249.943 261.04L242.415 285.82L274.997 296.283L273.944 299.952L241.306 289.472L234.07 313.296L267.189 323.393L266.136 327.063L231.205 316.383C230.251 316.077 229.678 315.015 229.991 313.982L231.521 308.946L214.536 303.492L209.873 318.846C209.723 319.338 209.39 319.741 208.957 319.973L201.431 323.666L196.324 322.091L206.582 316.938L211.009 302.36L194.024 296.905L192.577 301.613C192.265 302.641 191.217 303.173 190.268 302.868L155.133 291.956L156.256 288.309L189.607 298.648L196.755 275.166L163.584 264.515L164.708 260.868L197.864 271.515L205.223 247.444L172.036 237.074L173.159 233.427L208.089 244.356C209.043 244.663 209.616 245.724 209.302 246.758L207.649 252.04L224.635 257.494L229.297 242.141C229.447 241.648 229.78 241.245 230.213 241.014L230.239 241L235.569 237.736L240.751 239.335L232.583 244.068L228.161 258.627L245.147 264.081L246.973 258.075C247.285 257.047 248.332 256.515 249.281 256.82ZM232.63 305.294L244.038 267.733L206.54 255.692L195.133 293.254L232.63 305.294Z" fill="#FBDCA6"/>
<defs>
<filter id="filter0_bi_1_30" x="-216.908" y="-216.858" width="1402.97" height="1190.52" filterUnits="userSpaceOnUse" color-interpolation-filters="sRGB">
<feFlood flood-opacity="0" result="BackgroundImageFix"/>
<feGaussianBlur in="BackgroundImage" stdDeviation="115"/>
<feComposite in2="SourceAlpha" operator="in" result="effect1_backgroundBlur_1_30"/>
<feBlend mode="normal" in="SourceGraphic" in2="effect1_backgroundBlur_1_30" result="shape"/>
<feColorMatrix in="SourceAlpha" type="matrix" values="0 0 0 0 0 0 0 0 0 0 0 0 0 0 0 0 0 0 127 0" result="hardAlpha"/>
<feMorphology radius="3" operator="erode" in="SourceAlpha" result="effect2_innerShadow_1_30"/>
<feOffset dy="4"/>
<feGaussianBlur stdDeviation="7"/>
<feComposite in2="hardAlpha" operator="arithmetic" k2="-1" k3="1"/>
<feColorMatrix type="matrix" values="0 0 0 0 1 0 0 0 0 1 0 0 0 0 1 0 0 0 0.25 0"/>
<feBlend mode="normal" in2="shape" result="effect2_innerShadow_1_30"/>
</filter>
<filter id="filter1_bi_1_30" x="-78.1642" y="-9.39563" width="594.875" height="578.941" filterUnits="userSpaceOnUse" color-interpolation-filters="sRGB">
<feFlood flood-opacity="0" result="BackgroundImageFix"/>
<feGaussianBlur in="BackgroundImage" stdDeviation="115"/>
<feComposite in2="SourceAlpha" operator="in" result="effect1_backgroundBlur_1_30"/>
<feBlend mode="normal" in="SourceGraphic" in2="effect1_backgroundBlur_1_30" result="shape"/>
<feColorMatrix in="SourceAlpha" type="matrix" values="0 0 0 0 0 0 0 0 0 0 0 0 0 0 0 0 0 0 127 0" result="hardAlpha"/>
<feMorphology radius="3" operator="erode" in="SourceAlpha" result="effect2_innerShadow_1_30"/>
<feOffset dy="4"/>
<feGaussianBlur stdDeviation="7"/>
<feComposite in2="hardAlpha" operator="arithmetic" k2="-1" k3="1"/>
<feColorMatrix type="matrix" values="0 0 0 0 1 0 0 0 0 1 0 0 0 0 1 0 0 0 0.25 0"/>
<feBlend mode="normal" in2="shape" result="effect2_innerShadow_1_30"/>
</filter>
<linearGradient id="paint0_linear_1_30" x1="580.628" y1="0.72113" x2="580.628" y2="530.721" gradientUnits="userSpaceOnUse">
<stop stop-color="white" stop-opacity="0.2"/>
<stop offset="1" stop-color="white" stop-opacity="0"/>
</linearGradient>
<linearGradient id="paint1_linear_1_30" x1="581.084" y1="1.01352" x2="581.084" y2="531.014" gradientUnits="userSpaceOnUse">
<stop stop-color="white" stop-opacity="0.2"/>
<stop offset="1" stop-color="white" stop-opacity="0"/>
</linearGradient>
<linearGradient id="paint2_linear_1_30" x1="235.929" y1="216.63" x2="235.929" y2="312.63" gradientUnits="userSpaceOnUse">
<stop stop-color="#564C16" stop-opacity="0.2"/>
<stop offset="1" stop-color="white" stop-opacity="0"/>
</linearGradient>
<linearGradient id="paint3_linear_1_30" x1="235.929" y1="216.63" x2="235.929" y2="312.63" gradientUnits="userSpaceOnUse">
<stop stop-color="#F6B545"/>
<stop offset="1" stop-color="#F6B545"/>
</linearGradient>
</defs>
</svg>
